<svg width="515" height="2" viewBox="0 0 515 2" fill="none" xmlns="http://www.w3.org/2000/svg">
<path d="M1.00586 0.500022C1.282 0.500022 1.50586 0.72388 1.50586 1.00002C1.50586 1.27616 1.282 1.50002 1.00586 1.50002L1.00586 0.500022ZM7.04102 1.50002C6.76487 1.50002 6.54102 1.27616 6.54102 1.00002C6.54102 0.723879 6.76487 0.500022 7.04102 0.500022L7.04102 1.50002ZM9.05273 0.500021C9.32888 0.500021 9.55273 0.723879 9.55273 1.00002C9.55273 1.27616 9.32888 1.50002 9.05273 1.50002L9.05273 0.500021ZM15.0879 1.50002C14.8117 1.50002 14.5879 1.27616 14.5879 1.00002C14.5879 0.723879 14.8117 0.500021 15.0879 0.500021L15.0879 1.50002ZM17.0996 0.500021C17.3758 0.500021 17.5996 0.723878 17.5996 1.00002C17.5996 1.27616 17.3758 1.50002 17.0996 1.50002L17.0996 0.500021ZM23.1348 1.50002C22.8586 1.50002 22.6348 1.27616 22.6348 1.00002C22.6348 0.723878 22.8586 0.50002 23.1348 0.50002L23.1348 1.50002ZM25.1465 0.50002C25.4226 0.50002 25.6465 0.723878 25.6465 1.00002C25.6465 1.27616 25.4226 1.50002 25.1465 1.50002L25.1465 0.50002ZM31.1816 1.50002C30.9055 1.50002 30.6816 1.27616 30.6816 1.00002C30.6816 0.723877 30.9055 0.500019 31.1816 0.500019L31.1816 1.50002ZM33.1934 0.500019C33.4695 0.500019 33.6934 0.723877 33.6934 1.00002C33.6934 1.27616 33.4695 1.50002 33.1934 1.50002L33.1934 0.500019ZM39.2285 1.50002C38.9524 1.50002 38.7285 1.27616 38.7285 1.00002C38.7285 0.723876 38.9524 0.500019 39.2285 0.500019L39.2285 1.50002ZM41.2402 0.500019C41.5164 0.500019 41.7402 0.723876 41.7402 1.00002C41.7402 1.27616 41.5164 1.50002 41.2402 1.50002L41.2402 0.500019ZM47.2754 1.50002C46.9992 1.50002 46.7754 1.27616 46.7754 1.00002C46.7754 0.723876 46.9992 0.500018 47.2754 0.500018L47.2754 1.50002ZM49.2871 0.500018C49.5633 0.500018 49.7871 0.723875 49.7871 1.00002C49.7871 1.27616 49.5633 1.50002 49.2871 1.50002L49.2871 0.500018ZM55.3223 1.50002C55.0461 1.50002 54.8223 1.27616 54.8223 1.00002C54.8223 0.723875 55.0461 0.500017 55.3223 0.500017L55.3223 1.50002ZM57.334 0.500017C57.6101 0.500017 57.834 0.723875 57.834 1.00002C57.834 1.27616 57.6101 1.50002 57.334 1.50002L57.334 0.500017ZM63.3691 1.50002C63.093 1.50002 62.8691 1.27616 62.8691 1.00002C62.8691 0.723874 63.093 0.500017 63.3691 0.500017L63.3691 1.50002ZM65.3809 0.500016C65.657 0.500016 65.8809 0.723874 65.8809 1.00002C65.8809 1.27616 65.657 1.50002 65.3809 1.50002L65.3809 0.500016ZM71.416 1.50002C71.1399 1.50002 70.916 1.27616 70.916 1.00002C70.916 0.723874 71.1399 0.500016 71.416 0.500016L71.416 1.50002ZM73.4277 0.500016C73.7039 0.500016 73.9277 0.723873 73.9277 1.00002C73.9277 1.27616 73.7039 1.50002 73.4277 1.50002L73.4277 0.500016ZM79.4629 1.50002C79.1867 1.50002 78.9629 1.27616 78.9629 1.00002C78.9629 0.723873 79.1867 0.500015 79.4629 0.500015L79.4629 1.50002ZM81.4746 0.500015C81.7508 0.500015 81.9746 0.723873 81.9746 1.00002C81.9746 1.27616 81.7508 1.50002 81.4746 1.50002L81.4746 0.500015ZM87.5098 1.50001C87.2336 1.50001 87.0098 1.27616 87.0098 1.00001C87.0098 0.723872 87.2336 0.500015 87.5098 0.500015L87.5098 1.50001ZM89.5215 0.500014C89.7976 0.500014 90.0215 0.723872 90.0215 1.00001C90.0215 1.27616 89.7976 1.50001 89.5215 1.50001L89.5215 0.500014ZM95.5566 1.50001C95.2805 1.50001 95.0566 1.27616 95.0566 1.00001C95.0566 0.723872 95.2805 0.500014 95.5566 0.500014L95.5566 1.50001ZM97.5684 0.500014C97.8445 0.500014 98.0684 0.723871 98.0684 1.00001C98.0684 1.27616 97.8445 1.50001 97.5684 1.50001L97.5684 0.500014ZM103.604 1.50001C103.327 1.50001 103.104 1.27616 103.104 1.00001C103.104 0.723871 103.327 0.500013 103.604 0.500013L103.604 1.50001ZM105.615 0.500013C105.891 0.500013 106.115 0.723871 106.115 1.00001C106.115 1.27616 105.891 1.50001 105.615 1.50001L105.615 0.500013ZM111.65 1.50001C111.374 1.50001 111.15 1.27615 111.15 1.00001C111.15 0.72387 111.374 0.500013 111.65 0.500012L111.65 1.50001ZM113.662 0.500012C113.938 0.500012 114.162 0.72387 114.162 1.00001C114.162 1.27615 113.938 1.50001 113.662 1.50001L113.662 0.500012ZM119.697 1.50001C119.421 1.50001 119.197 1.27615 119.197 1.00001C119.197 0.723869 119.421 0.500012 119.697 0.500012L119.697 1.50001ZM121.709 0.500012C121.985 0.500012 122.209 0.723869 122.209 1.00001C122.209 1.27615 121.985 1.50001 121.709 1.50001L121.709 0.500012ZM127.744 1.50001C127.468 1.50001 127.244 1.27615 127.244 1.00001C127.244 0.723869 127.468 0.500011 127.744 0.500011L127.744 1.50001ZM129.756 0.500011C130.032 0.500011 130.256 0.723869 130.256 1.00001C130.256 1.27615 130.032 1.50001 129.756 1.50001L129.756 0.500011ZM135.791 1.50001C135.515 1.50001 135.291 1.27615 135.291 1.00001C135.291 0.723868 135.515 0.50001 135.791 0.50001L135.791 1.50001ZM137.803 0.50001C138.079 0.50001 138.303 0.723868 138.303 1.00001C138.303 1.27615 138.079 1.50001 137.803 1.50001L137.803 0.50001ZM143.838 1.50001C143.562 1.50001 143.338 1.27615 143.338 1.00001C143.338 0.723867 143.562 0.50001 143.838 0.50001L143.838 1.50001ZM145.85 0.50001C146.126 0.500009 146.35 0.723867 146.35 1.00001C146.35 1.27615 146.126 1.50001 145.85 1.50001L145.85 0.50001ZM151.885 1.50001C151.609 1.50001 151.385 1.27615 151.385 1.00001C151.385 0.723867 151.609 0.500009 151.885 0.500009L151.885 1.50001ZM153.896 0.500009C154.173 0.500009 154.396 0.723866 154.396 1.00001C154.396 1.27615 154.173 1.50001 153.896 1.50001L153.896 0.500009ZM159.932 1.50001C159.656 1.50001 159.432 1.27615 159.432 1.00001C159.432 0.723866 159.656 0.500008 159.932 0.500008L159.932 1.50001ZM161.943 0.500008C162.219 0.500008 162.443 0.723866 162.443 1.00001C162.443 1.27615 162.219 1.50001 161.943 1.50001L161.943 0.500008ZM167.979 1.50001C167.702 1.50001 167.479 1.27615 167.479 1.00001C167.479 0.723865 167.702 0.500008 167.979 0.500008L167.979 1.50001ZM169.99 0.500007C170.266 0.500007 170.49 0.723865 170.49 1.00001C170.49 1.27615 170.266 1.50001 169.99 1.50001L169.99 0.500007ZM176.025 1.50001C175.749 1.50001 175.525 1.27615 175.525 1.00001C175.525 0.723865 175.749 0.500007 176.025 0.500007L176.025 1.50001ZM178.037 0.500007C178.313 0.500007 178.537 0.723864 178.537 1.00001C178.537 1.27615 178.313 1.50001 178.037 1.50001L178.037 0.500007ZM184.072 1.50001C183.796 1.50001 183.572 1.27615 183.572 1.00001C183.572 0.723864 183.796 0.500006 184.072 0.500006L184.072 1.50001ZM186.084 0.500006C186.36 0.500006 186.584 0.723864 186.584 1.00001C186.584 1.27615 186.36 1.50001 186.084 1.50001L186.084 0.500006ZM192.119 1.50001C191.843 1.50001 191.619 1.27615 191.619 1.00001C191.619 0.723863 191.843 0.500006 192.119 0.500006L192.119 1.50001ZM194.131 0.500005C194.407 0.500005 194.631 0.723863 194.631 1.00001C194.631 1.27615 194.407 1.50001 194.131 1.50001L194.131 0.500005ZM200.166 1.5C199.89 1.5 199.666 1.27615 199.666 1C199.666 0.723862 199.89 0.500005 200.166 0.500005L200.166 1.5ZM202.178 0.500005C202.454 0.500005 202.678 0.723862 202.678 1C202.678 1.27615 202.454 1.5 202.178 1.5L202.178 0.500005ZM208.213 1.5C207.937 1.5 207.713 1.27615 207.713 1C207.713 0.723862 207.937 0.500004 208.213 0.500004L208.213 1.5ZM210.225 0.500004C210.501 0.500004 210.725 0.723862 210.725 1C210.725 1.27615 210.501 1.5 210.225 1.5L210.225 0.500004ZM216.26 1.5C215.984 1.5 215.76 1.27615 215.76 1C215.76 0.723861 215.984 0.500003 216.26 0.500003L216.26 1.5ZM218.271 0.500003C218.548 0.500003 218.771 0.723861 218.771 1C218.771 1.27615 218.548 1.5 218.271 1.5L218.271 0.500003ZM224.307 1.5C224.031 1.5 223.807 1.27615 223.807 1C223.807 0.72386 224.031 0.500003 224.307 0.500003L224.307 1.5ZM226.318 0.500003C226.594 0.500003 226.818 0.72386 226.818 1C226.818 1.27614 226.594 1.5 226.318 1.5L226.318 0.500003ZM232.354 1.5C232.077 1.5 231.854 1.27614 231.854 1C231.854 0.72386 232.077 0.500002 232.354 0.500002L232.354 1.5ZM234.365 0.500002C234.641 0.500002 234.865 0.723859 234.865 1C234.865 1.27614 234.641 1.5 234.365 1.5L234.365 0.500002ZM240.4 1.5C240.124 1.5 239.9 1.27614 239.9 1C239.9 0.723859 240.124 0.500001 240.4 0.500001L240.4 1.5ZM242.412 0.500001C242.688 0.500001 242.912 0.723859 242.912 1C242.912 1.27614 242.688 1.5 242.412 1.5L242.412 0.500001ZM248.447 1.5C248.171 1.5 247.947 1.27614 247.947 1C247.947 0.723858 248.171 0.500001 248.447 0.500001L248.447 1.5ZM250.459 0.5C250.735 0.5 250.959 0.723858 250.959 1C250.959 1.27614 250.735 1.5 250.459 1.5L250.459 0.5ZM256.494 1.5C256.218 1.5 255.994 1.27614 255.994 1C255.994 0.723858 256.218 0.5 256.494 0.5L256.494 1.5ZM258.506 0.5C258.782 0.5 259.006 0.723857 259.006 1C259.006 1.27614 258.782 1.5 258.506 1.5L258.506 0.5ZM264.541 1.5C264.265 1.5 264.041 1.27614 264.041 0.999999C264.041 0.723857 264.265 0.499999 264.541 0.499999L264.541 1.5ZM266.553 0.499999C266.829 0.499999 267.053 0.723857 267.053 0.999999C267.053 1.27614 266.829 1.5 266.553 1.5L266.553 0.499999ZM272.588 1.5C272.312 1.5 272.088 1.27614 272.088 0.999999C272.088 0.723856 272.312 0.499999 272.588 0.499999L272.588 1.5ZM274.6 0.499998C274.876 0.499998 275.1 0.723856 275.1 0.999998C275.1 1.27614 274.876 1.5 274.6 1.5L274.6 0.499998ZM280.635 1.5C280.359 1.5 280.135 1.27614 280.135 0.999998C280.135 0.723856 280.359 0.499998 280.635 0.499998L280.635 1.5ZM282.646 0.499998C282.923 0.499998 283.146 0.723855 283.146 0.999998C283.146 1.27614 282.923 1.5 282.646 1.5L282.646 0.499998ZM288.682 1.5C288.405 1.5 288.182 1.27614 288.182 0.999997C288.182 0.723855 288.405 0.499997 288.682 0.499997L288.682 1.5ZM290.693 0.499997C290.97 0.499997 291.193 0.723855 291.193 0.999997C291.193 1.27614 290.97 1.5 290.693 1.5L290.693 0.499997ZM296.729 1.5C296.452 1.5 296.229 1.27614 296.229 0.999996C296.229 0.723854 296.452 0.499996 296.729 0.499996L296.729 1.5ZM298.74 0.499996C299.016 0.499996 299.24 0.723854 299.24 0.999996C299.24 1.27614 299.016 1.5 298.74 1.5L298.74 0.499996ZM304.775 1.5C304.499 1.5 304.275 1.27614 304.275 0.999996C304.275 0.723853 304.499 0.499996 304.775 0.499996L304.775 1.5ZM306.787 0.499996C307.063 0.499996 307.287 0.723853 307.287 0.999996C307.287 1.27614 307.063 1.5 306.787 1.5L306.787 0.499996ZM312.822 1.5C312.546 1.5 312.322 1.27614 312.322 0.999995C312.322 0.723853 312.546 0.499995 312.822 0.499995L312.822 1.5ZM314.834 0.499995C315.11 0.499995 315.334 0.723852 315.334 0.999995C315.334 1.27614 315.11 1.49999 314.834 1.49999L314.834 0.499995ZM320.869 1.49999C320.593 1.49999 320.369 1.27614 320.369 0.999994C320.369 0.723852 320.593 0.499994 320.869 0.499994L320.869 1.49999ZM322.881 0.499994C323.157 0.499994 323.381 0.723852 323.381 0.999994C323.381 1.27614 323.157 1.49999 322.881 1.49999L322.881 0.499994ZM328.916 1.49999C328.64 1.49999 328.416 1.27614 328.416 0.999994C328.416 0.723851 328.64 0.499994 328.916 0.499994L328.916 1.49999ZM330.928 0.499993C331.204 0.499993 331.428 0.723851 331.428 0.999993C331.428 1.27614 331.204 1.49999 330.928 1.49999L330.928 0.499993ZM336.963 1.49999C336.687 1.49999 336.463 1.27614 336.463 0.999993C336.463 0.723851 336.687 0.499993 336.963 0.499993L336.963 1.49999ZM338.975 0.499993C339.251 0.499993 339.475 0.72385 339.475 0.999993C339.475 1.27614 339.251 1.49999 338.975 1.49999L338.975 0.499993ZM345.01 1.49999C344.734 1.49999 344.51 1.27613 344.51 0.999992C344.51 0.72385 344.734 0.499992 345.01 0.499992L345.01 1.49999ZM347.021 0.499992C347.298 0.499992 347.521 0.72385 347.521 0.999992C347.521 1.27613 347.298 1.49999 347.021 1.49999L347.021 0.499992ZM353.057 1.49999C352.78 1.49999 352.557 1.27613 352.557 0.999992C352.557 0.723849 352.78 0.499992 353.057 0.499992L353.057 1.49999ZM355.068 0.499991C355.345 0.499991 355.568 0.723849 355.568 0.999991C355.568 1.27613 355.345 1.49999 355.068 1.49999L355.068 0.499991ZM361.104 1.49999C360.827 1.49999 360.604 1.27613 360.604 0.999991C360.604 0.723849 360.827 0.499991 361.104 0.499991L361.104 1.49999ZM363.115 0.499991C363.391 0.499991 363.615 0.723848 363.615 0.999991C363.615 1.27613 363.391 1.49999 363.115 1.49999L363.115 0.499991ZM369.15 1.49999C368.874 1.49999 368.65 1.27613 368.65 0.99999C368.65 0.723848 368.874 0.49999 369.15 0.49999L369.15 1.49999ZM371.162 0.49999C371.438 0.49999 371.662 0.723848 371.662 0.99999C371.662 1.27613 371.438 1.49999 371.162 1.49999L371.162 0.49999ZM377.197 1.49999C376.921 1.49999 376.697 1.27613 376.697 0.999989C376.697 0.723847 376.921 0.499989 377.197 0.499989L377.197 1.49999ZM379.209 0.499989C379.485 0.499989 379.709 0.723847 379.709 0.999989C379.709 1.27613 379.485 1.49999 379.209 1.49999L379.209 0.499989ZM385.244 1.49999C384.968 1.49999 384.744 1.27613 384.744 0.999989C384.744 0.723846 384.968 0.499989 385.244 0.499989L385.244 1.49999ZM387.256 0.499989C387.532 0.499989 387.756 0.723846 387.756 0.999989C387.756 1.27613 387.532 1.49999 387.256 1.49999L387.256 0.499989ZM393.291 1.49999C393.015 1.49999 392.791 1.27613 392.791 0.999988C392.791 0.723846 393.015 0.499988 393.291 0.499988L393.291 1.49999ZM395.303 0.499988C395.579 0.499988 395.803 0.723845 395.803 0.999988C395.803 1.27613 395.579 1.49999 395.303 1.49999L395.303 0.499988ZM401.338 1.49999C401.062 1.49999 400.838 1.27613 400.838 0.999987C400.838 0.723845 401.062 0.499987 401.338 0.499987L401.338 1.49999ZM403.35 0.499987C403.626 0.499987 403.85 0.723845 403.85 0.999987C403.85 1.27613 403.626 1.49999 403.35 1.49999L403.35 0.499987ZM409.385 1.49999C409.109 1.49999 408.885 1.27613 408.885 0.999987C408.885 0.723844 409.109 0.499987 409.385 0.499987L409.385 1.49999ZM411.396 0.499986C411.673 0.499986 411.896 0.723844 411.896 0.999986C411.896 1.27613 411.673 1.49999 411.396 1.49999L411.396 0.499986ZM417.432 1.49999C417.155 1.49999 416.932 1.27613 416.932 0.999986C416.932 0.723844 417.155 0.499986 417.432 0.499986L417.432 1.49999ZM419.443 0.499986C419.72 0.499986 419.943 0.723843 419.943 0.999986C419.943 1.27613 419.72 1.49999 419.443 1.49999L419.443 0.499986ZM425.479 1.49999C425.202 1.49999 424.979 1.27613 424.979 0.999985C424.979 0.723843 425.202 0.499985 425.479 0.499985L425.479 1.49999ZM427.49 0.499985C427.766 0.499985 427.99 0.723843 427.99 0.999985C427.99 1.27613 427.766 1.49999 427.49 1.49999L427.49 0.499985ZM433.525 1.49998C433.249 1.49998 433.025 1.27613 433.025 0.999985C433.025 0.723842 433.249 0.499985 433.525 0.499985L433.525 1.49998ZM435.537 0.499984C435.813 0.499984 436.037 0.723842 436.037 0.999984C436.037 1.27613 435.813 1.49998 435.537 1.49998L435.537 0.499984ZM441.572 1.49998C441.296 1.49998 441.072 1.27613 441.072 0.999984C441.072 0.723842 441.296 0.499984 441.572 0.499984L441.572 1.49998ZM443.584 0.499984C443.86 0.499984 444.084 0.723841 444.084 0.999984C444.084 1.27613 443.86 1.49998 443.584 1.49998L443.584 0.499984ZM449.619 1.49998C449.343 1.49998 449.119 1.27613 449.119 0.999983C449.119 0.723841 449.343 0.499983 449.619 0.499983L449.619 1.49998ZM451.631 0.499983C451.907 0.499983 452.131 0.723841 452.131 0.999983C452.131 1.27613 451.907 1.49998 451.631 1.49998L451.631 0.499983ZM457.666 1.49998C457.39 1.49998 457.166 1.27612 457.166 0.999983C457.166 0.72384 457.39 0.499982 457.666 0.499982L457.666 1.49998ZM459.678 0.499982C459.954 0.499982 460.178 0.72384 460.178 0.999982C460.178 1.27612 459.954 1.49998 459.678 1.49998L459.678 0.499982ZM465.713 1.49998C465.437 1.49998 465.213 1.27612 465.213 0.999982C465.213 0.723839 465.437 0.499982 465.713 0.499982L465.713 1.49998ZM467.725 0.499982C468.001 0.499982 468.225 0.723839 468.225 0.999982C468.225 1.27612 468.001 1.49998 467.725 1.49998L467.725 0.499982ZM473.76 1.49998C473.484 1.49998 473.26 1.27612 473.26 0.999981C473.26 0.723839 473.484 0.499981 473.76 0.499981L473.76 1.49998ZM475.771 0.499981C476.048 0.499981 476.271 0.723838 476.271 0.999981C476.271 1.27612 476.048 1.49998 475.771 1.49998L475.771 0.499981ZM481.807 1.49998C481.53 1.49998 481.307 1.27612 481.307 0.99998C481.307 0.723838 481.53 0.49998 481.807 0.49998L481.807 1.49998ZM483.818 0.49998C484.095 0.49998 484.318 0.723838 484.318 0.99998C484.318 1.27612 484.095 1.49998 483.818 1.49998L483.818 0.49998ZM489.854 1.49998C489.577 1.49998 489.354 1.27612 489.354 0.99998C489.354 0.723837 489.577 0.49998 489.854 0.49998L489.854 1.49998ZM491.865 0.499979C492.141 0.499979 492.365 0.723837 492.365 0.999979C492.365 1.27612 492.141 1.49998 491.865 1.49998L491.865 0.499979ZM497.9 1.49998C497.624 1.49998 497.4 1.27612 497.4 0.999979C497.4 0.723837 497.624 0.499979 497.9 0.499979L497.9 1.49998ZM499.912 0.499979C500.188 0.499979 500.412 0.723836 500.412 0.999979C500.412 1.27612 500.188 1.49998 499.912 1.49998L499.912 0.499979ZM505.947 1.49998C505.671 1.49998 505.447 1.27612 505.447 0.999978C505.447 0.723836 505.671 0.499978 505.947 0.499978L505.947 1.49998ZM507.959 0.499978C508.235 0.499978 508.459 0.723836 508.459 0.999978C508.459 1.27612 508.235 1.49998 507.959 1.49998L507.959 0.499978ZM513.994 1.49998C513.718 1.49998 513.494 1.27612 513.494 0.999978C513.494 0.723835 513.718 0.499978 513.994 0.499978L513.994 1.49998ZM-4.4035e-08 0.500022L1.00586 0.500022L1.00586 1.50002L4.40371e-08 1.50002L-4.4035e-08 0.500022ZM7.04102 0.500022L9.05273 0.500021L9.05273 1.50002L7.04102 1.50002L7.04102 0.500022ZM15.0879 0.500021L17.0996 0.500021L17.0996 1.50002L15.0879 1.50002L15.0879 0.500021ZM23.1348 0.50002L25.1465 0.50002L25.1465 1.50002L23.1348 1.50002L23.1348 0.50002ZM31.1816 0.500019L33.1934 0.500019L33.1934 1.50002L31.1816 1.50002L31.1816 0.500019ZM39.2285 0.500019L41.2402 0.500019L41.2402 1.50002L39.2285 1.50002L39.2285 0.500019ZM47.2754 0.500018L49.2871 0.500018L49.2871 1.50002L47.2754 1.50002L47.2754 0.500018ZM55.3223 0.500017L57.334 0.500017L57.334 1.50002L55.3223 1.50002L55.3223 0.500017ZM63.3691 0.500017L65.3809 0.500016L65.3809 1.50002L63.3691 1.50002L63.3691 0.500017ZM71.416 0.500016L73.4277 0.500016L73.4277 1.50002L71.416 1.50002L71.416 0.500016ZM79.4629 0.500015L81.4746 0.500015L81.4746 1.50002L79.4629 1.50002L79.4629 0.500015ZM87.5098 0.500015L89.5215 0.500014L89.5215 1.50001L87.5098 1.50001L87.5098 0.500015ZM95.5566 0.500014L97.5684 0.500014L97.5684 1.50001L95.5566 1.50001L95.5566 0.500014ZM103.604 0.500013L105.615 0.500013L105.615 1.50001L103.604 1.50001L103.604 0.500013ZM111.65 0.500012L113.662 0.500012L113.662 1.50001L111.65 1.50001L111.65 0.500012ZM119.697 0.500012L121.709 0.500012L121.709 1.50001L119.697 1.50001L119.697 0.500012ZM127.744 0.500011L129.756 0.500011L129.756 1.50001L127.744 1.50001L127.744 0.500011ZM135.791 0.50001L137.803 0.50001L137.803 1.50001L135.791 1.50001L135.791 0.50001ZM143.838 0.50001L145.85 0.50001L145.85 1.50001L143.838 1.50001L143.838 0.50001ZM151.885 0.500009L153.896 0.500009L153.896 1.50001L151.885 1.50001L151.885 0.500009ZM159.932 0.500008L161.943 0.500008L161.943 1.50001L159.932 1.50001L159.932 0.500008ZM167.979 0.500008L169.99 0.500007L169.99 1.50001L167.979 1.50001L167.979 0.500008ZM176.025 0.500007L178.037 0.500007L178.037 1.50001L176.025 1.50001L176.025 0.500007ZM184.072 0.500006L186.084 0.500006L186.084 1.50001L184.072 1.50001L184.072 0.500006ZM192.119 0.500006L194.131 0.500005L194.131 1.50001L192.119 1.50001L192.119 0.500006ZM200.166 0.500005L202.178 0.500005L202.178 1.5L200.166 1.5L200.166 0.500005ZM208.213 0.500004L210.225 0.500004L210.225 1.5L208.213 1.5L208.213 0.500004ZM216.26 0.500003L218.271 0.500003L218.271 1.5L216.26 1.5L216.26 0.500003ZM224.307 0.500003L226.318 0.500003L226.318 1.5L224.307 1.5L224.307 0.500003ZM232.354 0.500002L234.365 0.500002L234.365 1.5L232.354 1.5L232.354 0.500002ZM240.4 0.500001L242.412 0.500001L242.412 1.5L240.4 1.5L240.4 0.500001ZM248.447 0.500001L250.459 0.5L250.459 1.5L248.447 1.5L248.447 0.500001ZM256.494 0.5L258.506 0.5L258.506 1.5L256.494 1.5L256.494 0.5ZM264.541 0.499999L266.553 0.499999L266.553 1.5L264.541 1.5L264.541 0.499999ZM272.588 0.499999L274.6 0.499998L274.6 1.5L272.588 1.5L272.588 0.499999ZM280.635 0.499998L282.646 0.499998L282.646 1.5L280.635 1.5L280.635 0.499998ZM288.682 0.499997L290.693 0.499997L290.693 1.5L288.682 1.5L288.682 0.499997ZM296.729 0.499996L298.74 0.499996L298.74 1.5L296.729 1.5L296.729 0.499996ZM304.775 0.499996L306.787 0.499996L306.787 1.5L304.775 1.5L304.775 0.499996ZM312.822 0.499995L314.834 0.499995L314.834 1.49999L312.822 1.5L312.822 0.499995ZM320.869 0.499994L322.881 0.499994L322.881 1.49999L320.869 1.49999L320.869 0.499994ZM328.916 0.499994L330.928 0.499993L330.928 1.49999L328.916 1.49999L328.916 0.499994ZM336.963 0.499993L338.975 0.499993L338.975 1.49999L336.963 1.49999L336.963 0.499993ZM345.01 0.499992L347.021 0.499992L347.021 1.49999L345.01 1.49999L345.01 0.499992ZM353.057 0.499992L355.068 0.499991L355.068 1.49999L353.057 1.49999L353.057 0.499992ZM361.104 0.499991L363.115 0.499991L363.115 1.49999L361.104 1.49999L361.104 0.499991ZM369.15 0.49999L371.162 0.49999L371.162 1.49999L369.15 1.49999L369.15 0.49999ZM377.197 0.499989L379.209 0.499989L379.209 1.49999L377.197 1.49999L377.197 0.499989ZM385.244 0.499989L387.256 0.499989L387.256 1.49999L385.244 1.49999L385.244 0.499989ZM393.291 0.499988L395.303 0.499988L395.303 1.49999L393.291 1.49999L393.291 0.499988ZM401.338 0.499987L403.35 0.499987L403.35 1.49999L401.338 1.49999L401.338 0.499987ZM409.385 0.499987L411.396 0.499986L411.396 1.49999L409.385 1.49999L409.385 0.499987ZM417.432 0.499986L419.443 0.499986L419.443 1.49999L417.432 1.49999L417.432 0.499986ZM425.479 0.499985L427.49 0.499985L427.49 1.49999L425.479 1.49999L425.479 0.499985ZM433.525 0.499985L435.537 0.499984L435.537 1.49998L433.525 1.49998L433.525 0.499985ZM441.572 0.499984L443.584 0.499984L443.584 1.49998L441.572 1.49998L441.572 0.499984ZM449.619 0.499983L451.631 0.499983L451.631 1.49998L449.619 1.49998L449.619 0.499983ZM457.666 0.499982L459.678 0.499982L459.678 1.49998L457.666 1.49998L457.666 0.499982ZM465.713 0.499982L467.725 0.499982L467.725 1.49998L465.713 1.49998L465.713 0.499982ZM473.76 0.499981L475.771 0.499981L475.771 1.49998L473.76 1.49998L473.76 0.499981ZM481.807 0.49998L483.818 0.49998L483.818 1.49998L481.807 1.49998L481.807 0.49998ZM489.854 0.49998L491.865 0.499979L491.865 1.49998L489.854 1.49998L489.854 0.49998ZM497.9 0.499979L499.912 0.499979L499.912 1.49998L497.9 1.49998L497.9 0.499979ZM505.947 0.499978L507.959 0.499978L507.959 1.49998L505.947 1.49998L505.947 0.499978ZM513.994 0.499978L515 0.499977L515 1.49998L513.994 1.49998L513.994 0.499978Z" fill="#3A3A3A"/>
</svg>
