<svg width="1" height="223" viewBox="0 0 1 223" fill="none" xmlns="http://www.w3.org/2000/svg">
<g clip-path="url(#clip0_290_598)">
<rect width="1" height="223" transform="matrix(-1 0 0 1 1 0)" fill="black"/>
<path d="M0.99997 -2.99414C0.99997 -2.718 0.776112 -2.49414 0.49997 -2.49414C0.223827 -2.49414 -3.04624e-05 -2.718 -3.04743e-05 -2.99414L0.99997 -2.99414ZM-3.02143e-05 3.04102C-3.02262e-05 2.76487 0.223827 2.54102 0.49997 2.54102C0.776112 2.54102 0.99997 2.76487 0.99997 3.04102L-3.02143e-05 3.04102ZM0.99997 5.05273C0.99997 5.32888 0.776112 5.55273 0.49997 5.55273C0.223828 5.55273 -3.01158e-05 5.32888 -3.01277e-05 5.05273L0.99997 5.05273ZM-2.98677e-05 11.0879C-2.98796e-05 10.8117 0.223828 10.5879 0.49997 10.5879C0.776112 10.5879 0.99997 10.8117 0.99997 11.0879L-2.98677e-05 11.0879ZM0.99997 13.0996C0.99997 13.3758 0.776113 13.5996 0.49997 13.5996C0.223828 13.5996 -2.97692e-05 13.3758 -2.97811e-05 13.0996L0.99997 13.0996ZM-2.95211e-05 19.1348C-2.9533e-05 18.8586 0.223828 18.6348 0.49997 18.6348C0.776113 18.6348 0.99997 18.8586 0.99997 19.1348L-2.95211e-05 19.1348ZM0.999971 21.1465C0.999971 21.4226 0.776113 21.6465 0.499971 21.6465C0.223828 21.6465 -2.94226e-05 21.4226 -2.94345e-05 21.1465L0.999971 21.1465ZM-2.91745e-05 27.1816C-2.91864e-05 26.9055 0.223828 26.6816 0.499971 26.6816C0.776113 26.6816 0.999971 26.9055 0.999971 27.1816L-2.91745e-05 27.1816ZM0.999971 29.1934C0.999971 29.4695 0.776113 29.6934 0.499971 29.6934C0.223829 29.6934 -2.9076e-05 29.4695 -2.90879e-05 29.1934L0.999971 29.1934ZM-2.88279e-05 35.2285C-2.88398e-05 34.9524 0.223829 34.7285 0.499971 34.7285C0.776114 34.7285 0.999971 34.9524 0.999971 35.2285L-2.88279e-05 35.2285ZM0.999971 37.2402C0.999971 37.5164 0.776114 37.7402 0.499971 37.7402C0.223829 37.7402 -2.87294e-05 37.5164 -2.87413e-05 37.2402L0.999971 37.2402ZM-2.84814e-05 43.2754C-2.84932e-05 42.9992 0.223829 42.7754 0.499971 42.7754C0.776114 42.7754 0.999972 42.9992 0.999972 43.2754L-2.84814e-05 43.2754ZM0.999972 45.2871C0.999972 45.5633 0.776114 45.7871 0.499972 45.7871C0.223829 45.7871 -2.83828e-05 45.5633 -2.83947e-05 45.2871L0.999972 45.2871ZM-2.81348e-05 51.3223C-2.81467e-05 51.0461 0.223829 50.8223 0.499972 50.8223C0.776114 50.8223 0.999972 51.0461 0.999972 51.3223L-2.81348e-05 51.3223ZM0.999972 53.334C0.999972 53.6101 0.776114 53.834 0.499972 53.834C0.22383 53.834 -2.80362e-05 53.6101 -2.80481e-05 53.334L0.999972 53.334ZM-2.77882e-05 59.3691C-2.78001e-05 59.093 0.22383 58.8691 0.499972 58.8691C0.776115 58.8691 0.999972 59.093 0.999972 59.3691L-2.77882e-05 59.3691ZM0.999972 61.3809C0.999972 61.657 0.776115 61.8809 0.499972 61.8809C0.22383 61.8809 -2.76896e-05 61.657 -2.77015e-05 61.3809L0.999972 61.3809ZM-2.74416e-05 67.416C-2.74535e-05 67.1399 0.22383 66.916 0.499973 66.916C0.776115 66.916 0.999973 67.1399 0.999973 67.416L-2.74416e-05 67.416ZM0.999973 69.4277C0.999973 69.7039 0.776115 69.9277 0.499973 69.9277C0.22383 69.9277 -2.7343e-05 69.7039 -2.73549e-05 69.4277L0.999973 69.4277ZM-2.7095e-05 75.4629C-2.71069e-05 75.1867 0.22383 74.9629 0.499973 74.9629C0.776115 74.9629 0.999973 75.1867 0.999973 75.4629L-2.7095e-05 75.4629ZM0.999973 77.4746C0.999973 77.7508 0.776115 77.9746 0.499973 77.9746C0.223831 77.9746 -2.69964e-05 77.7508 -2.70083e-05 77.4746L0.999973 77.4746ZM-2.67484e-05 83.5098C-2.67603e-05 83.2336 0.223831 83.0098 0.499973 83.0098C0.776116 83.0098 0.999973 83.2336 0.999973 83.5098L-2.67484e-05 83.5098ZM0.999973 85.5215C0.999973 85.7976 0.776116 86.0215 0.499973 86.0215C0.223831 86.0215 -2.66499e-05 85.7976 -2.66617e-05 85.5215L0.999973 85.5215ZM-2.64018e-05 91.5566C-2.64137e-05 91.2805 0.223831 91.0566 0.499974 91.0566C0.776116 91.0566 0.999974 91.2805 0.999974 91.5566L-2.64018e-05 91.5566ZM0.999974 93.5684C0.999974 93.8445 0.776116 94.0684 0.499974 94.0684C0.223831 94.0684 -2.63033e-05 93.8445 -2.63152e-05 93.5684L0.999974 93.5684ZM-2.60552e-05 99.6035C-2.60671e-05 99.3274 0.223832 99.1035 0.499974 99.1035C0.776116 99.1035 0.999974 99.3274 0.999974 99.6035L-2.60552e-05 99.6035ZM0.999974 101.615C0.999974 101.891 0.776116 102.115 0.499974 102.115C0.223832 102.115 -2.59567e-05 101.891 -2.59686e-05 101.615L0.999974 101.615ZM-2.57086e-05 107.65C-2.57205e-05 107.374 0.223832 107.15 0.499974 107.15C0.776117 107.15 0.999974 107.374 0.999974 107.65L-2.57086e-05 107.65ZM0.999974 109.662C0.999974 109.938 0.776117 110.162 0.499974 110.162C0.223832 110.162 -2.56101e-05 109.938 -2.5622e-05 109.662L0.999974 109.662ZM-2.5362e-05 115.697C-2.53739e-05 115.421 0.223832 115.197 0.499975 115.197C0.776117 115.197 0.999975 115.421 0.999975 115.697L-2.5362e-05 115.697ZM0.999975 117.709C0.999975 117.985 0.776117 118.209 0.499975 118.209C0.223832 118.209 -2.52635e-05 117.985 -2.52754e-05 117.709L0.999975 117.709ZM-2.50154e-05 123.744C-2.50273e-05 123.468 0.223833 123.244 0.499975 123.244C0.776117 123.244 0.999975 123.468 0.999975 123.744L-2.50154e-05 123.744ZM0.999975 125.756C0.999975 126.032 0.776117 126.256 0.499975 126.256C0.223833 126.256 -2.49169e-05 126.032 -2.49288e-05 125.756L0.999975 125.756ZM-2.46688e-05 131.791C-2.46807e-05 131.515 0.223833 131.291 0.499975 131.291C0.776118 131.291 0.999975 131.515 0.999975 131.791L-2.46688e-05 131.791ZM0.999975 133.803C0.999975 134.079 0.776118 134.303 0.499975 134.303C0.223833 134.303 -2.45703e-05 134.079 -2.45822e-05 133.803L0.999975 133.803ZM-2.43222e-05 139.838C-2.43341e-05 139.562 0.223833 139.338 0.499976 139.338C0.776118 139.338 0.999976 139.562 0.999976 139.838L-2.43222e-05 139.838ZM0.999976 141.85C0.999976 142.126 0.776118 142.35 0.499976 142.35C0.223833 142.35 -2.42237e-05 142.126 -2.42356e-05 141.85L0.999976 141.85ZM-2.39757e-05 147.885C-2.39876e-05 147.609 0.223834 147.385 0.499976 147.385C0.776118 147.385 0.999976 147.609 0.999976 147.885L-2.39757e-05 147.885ZM0.999976 149.896C0.999976 150.173 0.776119 150.396 0.499976 150.396C0.223834 150.396 -2.38771e-05 150.173 -2.3889e-05 149.896L0.999976 149.896ZM-2.36291e-05 155.932C-2.3641e-05 155.656 0.223834 155.432 0.499976 155.432C0.776119 155.432 0.999976 155.656 0.999976 155.932L-2.36291e-05 155.932ZM0.999976 157.943C0.999976 158.219 0.776119 158.443 0.499976 158.443C0.223834 158.443 -2.35305e-05 158.219 -2.35424e-05 157.943L0.999976 157.943ZM-2.32825e-05 163.979C-2.32944e-05 163.702 0.223834 163.479 0.499977 163.479C0.776119 163.479 0.999977 163.702 0.999977 163.979L-2.32825e-05 163.979ZM0.999977 165.99C0.999977 166.266 0.776119 166.49 0.499977 166.49C0.223834 166.49 -2.31839e-05 166.266 -2.31958e-05 165.99L0.999977 165.99ZM-2.29359e-05 172.025C-2.29478e-05 171.749 0.223835 171.525 0.499977 171.525C0.776119 171.525 0.999977 171.749 0.999977 172.025L-2.29359e-05 172.025ZM0.999977 174.037C0.999977 174.313 0.77612 174.537 0.499977 174.537C0.223835 174.537 -2.28373e-05 174.313 -2.28492e-05 174.037L0.999977 174.037ZM-2.25893e-05 180.072C-2.26012e-05 179.796 0.223835 179.572 0.499977 179.572C0.77612 179.572 0.999977 179.796 0.999977 180.072L-2.25893e-05 180.072ZM0.999977 182.084C0.999978 182.36 0.77612 182.584 0.499978 182.584C0.223835 182.584 -2.24907e-05 182.36 -2.25026e-05 182.084L0.999977 182.084ZM-2.22427e-05 188.119C-2.22546e-05 187.843 0.223835 187.619 0.499978 187.619C0.77612 187.619 0.999978 187.843 0.999978 188.119L-2.22427e-05 188.119ZM0.999978 190.131C0.999978 190.407 0.77612 190.631 0.499978 190.631C0.223835 190.631 -2.21442e-05 190.407 -2.21561e-05 190.131L0.999978 190.131ZM-2.18961e-05 196.166C-2.1908e-05 195.89 0.223836 195.666 0.499978 195.666C0.77612 195.666 0.999978 195.89 0.999978 196.166L-2.18961e-05 196.166ZM0.999978 198.178C0.999978 198.454 0.776121 198.678 0.499978 198.678C0.223836 198.678 -2.17976e-05 198.454 -2.18095e-05 198.178L0.999978 198.178ZM-2.15495e-05 204.213C-2.15614e-05 203.937 0.223836 203.713 0.499978 203.713C0.776121 203.713 0.999978 203.937 0.999978 204.213L-2.15495e-05 204.213ZM0.999979 206.225C0.999979 206.501 0.776121 206.725 0.499979 206.725C0.223836 206.725 -2.1451e-05 206.501 -2.14629e-05 206.225L0.999979 206.225ZM-2.12029e-05 212.26C-2.12148e-05 211.984 0.223836 211.76 0.499979 211.76C0.776121 211.76 0.999979 211.984 0.999979 212.26L-2.12029e-05 212.26ZM0.999979 214.271C0.999979 214.548 0.776121 214.771 0.499979 214.771C0.223837 214.771 -2.11044e-05 214.548 -2.11163e-05 214.271L0.999979 214.271ZM-2.08563e-05 220.307C-2.08682e-05 220.031 0.223837 219.807 0.499979 219.807C0.776122 219.807 0.999979 220.031 0.999979 220.307L-2.08563e-05 220.307ZM0.999979 222.318C0.999979 222.594 0.776122 222.818 0.499979 222.818C0.223837 222.818 -2.07578e-05 222.594 -2.07697e-05 222.318L0.999979 222.318ZM-2.05097e-05 228.354C-2.05216e-05 228.077 0.223837 227.854 0.499979 227.854C0.776122 227.854 0.999979 228.077 0.999979 228.354L-2.05097e-05 228.354ZM0.99998 230.365C0.99998 230.641 0.776122 230.865 0.49998 230.865C0.223837 230.865 -2.04112e-05 230.641 -2.04231e-05 230.365L0.99998 230.365ZM-2.01631e-05 236.4C-2.0175e-05 236.124 0.223837 235.9 0.49998 235.9C0.776122 235.9 0.99998 236.124 0.99998 236.4L-2.01631e-05 236.4ZM0.99998 238.412C0.99998 238.688 0.776122 238.912 0.49998 238.912C0.223838 238.912 -2.00646e-05 238.688 -2.00765e-05 238.412L0.99998 238.412ZM-1.98166e-05 244.447C-1.98284e-05 244.171 0.223838 243.947 0.49998 243.947C0.776123 243.947 0.99998 244.171 0.99998 244.447L-1.98166e-05 244.447ZM0.99998 246.459C0.99998 246.735 0.776123 246.959 0.49998 246.959C0.223838 246.959 -1.9718e-05 246.735 -1.97299e-05 246.459L0.99998 246.459ZM-1.947e-05 252.494C-1.94819e-05 252.218 0.223838 251.994 0.499981 251.994C0.776123 251.994 0.999981 252.218 0.999981 252.494L-1.947e-05 252.494ZM0.999981 254.506C0.999981 254.782 0.776123 255.006 0.499981 255.006C0.223838 255.006 -1.93714e-05 254.782 -1.93833e-05 254.506L0.999981 254.506ZM-1.91234e-05 260.541C-1.91353e-05 260.265 0.223838 260.041 0.499981 260.041C0.776123 260.041 0.999981 260.265 0.999981 260.541L-1.91234e-05 260.541ZM0.999981 262.553C0.999981 262.829 0.776123 263.053 0.499981 263.053C0.223839 263.053 -1.90248e-05 262.829 -1.90367e-05 262.553L0.999981 262.553ZM-1.87768e-05 268.588C-1.87887e-05 268.312 0.223839 268.088 0.499981 268.088C0.776124 268.088 0.999981 268.312 0.999981 268.588L-1.87768e-05 268.588ZM0.999981 270.6C0.999981 270.876 0.776124 271.1 0.499981 271.1C0.223839 271.1 -1.86782e-05 270.876 -1.86901e-05 270.6L0.999981 270.6ZM-1.84302e-05 276.635C-1.84421e-05 276.359 0.223839 276.135 0.499982 276.135C0.776124 276.135 0.999982 276.359 0.999982 276.635L-1.84302e-05 276.635ZM0.999982 278.646C0.999982 278.923 0.776124 279.146 0.499982 279.146C0.223839 279.146 -1.83316e-05 278.923 -1.83435e-05 278.646L0.999982 278.646ZM-1.80836e-05 284.682C-1.80955e-05 284.405 0.22384 284.182 0.499982 284.182C0.776124 284.182 0.999982 284.405 0.999982 284.682L-1.80836e-05 284.682ZM0.999982 286.693C0.999982 286.97 0.776124 287.193 0.499982 287.193C0.22384 287.193 -1.79851e-05 286.97 -1.79969e-05 286.693L0.999982 286.693ZM-1.7737e-05 292.729C-1.77489e-05 292.452 0.22384 292.229 0.499982 292.229C0.776125 292.229 0.999982 292.452 0.999982 292.729L-1.7737e-05 292.729ZM0.999982 294.74C0.999982 295.016 0.776125 295.24 0.499982 295.24C0.22384 295.24 -1.76385e-05 295.016 -1.76504e-05 294.74L0.999982 294.74ZM-1.73904e-05 300.775C-1.74023e-05 300.499 0.22384 300.275 0.499983 300.275C0.776125 300.275 0.999983 300.499 0.999983 300.775L-1.73904e-05 300.775ZM0.999983 302.787C0.999983 303.063 0.776125 303.287 0.499983 303.287C0.22384 303.287 -1.72919e-05 303.063 -1.73038e-05 302.787L0.999983 302.787ZM-1.70438e-05 308.822C-1.70557e-05 308.546 0.223841 308.322 0.499983 308.322C0.776125 308.322 0.999983 308.546 0.999983 308.822L-1.70438e-05 308.822ZM0.999983 310.834C0.999983 311.11 0.776125 311.334 0.499983 311.334C0.223841 311.334 -1.69453e-05 311.11 -1.69572e-05 310.834L0.999983 310.834ZM-1.66972e-05 316.869C-1.67091e-05 316.593 0.223841 316.369 0.499983 316.369C0.776126 316.369 0.999983 316.593 0.999983 316.869L-1.66972e-05 316.869ZM0.999983 318.881C0.999983 319.157 0.776126 319.381 0.499983 319.381C0.223841 319.381 -1.65987e-05 319.157 -1.66106e-05 318.881L0.999983 318.881ZM-1.63506e-05 324.916C-1.63625e-05 324.64 0.223841 324.416 0.499984 324.416C0.776126 324.416 0.999984 324.64 0.999984 324.916L-1.63506e-05 324.916ZM0.999984 326.928C0.999984 327.204 0.776126 327.428 0.499984 327.428C0.223841 327.428 -1.62521e-05 327.204 -1.6264e-05 326.928L0.999984 326.928ZM-1.6004e-05 332.963C-1.60159e-05 332.687 0.223842 332.463 0.499984 332.463C0.776126 332.463 0.999984 332.687 0.999984 332.963L-1.6004e-05 332.963ZM0.999984 334.975C0.999984 335.251 0.776126 335.475 0.499984 335.475C0.223842 335.475 -1.59055e-05 335.251 -1.59174e-05 334.975L0.999984 334.975ZM-1.56575e-05 341.01C-1.56693e-05 340.734 0.223842 340.51 0.499984 340.51C0.776127 340.51 0.999984 340.734 0.999984 341.01L-1.56575e-05 341.01ZM0.999984 343.021C0.999984 343.298 0.776127 343.521 0.499984 343.521C0.223842 343.521 -1.55589e-05 343.298 -1.55708e-05 343.021L0.999984 343.021ZM-1.53109e-05 349.057C-1.53228e-05 348.78 0.223842 348.557 0.499985 348.557C0.776127 348.557 0.999985 348.78 0.999985 349.057L-1.53109e-05 349.057ZM0.999985 351.068C0.999985 351.345 0.776127 351.568 0.499985 351.568C0.223842 351.568 -1.52123e-05 351.345 -1.52242e-05 351.068L0.999985 351.068ZM-1.49643e-05 357.104C-1.49762e-05 356.827 0.223843 356.604 0.499985 356.604C0.776127 356.604 0.999985 356.827 0.999985 357.104L-1.49643e-05 357.104ZM0.999985 359.115C0.999985 359.391 0.776128 359.615 0.499985 359.615C0.223843 359.615 -1.48657e-05 359.391 -1.48776e-05 359.115L0.999985 359.115ZM-1.46177e-05 365.15C-1.46296e-05 364.874 0.223843 364.65 0.499985 364.65C0.776128 364.65 0.999985 364.874 0.999985 365.15L-1.46177e-05 365.15ZM0.999985 367.162C0.999985 367.438 0.776128 367.662 0.499985 367.662C0.223843 367.662 -1.45191e-05 367.438 -1.4531e-05 367.162L0.999985 367.162ZM-1.42711e-05 373.197C-1.4283e-05 372.921 0.223843 372.697 0.499986 372.697C0.776128 372.697 0.999986 372.921 0.999986 373.197L-1.42711e-05 373.197ZM0.999986 375.209C0.999986 375.485 0.776128 375.709 0.499986 375.709C0.223843 375.709 -1.41725e-05 375.485 -1.41844e-05 375.209L0.999986 375.209ZM-1.39245e-05 381.244C-1.39364e-05 380.968 0.223844 380.744 0.499986 380.744C0.776128 380.744 0.999986 380.968 0.999986 381.244L-1.39245e-05 381.244ZM0.999986 383.256C0.999986 383.532 0.776129 383.756 0.499986 383.756C0.223844 383.756 -1.3826e-05 383.532 -1.38378e-05 383.256L0.999986 383.256ZM-1.35779e-05 389.291C-1.35898e-05 389.015 0.223844 388.791 0.499986 388.791C0.776129 388.791 0.999986 389.015 0.999986 389.291L-1.35779e-05 389.291ZM0.999987 391.303C0.999987 391.579 0.776129 391.803 0.499987 391.803C0.223844 391.803 -1.34794e-05 391.579 -1.34913e-05 391.303L0.999987 391.303ZM-1.32313e-05 397.338C-1.32432e-05 397.062 0.223844 396.838 0.499987 396.838C0.776129 396.838 0.999987 397.062 0.999987 397.338L-1.32313e-05 397.338ZM0.999987 399.35C0.999987 399.626 0.776129 399.85 0.499987 399.85C0.223844 399.85 -1.31328e-05 399.626 -1.31447e-05 399.35L0.999987 399.35ZM-1.28847e-05 405.385C-1.28966e-05 405.109 0.223845 404.885 0.499987 404.885C0.776129 404.885 0.999987 405.109 0.999987 405.385L-1.28847e-05 405.385ZM0.999987 407.396C0.999987 407.673 0.77613 407.896 0.499987 407.896C0.223845 407.896 -1.27862e-05 407.673 -1.27981e-05 407.396L0.999987 407.396ZM-1.25381e-05 413.432C-1.255e-05 413.155 0.223845 412.932 0.499987 412.932C0.77613 412.932 0.999987 413.155 0.999987 413.432L-1.25381e-05 413.432ZM0.999988 415.443C0.999988 415.72 0.77613 415.943 0.499988 415.943C0.223845 415.943 -1.24396e-05 415.72 -1.24515e-05 415.443L0.999988 415.443ZM-1.21915e-05 421.479C-1.22034e-05 421.202 0.223845 420.979 0.499988 420.979C0.77613 420.979 0.999988 421.202 0.999988 421.479L-1.21915e-05 421.479ZM0.999988 423.49C0.999988 423.766 0.77613 423.99 0.499988 423.99C0.223846 423.99 -1.2093e-05 423.766 -1.21049e-05 423.49L0.999988 423.49ZM-1.18449e-05 429.525C-1.18568e-05 429.249 0.223846 429.025 0.499988 429.025C0.776131 429.025 0.999988 429.249 0.999988 429.525L-1.18449e-05 429.525ZM0.999988 431.537C0.999988 431.813 0.776131 432.037 0.499988 432.037C0.223846 432.037 -1.17464e-05 431.813 -1.17583e-05 431.537L0.999988 431.537ZM-1.14984e-05 437.572C-1.15102e-05 437.296 0.223846 437.072 0.499988 437.072C0.776131 437.072 0.999988 437.296 0.999989 437.572L-1.14984e-05 437.572ZM0.999989 439.584C0.999989 439.86 0.776131 440.084 0.499989 440.084C0.223846 440.084 -1.13998e-05 439.86 -1.14117e-05 439.584L0.999989 439.584ZM-1.11518e-05 445.619C-1.11637e-05 445.343 0.223846 445.119 0.499989 445.119C0.776131 445.119 0.999989 445.343 0.999989 445.619L-1.11518e-05 445.619ZM0.999989 447.631C0.999989 447.907 0.776131 448.131 0.499989 448.131C0.223847 448.131 -1.10532e-05 447.907 -1.10651e-05 447.631L0.999989 447.631ZM-1.08052e-05 453.666C-1.08171e-05 453.39 0.223847 453.166 0.499989 453.166C0.776132 453.166 0.999989 453.39 0.999989 453.666L-1.08052e-05 453.666ZM0.999989 455.678C0.999989 455.954 0.776132 456.178 0.499989 456.178C0.223847 456.178 -1.07066e-05 455.954 -1.07185e-05 455.678L0.999989 455.678ZM-1.04586e-05 461.713C-1.04705e-05 461.437 0.223847 461.213 0.49999 461.213C0.776132 461.213 0.99999 461.437 0.99999 461.713L-1.04586e-05 461.713ZM0.99999 463.725C0.99999 464.001 0.776132 464.225 0.49999 464.225C0.223847 464.225 -1.036e-05 464.001 -1.03719e-05 463.725L0.99999 463.725ZM-1.0112e-05 469.76C-1.01239e-05 469.484 0.223847 469.26 0.49999 469.26C0.776132 469.26 0.99999 469.484 0.99999 469.76L-1.0112e-05 469.76ZM0.99999 471.771C0.99999 472.048 0.776132 472.271 0.49999 472.271C0.223848 472.271 -1.00134e-05 472.048 -1.00253e-05 471.771L0.99999 471.771ZM-9.76539e-06 477.807C-9.77729e-06 477.53 0.223848 477.307 0.49999 477.307C0.776133 477.307 0.99999 477.53 0.99999 477.807L-9.76539e-06 477.807ZM0.99999 479.818C0.99999 480.095 0.776133 480.318 0.49999 480.318C0.223848 480.318 -9.66685e-06 480.095 -9.67874e-06 479.818L0.99999 479.818ZM-9.4188e-06 485.854C-9.4307e-06 485.577 0.223848 485.354 0.499991 485.354C0.776133 485.354 0.999991 485.577 0.999991 485.854L-9.4188e-06 485.854ZM0.999991 487.865C0.999991 488.141 0.776133 488.365 0.499991 488.365C0.223848 488.365 -9.32026e-06 488.141 -9.33215e-06 487.865L0.999991 487.865ZM-9.07221e-06 493.9C-9.0841e-06 493.624 0.223849 493.4 0.499991 493.4C0.776133 493.4 0.999991 493.624 0.999991 493.9L-9.07221e-06 493.9ZM0.999991 495.912C0.999991 496.188 0.776133 496.412 0.499991 496.412C0.223849 496.412 -8.97367e-06 496.188 -8.98556e-06 495.912L0.999991 495.912ZM-8.72562e-06 501.947C-8.73751e-06 501.671 0.223849 501.447 0.499991 501.447C0.776134 501.447 0.999991 501.671 0.999991 501.947L-8.72562e-06 501.947ZM0.999991 503.959C0.999991 504.235 0.776134 504.459 0.499991 504.459C0.223849 504.459 -8.62708e-06 504.235 -8.63897e-06 503.959L0.999991 503.959ZM-8.37903e-06 509.994C-8.39092e-06 509.718 0.223849 509.494 0.499992 509.494C0.776134 509.494 0.999992 509.718 0.999992 509.994L-8.37903e-06 509.994ZM0.999969 -4L0.99997 -2.99414L-3.04743e-05 -2.99414L-3.05176e-05 -4L0.999969 -4ZM0.99997 3.04102L0.99997 5.05273L-3.01277e-05 5.05273L-3.02143e-05 3.04102L0.99997 3.04102ZM0.99997 11.0879L0.99997 13.0996L-2.97811e-05 13.0996L-2.98677e-05 11.0879L0.99997 11.0879ZM0.99997 19.1348L0.999971 21.1465L-2.94345e-05 21.1465L-2.95211e-05 19.1348L0.99997 19.1348ZM0.999971 27.1816L0.999971 29.1934L-2.90879e-05 29.1934L-2.91745e-05 27.1816L0.999971 27.1816ZM0.999971 35.2285L0.999971 37.2402L-2.87413e-05 37.2402L-2.88279e-05 35.2285L0.999971 35.2285ZM0.999972 43.2754L0.999972 45.2871L-2.83947e-05 45.2871L-2.84814e-05 43.2754L0.999972 43.2754ZM0.999972 51.3223L0.999972 53.334L-2.80481e-05 53.334L-2.81348e-05 51.3223L0.999972 51.3223ZM0.999972 59.3691L0.999972 61.3809L-2.77015e-05 61.3809L-2.77882e-05 59.3691L0.999972 59.3691ZM0.999973 67.416L0.999973 69.4277L-2.73549e-05 69.4277L-2.74416e-05 67.416L0.999973 67.416ZM0.999973 75.4629L0.999973 77.4746L-2.70083e-05 77.4746L-2.7095e-05 75.4629L0.999973 75.4629ZM0.999973 83.5098L0.999973 85.5215L-2.66617e-05 85.5215L-2.67484e-05 83.5098L0.999973 83.5098ZM0.999974 91.5566L0.999974 93.5684L-2.63152e-05 93.5684L-2.64018e-05 91.5566L0.999974 91.5566ZM0.999974 99.6035L0.999974 101.615L-2.59686e-05 101.615L-2.60552e-05 99.6035L0.999974 99.6035ZM0.999974 107.65L0.999974 109.662L-2.5622e-05 109.662L-2.57086e-05 107.65L0.999974 107.65ZM0.999975 115.697L0.999975 117.709L-2.52754e-05 117.709L-2.5362e-05 115.697L0.999975 115.697ZM0.999975 123.744L0.999975 125.756L-2.49288e-05 125.756L-2.50154e-05 123.744L0.999975 123.744ZM0.999975 131.791L0.999975 133.803L-2.45822e-05 133.803L-2.46688e-05 131.791L0.999975 131.791ZM0.999976 139.838L0.999976 141.85L-2.42356e-05 141.85L-2.43222e-05 139.838L0.999976 139.838ZM0.999976 147.885L0.999976 149.896L-2.3889e-05 149.896L-2.39757e-05 147.885L0.999976 147.885ZM0.999976 155.932L0.999976 157.943L-2.35424e-05 157.943L-2.36291e-05 155.932L0.999976 155.932ZM0.999977 163.979L0.999977 165.99L-2.31958e-05 165.99L-2.32825e-05 163.979L0.999977 163.979ZM0.999977 172.025L0.999977 174.037L-2.28492e-05 174.037L-2.29359e-05 172.025L0.999977 172.025ZM0.999977 180.072L0.999977 182.084L-2.25026e-05 182.084L-2.25893e-05 180.072L0.999977 180.072ZM0.999978 188.119L0.999978 190.131L-2.21561e-05 190.131L-2.22427e-05 188.119L0.999978 188.119ZM0.999978 196.166L0.999978 198.178L-2.18095e-05 198.178L-2.18961e-05 196.166L0.999978 196.166ZM0.999978 204.213L0.999979 206.225L-2.14629e-05 206.225L-2.15495e-05 204.213L0.999978 204.213ZM0.999979 212.26L0.999979 214.271L-2.11163e-05 214.271L-2.12029e-05 212.26L0.999979 212.26ZM0.999979 220.307L0.999979 222.318L-2.07697e-05 222.318L-2.08563e-05 220.307L0.999979 220.307ZM0.999979 228.354L0.99998 230.365L-2.04231e-05 230.365L-2.05097e-05 228.354L0.999979 228.354ZM0.99998 236.4L0.99998 238.412L-2.00765e-05 238.412L-2.01631e-05 236.4L0.99998 236.4ZM0.99998 244.447L0.99998 246.459L-1.97299e-05 246.459L-1.98166e-05 244.447L0.99998 244.447ZM0.999981 252.494L0.999981 254.506L-1.93833e-05 254.506L-1.947e-05 252.494L0.999981 252.494ZM0.999981 260.541L0.999981 262.553L-1.90367e-05 262.553L-1.91234e-05 260.541L0.999981 260.541ZM0.999981 268.588L0.999981 270.6L-1.86901e-05 270.6L-1.87768e-05 268.588L0.999981 268.588ZM0.999982 276.635L0.999982 278.646L-1.83435e-05 278.646L-1.84302e-05 276.635L0.999982 276.635ZM0.999982 284.682L0.999982 286.693L-1.79969e-05 286.693L-1.80836e-05 284.682L0.999982 284.682ZM0.999982 292.729L0.999982 294.74L-1.76504e-05 294.74L-1.7737e-05 292.729L0.999982 292.729ZM0.999983 300.775L0.999983 302.787L-1.73038e-05 302.787L-1.73904e-05 300.775L0.999983 300.775ZM0.999983 308.822L0.999983 310.834L-1.69572e-05 310.834L-1.70438e-05 308.822L0.999983 308.822ZM0.999983 316.869L0.999983 318.881L-1.66106e-05 318.881L-1.66972e-05 316.869L0.999983 316.869ZM0.999984 324.916L0.999984 326.928L-1.6264e-05 326.928L-1.63506e-05 324.916L0.999984 324.916ZM0.999984 332.963L0.999984 334.975L-1.59174e-05 334.975L-1.6004e-05 332.963L0.999984 332.963ZM0.999984 341.01L0.999984 343.021L-1.55708e-05 343.021L-1.56575e-05 341.01L0.999984 341.01ZM0.999985 349.057L0.999985 351.068L-1.52242e-05 351.068L-1.53109e-05 349.057L0.999985 349.057ZM0.999985 357.104L0.999985 359.115L-1.48776e-05 359.115L-1.49643e-05 357.104L0.999985 357.104ZM0.999985 365.15L0.999985 367.162L-1.4531e-05 367.162L-1.46177e-05 365.15L0.999985 365.15ZM0.999986 373.197L0.999986 375.209L-1.41844e-05 375.209L-1.42711e-05 373.197L0.999986 373.197ZM0.999986 381.244L0.999986 383.256L-1.38378e-05 383.256L-1.39245e-05 381.244L0.999986 381.244ZM0.999986 389.291L0.999987 391.303L-1.34913e-05 391.303L-1.35779e-05 389.291L0.999986 389.291ZM0.999987 397.338L0.999987 399.35L-1.31447e-05 399.35L-1.32313e-05 397.338L0.999987 397.338ZM0.999987 405.385L0.999987 407.396L-1.27981e-05 407.396L-1.28847e-05 405.385L0.999987 405.385ZM0.999987 413.432L0.999988 415.443L-1.24515e-05 415.443L-1.25381e-05 413.432L0.999987 413.432ZM0.999988 421.479L0.999988 423.49L-1.21049e-05 423.49L-1.21915e-05 421.479L0.999988 421.479ZM0.999988 429.525L0.999988 431.537L-1.17583e-05 431.537L-1.18449e-05 429.525L0.999988 429.525ZM0.999989 437.572L0.999989 439.584L-1.14117e-05 439.584L-1.14984e-05 437.572L0.999989 437.572ZM0.999989 445.619L0.999989 447.631L-1.10651e-05 447.631L-1.11518e-05 445.619L0.999989 445.619ZM0.999989 453.666L0.999989 455.678L-1.07185e-05 455.678L-1.08052e-05 453.666L0.999989 453.666ZM0.99999 461.713L0.99999 463.725L-1.03719e-05 463.725L-1.04586e-05 461.713L0.99999 461.713ZM0.99999 469.76L0.99999 471.771L-1.00253e-05 471.771L-1.0112e-05 469.76L0.99999 469.76ZM0.99999 477.807L0.99999 479.818L-9.67874e-06 479.818L-9.76539e-06 477.807L0.99999 477.807ZM0.999991 485.854L0.999991 487.865L-9.33215e-06 487.865L-9.4188e-06 485.854L0.999991 485.854ZM0.999991 493.9L0.999991 495.912L-8.98556e-06 495.912L-9.07221e-06 493.9L0.999991 493.9ZM0.999991 501.947L0.999991 503.959L-8.63897e-06 503.959L-8.72562e-06 501.947L0.999991 501.947ZM0.999992 509.994L0.999992 511L-8.3357e-06 511L-8.37903e-06 509.994L0.999992 509.994Z" fill="#3A3A3A"/>
</g>
<defs>
<clipPath id="clip0_290_598">
<rect width="1" height="223" fill="white" transform="matrix(-1 0 0 1 1 0)"/>
</clipPath>
</defs>
</svg>
