<svg width="20" height="20" viewBox="0 0 20 20" fill="none" xmlns="http://www.w3.org/2000/svg">
<path d="M16.2612 4.1824C16.2562 4.1725 16.2479 4.16475 16.2378 4.16052C15.0708 3.61392 13.8392 3.22414 12.5739 3.00096C12.5624 2.99877 12.5506 3.00035 12.54 3.00545C12.5294 3.01056 12.5207 3.01894 12.5151 3.02939C12.3474 3.34011 12.1951 3.65927 12.059 3.98565C10.6951 3.7743 9.30774 3.7743 7.94386 3.98565C7.80677 3.65844 7.65209 3.3392 7.48054 3.02939C7.47466 3.01916 7.46589 3.01098 7.45538 3.00591C7.44488 3.00083 7.43312 2.99911 7.42164 3.00096C6.15624 3.22367 4.9246 3.61348 3.75771 4.16055C3.74772 4.16488 3.73929 4.17226 3.73359 4.18168C1.40004 7.73913 0.760791 11.2091 1.07438 14.6361C1.07527 14.6445 1.07779 14.6526 1.08182 14.66C1.08584 14.6674 1.09128 14.6739 1.0978 14.6791C2.45661 15.7061 3.97645 16.4901 5.59246 16.9975C5.60384 17.001 5.61599 17.0008 5.62728 16.997C5.63858 16.9933 5.64846 16.9861 5.65561 16.9764C6.0027 16.4943 6.31024 15.9838 6.57512 15.4501C6.57876 15.4427 6.58084 15.4347 6.58121 15.4265C6.58159 15.4183 6.58027 15.4101 6.57732 15.4025C6.57437 15.3948 6.56987 15.3879 6.56412 15.3822C6.55836 15.3764 6.55148 15.372 6.54392 15.3692C6.05895 15.1798 5.58944 14.9514 5.1398 14.6863C5.13163 14.6814 5.12477 14.6745 5.11982 14.6662C5.11488 14.658 5.112 14.6486 5.11144 14.639C5.11088 14.6293 5.11265 14.6197 5.11661 14.6109C5.12057 14.6021 5.12659 14.5944 5.13413 14.5886C5.22875 14.5164 5.32172 14.4421 5.41298 14.3656C5.42098 14.3588 5.43067 14.3545 5.44095 14.3531C5.45122 14.3517 5.46168 14.3532 5.47114 14.3576C8.41694 15.73 11.6062 15.73 14.5171 14.3576C14.5266 14.3529 14.5372 14.3512 14.5476 14.3525C14.558 14.3538 14.5679 14.3581 14.576 14.3648C14.6674 14.4418 14.7606 14.5164 14.8555 14.5886C14.8631 14.5944 14.8692 14.602 14.8732 14.6107C14.8772 14.6195 14.8791 14.6291 14.8786 14.6388C14.8781 14.6484 14.8753 14.6578 14.8704 14.6661C14.8655 14.6744 14.8587 14.6813 14.8506 14.6863C14.402 14.9536 13.932 15.1818 13.4458 15.3685C13.4382 15.3714 13.4314 15.3759 13.4257 15.3817C13.4199 15.3876 13.4155 15.3946 13.4126 15.4023C13.4097 15.41 13.4084 15.4182 13.4089 15.4264C13.4093 15.4347 13.4115 15.4427 13.4152 15.4501C13.6845 15.9808 13.9916 16.4907 14.334 16.9755C14.3409 16.9855 14.3508 16.9929 14.3621 16.9969C14.3734 17.0008 14.3857 17.001 14.3971 16.9974C16.016 16.4917 17.5385 15.7077 18.899 14.6791C18.9057 14.6741 18.9112 14.6678 18.9152 14.6605C18.9193 14.6533 18.9217 14.6452 18.9225 14.6368C19.2979 10.6749 18.2939 7.23331 16.2612 4.1824ZM7.01505 12.5494C6.12815 12.5494 5.39737 11.7186 5.39737 10.6982C5.39737 9.67782 6.11397 8.84691 7.01505 8.84691C7.92316 8.84691 8.64687 9.68504 8.6327 10.6981C8.6327 11.7186 7.91606 12.5494 7.01505 12.5494ZM12.9961 12.5494C12.1092 12.5494 11.3784 11.7186 11.3784 10.6982C11.3784 9.67782 12.095 8.84691 12.9961 8.84691C13.9043 8.84691 14.6279 9.68504 14.6138 10.6981C14.6138 11.7186 13.9043 12.5494 12.9961 12.5494Z" fill="white"/>
</svg>
