<svg width="521" height="519" viewBox="0 0 521 519" fill="none" xmlns="http://www.w3.org/2000/svg">
<path fill-rule="evenodd" clip-rule="evenodd" d="M260.5 0C308.693 0 353.829 13.0866 392.548 35.9001L391.818 36.6307C353.297 13.9861 308.415 1 260.5 1C212.96 1 168.406 13.7837 130.087 36.1011L129.356 35.3697C167.874 12.8839 212.682 0 260.5 0ZM451.335 83.1791L450.628 83.8866C493.674 130.206 520 192.279 520 260.5C520 391.083 423.548 499.138 298 517.31V518.321C424.102 500.141 521 391.636 521 260.5C521 192.003 494.563 129.68 451.335 83.1791ZM223 518.321V517.31C97.4518 499.138 1 391.083 1 260.5C1 191.914 27.6081 129.542 71.0648 83.1444L70.3573 82.4369C26.7198 129.016 0 191.637 0 260.5C0 391.636 96.8975 500.141 223 518.321Z" fill="#DBDBDB"/>
</svg>
