<svg width="450" height="450" viewBox="0 0 450 450" fill="none" xmlns="http://www.w3.org/2000/svg">
<path fill-rule="evenodd" clip-rule="evenodd" d="M224 0.00273676C201.763 0.0995023 180.287 3.42238 160.016 9.5275L165.892 25.7421C184.323 20.2832 203.822 17.3117 224 17.2166V0.00273676ZM32.41 108.603C60.7341 61.8385 105.61 26.2171 158.914 9.86245L164.789 26.0723C115.316 41.0271 73.6354 73.9326 47.3231 117.213L32.41 108.603ZM7.4545 167.352C2.59131 185.753 0.000488281 205.076 0.000488281 225.005C0.000488281 225.221 0.000792476 225.437 0.00140046 225.653H17.2151C17.2145 225.437 17.2141 225.221 17.2141 225.005C17.2141 206.617 19.6025 188.788 24.0858 171.809L7.4545 167.352ZM7.75059 166.244L24.3818 170.7C28.9141 153.915 35.4966 137.972 43.8442 123.156L28.9334 114.547C19.8414 130.651 12.6762 147.988 7.75059 166.244ZM29.9848 337.305C11.1921 304.74 0.321846 267.027 0.00750028 226.8H17.2217C17.5356 263.891 27.5672 298.664 44.8947 328.697L29.9848 337.305ZM45.471 329.689L30.561 338.298C50.3266 372.149 78.6789 400.373 112.631 419.983L121.239 405.073C89.8992 386.974 63.7251 360.928 45.471 329.689ZM222 449.99C182.606 449.475 145.653 438.836 113.626 420.555L122.234 405.644C151.729 422.461 185.742 432.261 222 432.774V449.99ZM228 432.774V449.99C247.327 449.737 266.066 447.048 283.923 442.215L279.467 425.584C263.031 430.036 245.786 432.523 228 432.774ZM280.574 425.281L285.03 441.912C323.269 431.353 357.424 410.952 384.599 383.606L372.427 371.434C347.357 396.675 315.85 415.513 280.574 425.281ZM450 225.005C450 286.471 425.354 342.181 385.406 382.79L373.233 370.618C410.067 333.124 432.787 281.718 432.787 225.005C432.787 206.674 430.413 188.897 425.956 171.965L442.588 167.508C447.424 185.862 450 205.132 450 225.005ZM425.661 170.856L442.292 166.399C437.331 147.959 430.085 130.455 420.877 114.21L405.967 122.819C414.43 137.776 421.093 153.886 425.661 170.856ZM225.15 0.000610352C286.471 0.0406158 342.052 24.611 382.613 64.43L370.441 76.6025C332.995 39.8983 281.717 17.2542 225.15 17.2143V0.000610352ZM371.258 77.4081L383.43 65.236C396.414 78.1126 407.837 92.5611 417.39 108.272L402.477 116.883C393.682 102.477 383.182 89.225 371.258 77.4081Z" fill="url(#paint0_radial_786_525)"/>
<path fill-rule="evenodd" clip-rule="evenodd" d="M224 0.00273676C201.763 0.0995023 180.287 3.42238 160.016 9.5275L165.892 25.7421C184.323 20.2832 203.822 17.3117 224 17.2166V0.00273676ZM32.41 108.603C60.7341 61.8385 105.61 26.2171 158.914 9.86245L164.789 26.0723C115.316 41.0271 73.6354 73.9326 47.3231 117.213L32.41 108.603ZM7.4545 167.352C2.59131 185.753 0.000488281 205.076 0.000488281 225.005C0.000488281 225.221 0.000792476 225.437 0.00140046 225.653H17.2151C17.2145 225.437 17.2141 225.221 17.2141 225.005C17.2141 206.617 19.6025 188.788 24.0858 171.809L7.4545 167.352ZM7.75059 166.244L24.3818 170.7C28.9141 153.915 35.4966 137.972 43.8442 123.156L28.9334 114.547C19.8414 130.651 12.6762 147.988 7.75059 166.244ZM29.9848 337.305C11.1921 304.74 0.321846 267.027 0.00750028 226.8H17.2217C17.5356 263.891 27.5672 298.664 44.8947 328.697L29.9848 337.305ZM45.471 329.689L30.561 338.298C50.3266 372.149 78.6789 400.373 112.631 419.983L121.239 405.073C89.8992 386.974 63.7251 360.928 45.471 329.689ZM222 449.99C182.606 449.475 145.653 438.836 113.626 420.555L122.234 405.644C151.729 422.461 185.742 432.261 222 432.774V449.99ZM228 432.774V449.99C247.327 449.737 266.066 447.048 283.923 442.215L279.467 425.584C263.031 430.036 245.786 432.523 228 432.774ZM280.574 425.281L285.03 441.912C323.269 431.353 357.424 410.952 384.599 383.606L372.427 371.434C347.357 396.675 315.85 415.513 280.574 425.281ZM450 225.005C450 286.471 425.354 342.181 385.406 382.79L373.233 370.618C410.067 333.124 432.787 281.718 432.787 225.005C432.787 206.674 430.413 188.897 425.956 171.965L442.588 167.508C447.424 185.862 450 205.132 450 225.005ZM425.661 170.856L442.292 166.399C437.331 147.959 430.085 130.455 420.877 114.21L405.967 122.819C414.43 137.776 421.093 153.886 425.661 170.856ZM225.15 0.000610352C286.471 0.0406158 342.052 24.611 382.613 64.43L370.441 76.6025C332.995 39.8983 281.717 17.2542 225.15 17.2143V0.000610352ZM371.258 77.4081L383.43 65.236C396.414 78.1126 407.837 92.5611 417.39 108.272L402.477 116.883C393.682 102.477 383.182 89.225 371.258 77.4081Z" fill="url(#paint1_radial_786_525)"/>
<defs>
<radialGradient id="paint0_radial_786_525" cx="0" cy="0" r="1" gradientUnits="userSpaceOnUse" gradientTransform="translate(225 455.155) rotate(-54.795) scale(557.041 605.16)">
<stop stop-color="#0342E7"/>
<stop offset="0.536494" stop-color="#CB24FF"/>
</radialGradient>
<radialGradient id="paint1_radial_786_525" cx="0" cy="0" r="1" gradientUnits="userSpaceOnUse" gradientTransform="translate(-26.0791 180.8) rotate(44.6977) scale(382.716 432.972)">
<stop stop-color="#16A9FE"/>
<stop offset="1" stop-color="#16A9FE" stop-opacity="0"/>
</radialGradient>
</defs>
</svg>
