<svg width="557" height="557" viewBox="0 0 557 557" fill="none" xmlns="http://www.w3.org/2000/svg">
<path fill-rule="evenodd" clip-rule="evenodd" d="M137 59.7438C110.365 77.008 87.0818 99.0046 68.3415 124.543L69.212 125.047C87.7419 99.8174 110.724 78.0613 137 60.9366V59.7438ZM417 59.0112C444.675 76.511 468.811 99.1004 488.094 125.464L488.964 124.96C469.473 98.2887 445.035 75.4615 417 57.8289V59.0112ZM308 537.348V536.342C330.682 533.775 352.477 528.285 373 520.256V521.33C352.47 529.325 330.676 534.792 308 537.348ZM537.768 253H536.763C534.127 225.971 527.344 200.158 517.059 176.204L517.93 175.699C528.294 199.805 535.124 225.79 537.768 253ZM250 536.453V537.459C221.729 534.383 194.816 526.783 170 515.399V514.298C194.804 525.73 221.719 533.363 250 536.453ZM20.6583 249C23.5726 223.245 30.2569 198.633 40.146 175.728L39.2744 175.224C29.3068 198.281 22.5752 223.064 19.6519 249H20.6583Z" fill="#3A3A3A"/>
<g clip-path="url(#clip0_171_184)">
<path fill-rule="evenodd" clip-rule="evenodd" d="M49.2025 162.216C54.9844 163.611 61.2291 161.122 64.3541 155.71C68.1568 149.123 65.9001 140.701 59.3136 136.898C58.2844 136.304 57.2103 135.858 56.1161 135.553C55.8973 135.492 55.6776 135.437 55.4574 135.387C49.7309 134.094 43.5916 136.587 40.5019 141.939C36.6992 148.525 38.9559 156.947 45.5424 160.75C46.7163 161.428 47.9485 161.913 49.2025 162.216ZM59.8871 135.904C67.0225 140.024 69.4673 149.148 65.3477 156.283C61.2281 163.419 52.104 165.864 44.9686 161.744C37.8332 157.624 35.3884 148.5 39.5081 141.365C43.6277 134.23 52.7517 131.785 59.8871 135.904Z" fill="#3A3A3A"/>
<path d="M48.4115 155.781L55.8708 142.861M55.8708 142.861L48.0327 144.961M55.8708 142.861L57.971 150.699" stroke="#E2E2E2" stroke-width="1.72137"/>
</g>
<g clip-path="url(#clip1_171_184)">
<path fill-rule="evenodd" clip-rule="evenodd" d="M492.852 157.973C492.245 157.289 491.698 156.533 491.222 155.71C491.222 155.71 491.222 155.71 491.222 155.71C487.42 149.123 489.676 140.701 496.263 136.898C502.026 133.571 509.195 134.883 513.444 139.675C513.952 140.248 514.418 140.87 514.835 141.539C514.916 141.671 514.996 141.804 515.074 141.939C518.877 148.525 516.62 156.948 510.034 160.75C504.271 164.078 497.102 162.766 492.852 157.973ZM510.608 161.744C503.472 165.864 494.348 163.419 490.229 156.284C486.109 149.148 488.554 140.024 495.689 135.905C502.824 131.785 511.949 134.23 516.068 141.365C520.188 148.501 517.743 157.625 510.608 161.744Z" fill="#3A3A3A"/>
<path d="M499.132 141.867L506.591 154.787M506.591 154.787L508.691 146.949M506.591 154.787L498.753 152.687" stroke="#E2E2E2" stroke-width="1.72137"/>
</g>
<g clip-path="url(#clip2_171_184)">
<path fill-rule="evenodd" clip-rule="evenodd" d="M288.859 549.222C288.805 549.285 288.75 549.346 288.694 549.407C286.175 552.179 282.541 553.919 278.5 553.919C270.895 553.919 264.73 547.754 264.73 540.148C264.73 536.821 265.91 533.769 267.874 531.389C268.014 531.219 268.159 531.052 268.307 530.889C270.826 528.117 274.46 526.377 278.501 526.377C286.106 526.377 292.271 532.543 292.271 540.148C292.271 543.624 290.984 546.799 288.859 549.222ZM263.582 540.148C263.582 531.909 270.261 525.23 278.5 525.23C286.74 525.23 293.419 531.909 293.419 540.148C293.419 548.387 286.74 555.067 278.5 555.067C270.261 555.067 263.582 548.387 263.582 540.148Z" fill="#3A3A3A"/>
<path d="M286.533 540.148L271.615 540.148M271.615 540.148L277.353 545.886M271.615 540.148L277.353 534.41" stroke="#E2E2E2" stroke-width="1.72137"/>
</g>
<path d="M532.708 280.485L532.679 279.015L541.273 270.549C535.955 270.674 533.036 270.741 532.516 270.752L532.487 269.312L543.075 269.103L543.106 270.648L534.525 279.054C539.993 278.916 542.908 278.843 543.268 278.836L543.296 280.276L532.708 280.485Z" fill="white"/>
<path d="M541.649 292.496L541.889 284.564L538.501 284.462L538.27 292.093L537.026 292.056L537.256 284.424L532.609 284.284L532.653 282.799L543.239 283.12L542.954 292.535L541.649 292.496Z" fill="white"/>
<path d="M540.971 303.126L541.268 298.801L531.96 298.161L532.063 296.665L541.371 297.304L541.667 292.994L542.924 293.081L542.228 303.212L540.971 303.126Z" fill="white"/>
<path d="M541.526 310.057L541.324 311.559L534.917 310.698C534.52 310.644 534.174 310.628 533.879 310.649C533.583 310.67 533.337 310.738 533.14 310.852C532.953 310.968 532.819 311.061 532.739 311.131C532.659 311.201 532.554 311.308 532.424 311.452C531.858 312.133 531.497 313.053 531.341 314.213C531.317 314.391 531.299 314.601 531.287 314.841C531.285 315.083 531.294 315.427 531.315 315.874C531.336 316.321 531.436 316.738 531.616 317.125C531.796 317.513 532.044 317.808 532.359 318.012C532.695 318.219 533.195 318.367 533.859 318.456L540.281 319.319L540.079 320.821L533.761 319.971C532.918 319.858 532.278 319.671 531.838 319.41C530.285 318.505 529.691 316.695 530.056 313.979C530.088 313.742 530.131 313.5 530.184 313.255C530.226 313.018 530.32 312.688 530.468 312.264C530.606 311.839 530.768 311.457 530.955 311.119C531.142 310.781 531.404 310.442 531.742 310.104C532.09 309.768 532.477 309.517 532.903 309.352C533.498 309.13 534.316 309.088 535.356 309.228L541.526 310.057Z" fill="white"/>
<path d="M536.577 333.035L537.367 328.772L528.193 327.074L528.466 325.599L537.64 327.297L538.426 323.05L539.665 323.279L537.816 333.264L536.577 333.035Z" fill="white"/>
<path d="M526.573 334.968L526.897 333.472L537.247 335.715L536.923 337.21L526.573 334.968Z" fill="white"/>
<path d="M523.722 346.758L525.781 338.476L536.059 341.03L535.697 342.486L526.671 340.242L524.974 347.07L523.722 346.758Z" fill="white"/>
<path d="M522.767 349.951L523.181 348.478L533.376 351.341L532.963 352.814L522.767 349.951Z" fill="white"/>
<path d="M528.226 363.971L529.523 359.835L520.62 357.044L521.069 355.612L529.972 358.404L531.264 354.281L532.466 354.658L529.428 364.348L528.226 363.971Z" fill="white"/>
<path d="M524.671 377.421L520.428 370.139L516.585 368.726L517.098 367.332L520.969 368.756L528.859 366.032L528.191 367.848L521.907 369.9L525.334 375.619L524.671 377.421Z" fill="white"/>
<path d="M515.419 376.177L514.804 377.692L513.039 376.975C512.501 376.757 512.152 376.475 511.99 376.128C511.825 375.791 511.847 375.352 512.056 374.811L512.82 375.122C512.75 375.374 512.745 375.56 512.803 375.681C512.858 375.812 513.006 375.926 513.247 376.024L513.664 376.193L513.918 375.568L515.419 376.177Z" fill="white"/>
<path d="M506.123 393.093L506.949 391.31L512.308 389.842L514.459 385.201L510.608 383.416L511.245 382.042L520.853 386.495L517.819 393.041C517.52 393.685 517.235 394.17 516.963 394.496C516.492 395.06 515.938 395.41 515.303 395.545C514.667 395.68 514.018 395.594 513.355 395.287C512.14 394.724 511.558 393.826 511.611 392.594C511.633 392.263 511.708 391.873 511.838 391.426L506.123 393.093ZM515.595 385.711L513.394 390.461C513.238 390.797 513.121 391.073 513.042 391.29C512.959 391.516 512.909 391.791 512.892 392.113C512.88 392.449 512.94 392.747 513.073 393.007C513.245 393.374 513.54 393.653 513.957 393.847C514.302 394.007 514.653 394.07 515.01 394.037C515.42 394.007 515.743 393.87 515.977 393.626C516.207 393.391 516.425 393.051 516.631 392.606L519.079 387.326L515.595 385.711Z" fill="white"/>
<path d="M500.838 403.119L505.545 394.12L514.929 399.028L510.403 407.681L509.247 407.076L513.077 399.753L510.286 398.293L506.553 405.43L505.436 404.846L509.17 397.709L506.006 396.054L501.995 403.723L500.838 403.119Z" fill="white"/>
<path d="M503.306 419.879L496.691 410.218L497.456 408.911L509.164 409.872L508.323 411.309L498.499 410.425L504.14 418.455L503.306 419.879Z" fill="white"/>
<path d="M487.97 423.971L493.511 415.461L502.385 421.239L497.057 429.423L495.964 428.711L500.473 421.784L497.834 420.066L493.439 426.816L492.383 426.129L496.778 419.378L493.786 417.43L489.063 424.683L487.97 423.971Z" fill="white"/>
<path d="M479.637 435.447L480.505 434.26L492.473 432.74C488.168 429.614 485.806 427.898 485.386 427.591L486.237 426.429L494.783 432.683L493.87 433.93L481.95 435.411C486.381 438.617 488.743 440.326 489.033 440.539L488.183 441.701L479.637 435.447Z" fill="white"/>
<path d="M486.103 444.334L485.143 445.505L480.142 441.409C479.832 441.155 479.546 440.96 479.284 440.822C479.022 440.685 478.776 440.613 478.548 440.608C478.328 440.608 478.166 440.617 478.061 440.635C477.956 440.652 477.81 440.688 477.624 440.742C476.785 441.024 475.995 441.618 475.253 442.523C475.139 442.662 475.014 442.831 474.877 443.03C474.748 443.234 474.576 443.532 474.359 443.923C474.142 444.314 474.008 444.722 473.958 445.146C473.908 445.57 473.963 445.952 474.125 446.291C474.302 446.643 474.65 447.031 475.168 447.456L480.181 451.563L479.221 452.734L474.289 448.695C473.632 448.156 473.184 447.66 472.948 447.208C472.101 445.622 472.546 443.769 474.282 441.65C474.434 441.464 474.597 441.281 474.771 441.1C474.931 440.921 475.185 440.69 475.533 440.406C475.874 440.117 476.213 439.877 476.549 439.687C476.885 439.497 477.286 439.347 477.751 439.237C478.224 439.133 478.685 439.123 479.134 439.206C479.757 439.329 480.475 439.723 481.287 440.389L486.103 444.334Z" fill="white"/>
<path d="M462.701 455.278L469.5 447.735L477.366 454.826L470.828 462.079L469.859 461.205L475.393 455.066L473.053 452.957L467.66 458.94L466.724 458.097L472.117 452.113L469.465 449.723L463.67 456.152L462.701 455.278Z" fill="white"/>
<path d="M460.425 460.695L459.823 462.076C459.561 462.066 459.36 462.059 459.219 462.058C459.084 462.063 458.889 462.092 458.634 462.145C458.379 462.198 458.102 462.286 457.803 462.41C456.971 462.745 456.125 463.331 455.265 464.168C454.362 465.046 453.852 465.878 453.735 466.661C453.649 467.261 453.809 467.769 454.213 468.184C454.436 468.414 454.682 468.551 454.95 468.597C455.211 468.65 455.487 468.612 455.779 468.481C456.078 468.358 456.341 468.22 456.57 468.068C456.791 467.922 457.048 467.728 457.341 467.484L458.607 466.462C459.279 465.92 459.751 465.544 460.023 465.336C460.294 465.141 460.611 464.958 460.974 464.786C461.33 464.622 461.678 464.534 462.017 464.525C462.696 464.506 463.287 464.754 463.789 465.27C464.542 466.044 464.749 466.959 464.409 468.015C464.128 468.931 463.454 469.908 462.386 470.947C460.573 472.712 458.813 473.434 457.106 473.114L457.708 471.754C458.408 471.742 459.057 471.613 459.654 471.366C460.251 471.12 460.869 470.686 461.507 470.066C461.815 469.766 462.084 469.462 462.315 469.154C462.552 468.853 462.758 468.534 462.933 468.197C463.1 467.867 463.171 467.539 463.147 467.213C463.131 466.895 463.004 466.614 462.766 466.37C462.578 466.177 462.378 466.05 462.167 465.991C461.955 465.945 461.732 465.967 461.498 466.056C461.27 466.152 461.064 466.255 460.878 466.366C460.7 466.483 460.486 466.643 460.235 466.845L457.661 468.91C456.796 469.598 455.978 469.976 455.206 470.044C454.435 470.111 453.752 469.84 453.159 469.231C452.853 468.915 452.624 468.566 452.474 468.182C452.323 467.798 452.259 467.351 452.28 466.843C452.308 466.341 452.503 465.767 452.865 465.122C453.235 464.483 453.771 463.822 454.473 463.139C455.419 462.218 456.415 461.521 457.461 461.047C458.507 460.573 459.495 460.456 460.425 460.695Z" fill="white"/>
<path d="M448.833 481.293L452.069 478.408L445.861 471.444L446.98 470.446L453.189 477.41L456.414 474.535L457.252 475.476L449.672 482.233L448.833 481.293Z" fill="white"/>
<path d="M432.461 482.577L433.988 481.341L439.445 482.384L443.421 479.165L440.749 475.866L441.927 474.912L448.591 483.142L442.984 487.683C442.432 488.13 441.962 488.439 441.574 488.612C440.903 488.911 440.252 488.981 439.622 488.822C438.991 488.664 438.447 488.301 437.987 487.733C437.144 486.692 437.017 485.63 437.607 484.547C437.773 484.259 438.012 483.943 438.326 483.599L432.461 482.577ZM444.216 480.123L440.147 483.417C439.86 483.65 439.633 483.847 439.467 484.007C439.293 484.173 439.127 484.398 438.969 484.68C438.81 484.976 438.733 485.27 438.738 485.562C438.731 485.967 438.872 486.348 439.162 486.705C439.401 487 439.688 487.212 440.023 487.34C440.405 487.493 440.755 487.512 441.073 487.397C441.383 487.287 441.728 487.078 442.109 486.77L446.632 483.107L444.216 480.123Z" fill="white"/>
<path d="M423.337 489.235L431.524 483.227L437.789 491.765L429.916 497.542L429.144 496.49L435.808 491.6L433.944 489.06L427.45 493.826L426.704 492.81L433.198 488.045L431.086 485.166L424.109 490.287L423.337 489.235Z" fill="white"/>
<path d="M411.56 497.053L413.01 496.091L415.527 497.554L420.954 493.958L420.587 491.07L422 490.133L423.274 501.994L421.936 502.88L411.56 497.053ZM416.736 498.211L421.799 501.153L421.1 495.319L416.736 498.211Z" fill="white"/>
<path d="M397.897 504.936L399.132 504.225L403.603 512.139L402.824 502.099L404.046 501.395L412.325 507.117C409.388 502.116 407.854 499.502 407.724 499.277L408.946 498.574L414.231 507.751L412.437 508.784L404.217 503.166L404.949 513.095L403.181 514.113L397.897 504.936Z" fill="white"/>
<path d="M397.282 507.615L396.292 508.751C396.046 508.663 395.856 508.596 395.722 508.552C395.592 508.516 395.397 508.486 395.138 508.46C394.878 508.433 394.587 508.434 394.266 508.462C393.371 508.532 392.388 508.837 391.317 509.376C390.191 509.943 389.455 510.583 389.109 511.295C388.846 511.841 388.846 512.373 389.107 512.891C389.251 513.177 389.443 513.382 389.685 513.507C389.918 513.636 390.193 513.682 390.511 513.645C390.833 513.617 391.126 513.565 391.389 513.488C391.644 513.416 391.948 513.308 392.301 513.164L393.815 512.569C394.619 512.253 395.182 512.037 395.503 511.92C395.821 511.816 396.178 511.737 396.576 511.682C396.965 511.632 397.323 511.653 397.65 511.746C398.303 511.932 398.792 512.346 399.116 512.989C399.601 513.954 399.524 514.889 398.882 515.794C398.339 516.583 397.402 517.312 396.071 517.982C393.812 519.121 391.916 519.28 390.384 518.462L391.367 517.346C392.038 517.545 392.696 517.617 393.34 517.561C393.984 517.506 394.703 517.278 395.498 516.877C395.882 516.684 396.23 516.475 396.543 516.25C396.859 516.035 397.152 515.792 397.419 515.523C397.678 515.259 397.845 514.967 397.92 514.65C397.999 514.341 397.963 514.035 397.81 513.731C397.688 513.49 397.536 513.309 397.352 513.189C397.164 513.082 396.944 513.036 396.694 513.05C396.448 513.073 396.22 513.11 396.01 513.159C395.805 513.218 395.552 513.306 395.253 513.423L392.177 514.62C391.145 515.016 390.251 515.131 389.495 514.963C388.739 514.795 388.169 514.332 387.787 513.573C387.589 513.18 387.476 512.778 387.448 512.366C387.42 511.955 387.493 511.51 387.666 511.031C387.843 510.561 388.202 510.072 388.741 509.565C389.285 509.067 389.995 508.598 390.87 508.157C392.049 507.563 393.209 507.197 394.349 507.06C395.489 506.922 396.466 507.107 397.282 507.615Z" fill="white"/>
<path d="M161.436 50.2866L162.993 49.8262C163.091 52.1677 161.783 54.0661 159.069 55.5213C157.984 56.1025 156.929 56.4412 155.903 56.5375C154.872 56.625 153.898 56.4268 152.98 55.9429C152.067 55.4454 151.322 54.6591 150.746 53.5838C149.956 52.112 149.826 50.6617 150.353 49.2329C150.881 47.8041 152.017 46.622 153.762 45.6865C156.274 44.3399 158.508 44.3055 160.463 45.583L159.212 46.6454C158.523 46.1863 157.762 45.9932 156.927 46.0662C156.097 46.1256 155.267 46.3774 154.439 46.8215C154.007 47.053 153.614 47.3148 153.26 47.6067C152.901 47.8898 152.582 48.2255 152.302 48.6137C152.031 48.9973 151.832 49.3989 151.705 49.8185C151.579 50.2382 151.547 50.7089 151.611 51.2305C151.675 51.7521 151.852 52.2818 152.14 52.8194C152.811 54.0709 153.731 54.803 154.9 55.0158C156.065 55.2198 157.308 54.9675 158.63 54.2587C160.507 53.2524 161.443 51.9283 161.436 50.2866Z" fill="white"/>
<path d="M161.908 41.8066L163.279 41.1636L166.023 47.0176C166.193 47.3798 166.366 47.6795 166.544 47.9166C166.721 48.1537 166.911 48.3241 167.115 48.4277C167.314 48.5222 167.464 48.5842 167.566 48.6136C167.668 48.643 167.815 48.6736 168.007 48.7053C168.885 48.8126 169.854 48.618 170.914 48.1215C171.077 48.0451 171.263 47.9469 171.471 47.827C171.676 47.6979 171.961 47.5039 172.325 47.2447C172.689 46.9855 172.986 46.6754 173.214 46.3144C173.443 45.9534 173.557 45.585 173.558 45.2092C173.55 44.8153 173.404 44.315 173.119 43.7084L170.369 37.8408L171.741 37.1979L174.447 42.9704C174.807 43.74 174.997 44.3801 175.015 44.8905C175.095 46.6865 173.894 48.1658 171.413 49.3286C171.196 49.4304 170.97 49.5254 170.735 49.6133C170.513 49.7061 170.184 49.8052 169.748 49.9104C169.315 50.0247 168.906 50.0948 168.521 50.1208C168.136 50.1468 167.709 50.1092 167.242 50.0078C166.771 49.8975 166.351 49.7078 165.982 49.439C165.472 49.0592 164.995 48.394 164.549 47.4432L161.908 41.8066Z" fill="white"/>
<path d="M177.13 44.0653L178.205 43.0095C178.443 43.1171 178.628 43.1983 178.758 43.253C178.885 43.2984 179.077 43.3443 179.333 43.3905C179.59 43.4368 179.88 43.4586 180.203 43.4561C181.1 43.4564 182.103 43.2294 183.214 42.7749C184.38 42.2977 185.164 41.7177 185.565 41.0349C185.869 40.5107 185.912 39.9802 185.692 39.4434C185.571 39.1472 185.394 38.9276 185.163 38.7846C184.941 38.6378 184.67 38.5703 184.351 38.5821C184.028 38.5846 183.732 38.6139 183.463 38.6699C183.203 38.7221 182.892 38.8062 182.529 38.9224L180.973 39.3971C180.147 39.6487 179.569 39.8204 179.239 39.9121C178.914 39.9908 178.552 40.042 178.151 40.0656C177.759 40.0854 177.404 40.0362 177.086 39.918C176.449 39.6816 175.994 39.2303 175.721 38.5639C175.312 37.5643 175.463 36.6383 176.173 35.7859C176.776 35.0421 177.767 34.388 179.146 33.8237C181.488 32.8656 183.39 32.8543 184.853 33.7898L183.786 34.8261C183.133 34.575 182.483 34.452 181.836 34.4571C181.19 34.4622 180.455 34.6333 179.632 34.9703C179.234 35.1332 178.87 35.3143 178.541 35.5138C178.208 35.7039 177.898 35.9227 177.61 36.1701C177.332 36.4137 177.143 36.691 177.043 37.0019C176.94 37.3036 176.952 37.6117 177.081 37.9264C177.183 38.1763 177.321 38.3683 177.495 38.5025C177.674 38.6237 177.889 38.687 178.14 38.6924C178.387 38.6886 178.617 38.6701 178.83 38.6368C179.04 38.5943 179.298 38.5263 179.606 38.4329L182.766 37.4804C183.825 37.1656 184.726 37.1214 185.467 37.3476C186.207 37.5739 186.739 38.0804 187.061 38.8671C187.227 39.2743 187.309 39.6841 187.304 40.0964C187.3 40.5086 187.193 40.9468 186.983 41.4109C186.77 41.8657 186.374 42.3247 185.796 42.7879C185.215 43.2419 184.471 43.6545 183.564 44.0256C182.342 44.5255 181.158 44.7995 180.01 44.8476C178.863 44.8956 177.903 44.6349 177.13 44.0653Z" fill="white"/>
<path d="M195.75 29.2523L191.667 30.7083L194.801 39.4963L193.388 40.0001L190.254 31.2121L186.185 32.663L185.762 31.4762L195.327 28.0655L195.75 29.2523Z" fill="white"/>
<path d="M211.7 28.781C212.145 30.2762 211.972 31.6785 211.183 32.988C210.403 34.2947 209.05 35.2346 207.124 35.8079C205.216 36.3754 203.565 36.366 202.17 35.7795C200.781 35.1806 199.843 34.0617 199.356 32.4227C199.093 31.5409 199.026 30.7003 199.153 29.9008C199.277 29.0917 199.558 28.3874 199.995 27.7878C200.439 27.1758 200.991 26.6464 201.651 26.1996C202.311 25.7528 203.049 25.4082 203.863 25.1658C204.64 24.9348 205.42 24.8225 206.204 24.8291C206.986 24.8261 207.738 24.9518 208.461 25.2063C209.19 25.4483 209.844 25.8746 210.422 26.4851C211 27.0955 211.426 27.8608 211.7 28.781ZM210.205 29.0693C210.059 28.5805 209.832 28.1317 209.523 27.723C209.223 27.3114 208.836 26.9571 208.361 26.66C207.893 26.3506 207.301 26.1668 206.585 26.1086C205.869 26.0505 205.084 26.1484 204.231 26.4022C203.599 26.5904 203.03 26.8535 202.525 27.1915C202.028 27.517 201.607 27.9083 201.263 28.3653C200.919 28.8224 200.697 29.3578 200.598 29.9715C200.509 30.5824 200.568 31.2377 200.776 31.9374C201.15 33.193 201.87 34.0533 202.937 34.5183C204.004 34.9834 205.285 34.9934 206.78 34.5485C207.614 34.3004 208.308 33.9686 208.863 33.5532C209.415 33.1282 209.805 32.6679 210.033 32.1723C210.258 31.667 210.384 31.1601 210.41 30.6516C210.433 30.1335 210.365 29.606 210.205 29.0693Z" fill="white"/>
<path d="M229.013 29.9639L227.625 30.2869L225.638 21.4164L223.476 31.2524L222.103 31.572L215.835 23.6976C217.198 29.3353 217.91 32.2808 217.968 32.5341L216.595 32.8536L214.195 22.5392L216.211 22.0701L222.452 29.8275L224.626 20.1119L226.613 19.6495L229.013 29.9639Z" fill="white"/>
<path d="M233.289 29.2524L231.786 29.5372L229.815 19.1322L231.318 18.8474L233.289 29.2524Z" fill="white"/>
<path d="M246.532 27.105L236.082 28.7215L235.889 27.4763L242.858 18.2629L235.283 19.4345L235.086 18.1597L244.765 16.6624L244.956 17.8928L237.97 27.0937L246.331 25.8005L246.532 27.105Z" fill="white"/>
<path d="M260.821 25.6316L259.09 25.8075L257.543 23.3412L251.067 23.999L250.047 26.726L248.361 26.8973L252.752 15.8067L254.349 15.6445L260.821 25.6316ZM256.779 22.1976L253.666 17.2367L251.571 22.7266L256.779 22.1976Z" fill="white"/>
<path d="M270.848 15.8121L266.519 16.0417L267.013 25.3586L265.515 25.438L265.021 16.1211L260.707 16.3499L260.64 15.0917L270.781 14.5539L270.848 15.8121Z" fill="white"/>
<path d="M275.016 25.095L273.487 25.1308L273.239 14.5437L274.768 14.5079L275.016 25.095Z" fill="white"/>
<path d="M290.698 20.0739C290.672 21.6337 290.085 22.9189 288.937 23.9294C287.8 24.9401 286.226 25.4283 284.217 25.394C282.227 25.36 280.655 24.853 279.502 23.8732C278.359 22.8835 277.802 21.5338 277.831 19.824C277.846 18.9042 278.036 18.0823 278.398 17.3584C278.761 16.6245 279.241 16.0376 279.838 15.5977C280.446 15.148 281.132 14.8097 281.896 14.5827C282.66 14.3558 283.467 14.2495 284.317 14.264C285.127 14.2779 285.904 14.4062 286.65 14.649C287.397 14.8818 288.076 15.2284 288.688 15.6889C289.31 16.1396 289.805 16.7432 290.172 17.4996C290.539 18.2559 290.715 19.1141 290.698 20.0739ZM289.186 19.8981C289.195 19.3881 289.113 18.8917 288.942 18.4087C288.78 17.9258 288.518 17.4713 288.155 17.045C287.802 16.6089 287.293 16.2552 286.628 15.9838C285.962 15.7124 285.185 15.5691 284.295 15.5539C283.635 15.5426 283.013 15.622 282.43 15.792C281.857 15.9523 281.338 16.1984 280.872 16.5305C280.407 16.8626 280.034 17.3063 279.755 17.8616C279.485 18.4171 279.344 19.0598 279.332 19.7897C279.309 21.0995 279.737 22.1369 280.614 22.902C281.491 23.6671 282.709 24.063 284.269 24.0897C285.139 24.1045 285.901 23.9975 286.555 23.7687C287.209 23.5298 287.719 23.2085 288.086 22.8047C288.453 22.3909 288.726 21.9455 288.904 21.4685C289.083 20.9814 289.177 20.458 289.186 19.8981Z" fill="white"/>
<path d="M304.478 26.2121L303.012 26.1062L295.369 16.7715C295.006 22.0791 294.806 24.9923 294.768 25.5109L293.332 25.4072L294.095 14.8447L295.636 14.956L303.22 24.2714C303.584 18.8135 303.779 15.905 303.805 15.5459L305.241 15.6496L304.478 26.2121Z" fill="white"/>
<path d="M308.296 25.0748L309.921 25.258L309.707 27.151C309.642 27.7273 309.465 28.1401 309.175 28.3892C308.895 28.6394 308.467 28.737 307.889 28.6819L307.982 27.8621C308.244 27.8615 308.425 27.8165 308.525 27.7272C308.636 27.639 308.706 27.4658 308.735 27.2074L308.785 26.7602L308.115 26.6846L308.296 25.0748Z" fill="white"/>
<path d="M326.781 26.1566L328.296 26.7407C326.946 28.6568 324.752 29.3645 321.713 28.8638C320.499 28.6638 319.456 28.2893 318.584 27.7402C317.713 27.1812 317.062 26.4302 316.629 25.4874C316.208 24.5363 316.097 23.4589 316.295 22.2551C316.567 20.6073 317.347 19.3778 318.636 18.5666C319.925 17.7553 321.546 17.5107 323.5 17.8326C326.312 18.2959 328.104 19.63 328.876 21.8348L327.236 21.9143C326.97 21.1306 326.484 20.5133 325.778 20.0625C325.083 19.6035 324.272 19.2976 323.345 19.1448C322.861 19.0651 322.39 19.0331 321.932 19.0487C321.475 19.0545 321.017 19.1261 320.558 19.2634C320.11 19.4023 319.707 19.5995 319.351 19.855C318.995 20.1104 318.683 20.4645 318.416 20.9171C318.149 21.3697 317.966 21.8969 317.867 22.4988C317.636 23.8999 317.919 25.0411 318.716 25.9225C319.515 26.794 320.655 27.3516 322.135 27.5955C324.236 27.9418 325.785 27.4621 326.781 26.1566Z" fill="white"/>
<path d="M342.936 27.6662C342.598 29.1893 341.767 30.3316 340.441 31.093C339.125 31.8566 337.485 32.0212 335.523 31.5868C333.58 31.1567 332.141 30.3466 331.206 29.1564C330.283 27.9586 330.007 26.5249 330.376 24.8554C330.575 23.9571 330.924 23.1894 331.424 22.5523C331.925 21.9055 332.513 21.4261 333.186 21.1142C333.871 20.7948 334.611 20.6 335.405 20.53C336.199 20.4599 337.011 20.5167 337.841 20.7004C338.631 20.8755 339.368 21.1563 340.051 21.543C340.735 21.9199 341.332 22.395 341.84 22.9684C342.36 23.5341 342.724 24.2242 342.933 25.0386C343.142 25.853 343.143 26.7289 342.936 27.6662ZM341.489 27.1923C341.599 26.6944 341.618 26.1916 341.546 25.6841C341.484 25.1787 341.317 24.6809 341.047 24.1909C340.788 23.6933 340.36 23.2451 339.762 22.8464C339.164 22.4478 338.431 22.1523 337.562 21.9599C336.917 21.8173 336.293 21.7712 335.687 21.8216C335.094 21.8643 334.536 22.002 334.014 22.2346C333.491 22.4671 333.037 22.8276 332.653 23.316C332.278 23.8066 332.011 24.4082 331.854 25.121C331.571 26.4 331.782 27.5018 332.489 28.4265C333.196 29.3511 334.311 29.982 335.834 30.3191C336.684 30.5072 337.452 30.5543 338.138 30.4604C338.827 30.3568 339.391 30.1438 339.831 29.8212C340.274 29.489 340.63 29.1069 340.899 28.675C341.171 28.2333 341.368 27.7391 341.489 27.1923Z" fill="white"/>
<path d="M355.539 36.5575L354.125 36.1569L348.531 25.4681C347.101 30.5923 346.315 33.4045 346.173 33.9048L344.787 33.5124L347.673 23.3232L349.16 23.7442L354.7 34.4022C356.162 29.131 356.942 26.3222 357.04 25.9758L358.425 26.3682L355.539 36.5575Z" fill="white"/>
<path d="M369.8 31.5385L365.694 30.1466L362.698 38.9826L361.278 38.501L364.273 29.665L360.182 28.2779L360.587 27.0847L370.204 30.3452L369.8 31.5385Z" fill="white"/>
<path d="M378.822 45.0309L376.99 44.3193L375.185 39.0642L370.418 37.2119L368.88 41.1688L367.468 40.6202L371.303 30.7489L378.028 33.3617C378.69 33.6188 379.192 33.8729 379.535 34.1239C380.128 34.5581 380.512 35.0882 380.687 35.7141C380.862 36.34 380.818 36.9932 380.553 37.6737C380.068 38.9227 379.209 39.5599 377.976 39.5852C377.644 39.5848 377.251 39.5339 376.796 39.4326L378.822 45.0309ZM370.855 36.046L375.734 37.9417C376.079 38.0757 376.362 38.175 376.584 38.2397C376.815 38.3079 377.092 38.3405 377.415 38.3373C377.751 38.3283 378.045 38.2493 378.296 38.1001C378.65 37.9053 378.911 37.5935 379.078 37.1647C379.215 36.8105 379.256 36.4563 379.201 36.1022C379.145 35.6942 378.987 35.381 378.729 35.1626C378.48 34.9478 378.127 34.7516 377.67 34.5742L372.245 32.4666L370.855 36.046Z" fill="white"/>
<path d="M393.71 46.1254C393.067 47.5464 392.018 48.493 390.563 48.965C389.118 49.4411 387.48 49.2646 385.649 48.4353C383.837 47.6142 382.595 46.5251 381.926 45.1679C381.269 43.8057 381.294 42.3458 381.999 40.7881C382.379 39.95 382.879 39.2707 383.499 38.7502C384.123 38.2205 384.796 37.8724 385.519 37.7059C386.256 37.5345 387.02 37.4962 387.811 37.5911C388.602 37.6861 389.385 37.9089 390.159 38.2596C390.897 38.5938 391.56 39.0204 392.149 39.5393C392.741 40.0492 393.227 40.6369 393.606 41.3027C393.998 41.9634 394.213 42.7137 394.249 43.5537C394.286 44.3937 394.106 45.2509 393.71 46.1254ZM392.392 45.3637C392.603 44.8991 392.725 44.4111 392.759 43.8996C392.802 43.3922 392.742 42.8709 392.578 42.3356C392.428 41.7954 392.101 41.2687 391.598 40.7554C391.095 40.2421 390.438 39.8019 389.627 39.4347C389.026 39.1624 388.424 38.9886 387.821 38.9132C387.232 38.8329 386.658 38.8527 386.098 38.9726C385.539 39.0926 385.021 39.3519 384.544 39.7506C384.076 40.1534 383.692 40.6873 383.39 41.3523C382.85 42.5456 382.83 43.6675 383.332 44.7179C383.833 45.7682 384.794 46.6153 386.215 47.2589C387.008 47.6178 387.749 47.8221 388.44 47.8717C389.136 47.9121 389.732 47.8199 390.229 47.5949C390.73 47.3609 391.157 47.0603 391.51 46.6932C391.867 46.317 392.161 45.8738 392.392 45.3637Z" fill="white"/>
<path d="M401.85 56.1114L394.251 52.224L399.075 42.7962L400.41 43.4794L396.174 51.7588L402.437 54.963L401.85 56.1114Z" fill="white"/>
<path d="M147.887 499.188L149.127 499.891L144.574 507.759L152.831 501.994L154.057 502.69L153.326 512.728C156.146 507.66 157.621 505.012 157.749 504.786L158.975 505.482L153.747 514.692L151.947 513.67L152.618 503.736L144.433 509.404L142.659 508.397L147.887 499.188Z" fill="white"/>
<path d="M140.217 506.837L138.945 506.014L142.456 500.585C142.673 500.249 142.835 499.943 142.942 499.667C143.049 499.391 143.093 499.139 143.073 498.912C143.048 498.694 143.02 498.533 142.991 498.431C142.962 498.329 142.91 498.188 142.836 498.009C142.461 497.207 141.782 496.488 140.8 495.853C140.649 495.755 140.467 495.649 140.255 495.536C140.037 495.431 139.721 495.292 139.308 495.121C138.896 494.949 138.475 494.862 138.048 494.859C137.621 494.857 137.248 494.955 136.929 495.154C136.599 495.369 136.252 495.758 135.889 496.321L132.37 501.762L131.098 500.94L134.559 495.587C135.021 494.873 135.463 494.373 135.886 494.087C137.367 493.067 139.258 493.302 141.559 494.789C141.76 494.92 141.961 495.061 142.16 495.214C142.356 495.352 142.614 495.579 142.935 495.894C143.261 496.2 143.537 496.509 143.763 496.822C143.99 497.135 144.184 497.517 144.345 497.967C144.501 498.425 144.563 498.882 144.531 499.337C144.479 499.97 144.168 500.728 143.597 501.609L140.217 506.837Z" fill="white"/>
<path d="M127.196 485.168L134.143 490.127L127.989 498.746L126.769 497.874L132.172 490.305L126.447 486.218L127.196 485.168Z" fill="white"/>
<path d="M113.24 486.1L116.659 488.765L122.394 481.406L123.577 482.328L117.842 489.687L121.249 492.343L120.475 493.337L112.465 487.094L113.24 486.1Z" fill="white"/>
<path d="M115.5 475.79L116.673 476.771L109.881 484.896L108.707 483.915L115.5 475.79Z" fill="white"/>
<path d="M108.235 474.655L111.802 477.754L110.995 478.682L107.428 475.583L108.235 474.655Z" fill="white"/>
<path d="M109.77 470.86L102.556 478.613L97.6913 474.086C96.4467 472.928 95.9065 471.776 96.0705 470.631C96.168 469.998 96.4484 469.432 96.9116 468.935C97.6133 468.181 98.4257 467.851 99.3489 467.945C99.7111 467.981 100.061 468.082 100.4 468.247C100.738 468.411 101.01 468.575 101.214 468.737C101.418 468.9 101.692 469.141 102.036 469.461L105.758 472.926L108.65 469.818L109.77 470.86ZM104.911 473.858L101.331 470.527C101.075 470.288 100.859 470.102 100.685 469.966C100.51 469.831 100.283 469.708 100.003 469.598C99.716 469.495 99.4318 469.463 99.1502 469.502C98.7487 469.551 98.381 469.756 98.0472 470.114C97.7407 470.444 97.5733 470.807 97.5451 471.204C97.5276 471.502 97.595 471.804 97.7475 472.11C97.8927 472.409 98.0424 472.637 98.1967 472.794C98.3441 472.959 98.5606 473.174 98.8461 473.439L102.305 476.658L104.911 473.858Z" fill="white"/>
<path d="M92.2755 453.673L93.4897 454.919L92.5203 457.665L97.0629 462.328L99.8326 461.431L101.015 462.645L89.5988 466.102L88.4788 464.952L92.2755 453.673ZM92.1 458.975L90.1502 464.497L95.7529 462.724L92.1 458.975Z" fill="white"/>
<path d="M75.8765 450.982L84.3005 450.738L87.3797 448.039L88.3586 449.155L85.2568 451.875L83.8761 460.107L82.6005 458.652L83.8037 452.151L77.1422 452.425L75.8765 450.982Z" fill="white"/>
<path d="M81.0157 442.975L79.9845 441.706L81.4628 440.505C81.9129 440.139 82.3286 439.969 82.7099 439.994C83.0848 440.011 83.4591 440.242 83.8327 440.686L83.1924 441.206C83.0052 441.023 82.8444 440.928 82.71 440.922C82.5693 440.907 82.3981 440.982 82.1963 441.146L81.8471 441.43L82.2728 441.953L81.0157 442.975Z" fill="white"/>
<path d="M68.9798 424.283L69.8156 425.437L62.4092 430.708L72.3141 428.888L73.1411 430.03L68.3124 438.86C72.9808 435.418 75.4202 433.62 75.6308 433.468L76.4578 434.61L67.8805 440.821L66.6664 439.144L71.3979 430.385L61.599 432.147L60.4025 430.494L68.9798 424.283Z" fill="white"/>
<path d="M61.1046 411.908L62.0401 413.375L60.5331 415.866L64.0334 421.355L66.9276 421.039L67.8389 422.469L55.9581 423.534L55.0952 422.18L61.1046 411.908ZM59.8555 417.063L56.8242 422.074L62.6702 421.477L59.8555 417.063Z" fill="white"/>
<path d="M54.87 400.843L55.84 402.552L53.918 407.765L56.443 412.214L60.1347 410.118L60.8826 411.436L51.6728 416.663L48.1112 410.389C47.7607 409.771 47.5321 409.257 47.4254 408.846C47.2401 408.135 47.2774 407.481 47.5371 406.885C47.7968 406.29 48.2441 405.811 48.8789 405.451C50.0443 404.79 51.1127 404.839 52.0842 405.598C52.3416 405.808 52.6142 406.096 52.9022 406.462L54.87 400.843ZM55.3676 412.841L52.7834 408.288C52.6008 407.967 52.444 407.711 52.3131 407.521C52.1772 407.322 51.983 407.121 51.7306 406.92C51.4645 406.714 51.187 406.59 50.8982 406.547C50.5002 406.474 50.1012 406.551 49.7012 406.778C49.3707 406.966 49.1151 407.214 48.9343 407.524C48.72 407.875 48.644 408.218 48.7063 408.55C48.7636 408.874 48.9133 409.249 49.1551 409.675L52.0281 414.737L55.3676 412.841Z" fill="white"/>
<path d="M48.9441 388.997L49.8455 390.793L46.8969 397.626L50.5287 399.479L53.4648 398.006L54.1174 399.306L44.6521 404.056L43.9861 402.729L49.0271 400.199L40.5619 395.904L39.573 393.934L45.5409 396.93L48.9441 388.997Z" fill="white"/>
<path d="M44.5373 378.958L48.6566 388.24L38.9769 392.535L35.0159 383.61L36.2087 383.081L39.5613 390.635L42.4405 389.357L39.1731 381.995L40.3248 381.484L43.5922 388.846L46.8553 387.398L43.3445 379.487L44.5373 378.958Z" fill="white"/>
<path d="M31.8574 372.165L33.4412 376.2L42.1262 372.791L42.6743 374.187L33.9893 377.596L35.5676 381.618L34.3947 382.078L30.6845 372.625L31.8574 372.165Z" fill="white"/>
<path d="M40.1868 367.727L30.1696 371.163L28.0138 364.877C27.4623 363.269 27.5288 361.999 28.2133 361.067C28.5978 360.554 29.1117 360.187 29.7549 359.967C30.7292 359.633 31.6012 359.725 32.371 360.243C32.6732 360.446 32.9347 360.7 33.1556 361.005C33.3764 361.31 33.5385 361.582 33.6417 361.821C33.745 362.061 33.8729 362.403 34.0253 362.847L35.6751 367.657L39.6904 366.28L40.1868 367.727ZM34.4881 368.08L32.9016 363.455C32.7881 363.124 32.6862 362.857 32.5959 362.656C32.5056 362.454 32.363 362.239 32.1681 362.009C31.9637 361.784 31.7283 361.621 31.4618 361.522C31.0842 361.377 30.6637 361.384 30.2002 361.543C29.7745 361.689 29.4556 361.93 29.2435 362.267C29.0876 362.522 29.0048 362.82 28.9951 363.161C28.9822 363.493 29.0067 363.765 29.0686 363.976C29.121 364.191 29.2105 364.483 29.337 364.852L30.87 369.321L34.4881 368.08Z" fill="white"/>
<path d="M33.5958 346.95L36.0103 355.136L25.8529 358.132L25.4285 356.693L34.3486 354.062L32.3585 347.315L33.5958 346.95Z" fill="white"/>
<path d="M30.3578 333.703L30.7706 335.393L28.5412 337.265L30.0858 343.589L32.9273 344.223L33.3295 345.87L21.7393 343.049L21.3585 341.49L30.3578 333.703ZM27.5139 338.18L23.0295 341.947L28.756 343.266L27.5139 338.18Z" fill="white"/>
<path d="M25.0551 322.751L25.0871 321.127C27.3487 321.742 28.7626 323.563 29.3289 326.59C29.5551 327.799 29.5589 328.908 29.3404 329.915C29.1121 330.924 28.6286 331.793 27.8899 332.521C27.1395 333.241 26.1647 333.714 24.9655 333.938C23.324 334.245 21.902 333.931 20.6997 332.996C19.4973 332.061 18.714 330.621 18.35 328.675C17.8259 325.873 18.4685 323.734 20.2776 322.256L20.9118 323.77C20.266 324.287 19.8517 324.955 19.6689 325.773C19.4744 326.582 19.4636 327.449 19.6364 328.373C19.7265 328.855 19.8572 329.308 20.0284 329.734C20.1898 330.162 20.4132 330.567 20.6987 330.952C20.9823 331.326 21.305 331.637 21.6667 331.884C22.0284 332.132 22.4676 332.304 22.9842 332.401C23.5007 332.498 24.0588 332.49 24.6584 332.378C26.0542 332.117 27.0303 331.461 27.5867 330.411C28.1332 329.362 28.2686 328.101 27.9928 326.627C27.6012 324.533 26.6219 323.241 25.0551 322.751Z" fill="white"/>
<path d="M26.3731 309.057L27.7645 319.117L17.2744 320.568L15.9365 310.895L17.2291 310.716L18.3616 318.903L21.4819 318.471L20.3782 310.492L21.6263 310.32L22.73 318.299L26.2663 317.81L25.0805 309.236L26.3731 309.057Z" fill="white"/>
<path d="M24.5568 306.613L24.3863 304.987L26.2809 304.788C26.8578 304.727 27.299 304.812 27.6046 305.041C27.9091 305.261 28.0966 305.658 28.167 306.234L27.3465 306.32C27.2896 306.065 27.2067 305.897 27.0978 305.818C26.988 305.729 26.8037 305.698 26.5451 305.725L26.0976 305.772L26.168 306.444L24.5568 306.613Z" fill="white"/>
<path d="M24.774 286.068L24.8662 287.805L22.3282 289.232L22.6733 295.733L25.348 296.883L25.4378 298.575L14.5717 293.654L14.4867 292.051L24.774 286.068ZM21.1491 289.94L16.044 292.81L21.4266 295.168L21.1491 289.94Z" fill="white"/>
<path d="M24.8347 285.216L14.2447 285.23L14.2361 278.585C14.2338 276.885 14.7073 275.704 15.6565 275.043C16.186 274.682 16.7908 274.502 17.4707 274.501C18.5007 274.499 19.2962 274.868 19.8572 275.608C20.0776 275.897 20.243 276.222 20.3535 276.582C20.4639 276.942 20.5293 277.252 20.5497 277.512C20.57 277.772 20.5805 278.137 20.5811 278.607L20.5877 283.692L24.8327 283.686L24.8347 285.216ZM19.3277 283.708L19.3214 278.818C19.3209 278.468 19.3105 278.183 19.2903 277.963C19.27 277.743 19.2046 277.493 19.0943 277.214C18.9739 276.934 18.8036 276.704 18.5834 276.524C18.273 276.265 17.8729 276.135 17.3829 276.136C16.9329 276.136 16.553 276.262 16.2434 276.512C16.0136 276.703 15.8389 276.958 15.7194 277.278C15.5998 277.588 15.5351 277.853 15.5254 278.073C15.5057 278.293 15.4961 278.598 15.4966 278.988L15.5027 283.713L19.3277 283.708Z" fill="white"/>
<path d="M24.8893 273.495L14.3092 273.036L14.5967 266.398C14.6702 264.699 15.1958 263.541 16.1735 262.923C16.7186 262.586 17.3308 262.432 18.0101 262.462C19.0392 262.506 19.8174 262.91 20.3449 263.674C20.5521 263.973 20.7029 264.305 20.7973 264.669C20.8916 265.034 20.9431 265.346 20.9518 265.607C20.9606 265.867 20.9548 266.233 20.9344 266.702L20.7145 271.782L24.9555 271.966L24.8893 273.495ZM19.455 271.743L19.6665 266.857C19.6817 266.508 19.684 266.223 19.6736 266.002C19.6631 265.781 19.609 265.529 19.5112 265.244C19.4034 264.959 19.2435 264.722 19.0315 264.533C18.733 264.26 18.339 264.112 17.8495 264.091C17.3999 264.072 17.0149 264.18 16.6943 264.417C16.4563 264.596 16.2705 264.844 16.1367 265.158C16.0034 265.463 15.927 265.725 15.9075 265.944C15.878 266.163 15.8549 266.467 15.838 266.857L15.6336 271.577L19.455 271.743Z" fill="white"/>
<defs>
<clipPath id="clip0_171_184">
<rect width="29.837" height="29.837" fill="white" transform="translate(32.0488 154.285) rotate(-60)"/>
</clipPath>
<clipPath id="clip1_171_184">
<rect width="29.837" height="29.837" fill="white" transform="translate(508.609 128.445) rotate(60)"/>
</clipPath>
<clipPath id="clip2_171_184">
<rect width="29.837" height="29.837" fill="white" transform="translate(293.419 555.067) rotate(-180)"/>
</clipPath>
</defs>
</svg>
