<svg width="44" height="40" viewBox="0 0 44 40" fill="none" xmlns="http://www.w3.org/2000/svg">
<path fill-rule="evenodd" clip-rule="evenodd" d="M43.0849 2.11383C41.3996 7.38984 35.2862 24.2457 33.8248 27.6454C32.9809 29.6091 31.6519 32.1551 30.8714 33.3033C30.0909 34.4515 29.4524 35.4829 29.4524 35.5953C29.4524 35.7078 30.0866 35.7957 30.8621 35.7909C32.8718 35.7786 34.8334 34.5703 36.9367 32.0502C39.5385 28.9331 40.8795 25.3442 41.6991 19.3059C42.9801 9.86867 44.1032 0.431074 43.9924 0.0328391C43.9304 -0.190125 43.5218 0.746243 43.0849 2.11383ZM10.8777 5.88911C8.86333 6.73924 5.62801 10.6552 4.26244 13.8959C3.68032 15.2778 2.92373 17.9546 2.58076 19.8444C1.94292 23.3602 -0.15536 39.8022 0.00915854 39.999C0.0589123 40.059 1.0981 37.4844 2.31773 34.2774C11.0853 11.2275 11.4293 10.4295 13.9213 7.33738C15.2122 5.7357 15.2235 5.69755 14.4683 5.45511C13.3335 5.09105 12.5431 5.18644 10.8777 5.88911ZM15.1638 8.48519C13.9634 9.45454 11.5454 13.0263 11.5427 13.8343C11.5417 14.1038 12.3245 14.8017 13.2825 15.3847C15.0835 16.4817 26.7136 21.8892 27.2712 21.8892C27.4447 21.8892 27.2029 21.3976 26.7345 20.7963C26.2659 20.195 24.3782 17.2591 22.5393 14.2719C20.7004 11.2848 18.8582 8.55712 18.4456 8.21095C17.413 7.34414 16.4803 7.42204 15.1638 8.48519ZM19.0937 23.5784C20.3472 25.3815 22.067 27.955 22.9154 29.2963C25.1354 32.8061 26.3504 33.9396 27.578 33.6455C29.0577 33.291 30.6694 31.6289 31.7762 29.3162C32.3192 28.1823 32.7644 27.0424 32.7663 26.7833C32.769 26.3668 18.2094 20.2995 17.2064 20.2995C16.9911 20.2995 17.8406 21.7748 19.0937 23.5784Z" fill="white"/>
</svg>
