<svg width="692" height="781" viewBox="0 0 692 781" fill="none" xmlns="http://www.w3.org/2000/svg">
<g filter="url(#filter0_d_275_860)">
<path d="M346.5 581C451.71 581 537 495.71 537 390.5C537 285.29 451.71 200 346.5 200C241.29 200 156 285.29 156 390.5C156 495.71 241.29 581 346.5 581Z" fill="url(#paint0_radial_275_860)"/>
</g>
<path d="M345.788 582C451.835 582 537.803 496.032 537.803 389.985C537.803 283.938 451.835 197.97 345.788 197.97C239.741 197.97 153.773 283.938 153.773 389.985C153.773 496.032 239.741 582 345.788 582Z" fill="#C27C3F"/>
<path d="M505.422 435.85C502.099 435.324 498.221 434.798 494.897 433.745C498.221 434.271 501.545 435.324 505.422 435.85Z" fill="#534741"/>
<path d="M461.215 482.162C469.636 481.461 478.056 480.759 486.477 480.057C477.53 480.759 469.636 481.461 461.215 482.162Z" fill="#534741"/>
<path d="M411.715 489.531C412.256 489.004 412.797 489.004 412.797 488.478C412.256 488.478 411.715 489.004 411.715 489.531C406.843 492.162 400.888 492.688 395.475 492.688C394.934 492.688 394.393 492.688 393.851 492.688C394.393 492.688 394.934 492.688 395.475 492.688C400.888 492.162 406.843 492.162 411.715 489.531Z" fill="#534741"/>
<path d="M398.062 265.335C401.194 265.335 403.804 264.809 406.937 264.809C425.731 264.283 444.526 263.756 463.321 263.23C444.526 263.756 425.731 263.756 406.937 264.809C404.326 265.335 401.194 265.335 398.062 265.335Z" fill="#534741"/>
<path d="M417.008 484.268C420.356 482.584 423.705 482.163 427.532 482.163C423.705 482.584 419.878 483.005 417.008 484.268Z" fill="#534741"/>
<path d="M370.695 416.903C392.997 417.324 415.818 418.166 438.12 419.008C439.676 419.008 441.232 419.008 442.269 419.008C440.713 419.008 439.157 419.008 438.12 419.008C415.299 417.745 392.997 417.324 370.695 416.903Z" fill="#534741"/>
<path d="M235.967 256.914C237.961 256.914 239.457 256.914 241.451 257.44C245.938 257.967 250.426 258.493 254.913 259.019C250.426 257.967 245.938 257.44 241.451 257.44C239.457 257.44 237.463 256.914 235.967 256.914Z" fill="#534741"/>
<path d="M286.49 269.545C291.571 270.07 296.144 270.594 301.226 270.07C296.653 270.07 291.571 270.07 286.49 269.545Z" fill="#534741"/>
<path d="M271.754 482.163C252.454 477.672 232.111 476.774 212.81 479.468C232.111 476.774 252.454 477.672 271.754 482.163Z" fill="#534741"/>
<path d="M113.87 332.699H114.921C115.447 331.997 115.447 331.296 115.973 330.595C114.921 331.296 114.395 331.997 113.87 332.699Z" fill="#534741"/>
<path d="M530.685 438.44C522.3 436.902 514.439 435.876 506.054 434.851C505.006 434.851 503.958 434.338 502.909 434.338C499.765 433.825 496.097 433.313 492.952 432.287C490.332 431.774 488.236 431.261 485.615 430.236C479.327 428.185 473.562 425.621 467.273 423.57C458.888 421.006 450.503 420.493 442.118 419.98C440.546 419.98 438.974 419.98 437.926 419.98C415.391 418.954 392.332 417.929 369.798 417.416C361.937 417.416 354.6 416.903 346.739 416.903C344.119 416.903 341.499 416.903 338.878 416.903C333.638 416.903 328.397 416.903 323.156 416.903C318.44 416.903 313.723 417.416 309.007 417.929C296.953 419.467 285.424 422.031 273.371 424.595C235.638 432.8 196.858 436.902 158.077 435.876C159.125 439.466 160.173 443.055 161.222 446.645C169.082 446.132 176.419 446.132 184.28 446.645C210.483 448.183 236.686 453.311 262.889 455.362C280.707 456.901 299.05 456.901 316.868 456.901C369.798 456.388 422.204 454.337 474.61 450.234C491.904 449.209 509.722 447.671 525.444 453.824C527.54 448.696 529.112 443.568 530.685 438.44Z" fill="#534741"/>
<path d="M235.912 256.828C238.014 256.828 239.59 256.829 241.691 257.349C246.419 257.87 251.146 258.391 255.874 258.912C259.551 259.433 262.703 260.475 266.38 261.516C271.633 263.079 276.887 265.683 282.14 267.246C284.241 267.767 286.342 268.288 288.443 268.808C293.696 269.329 298.424 269.85 303.677 269.329C306.304 269.329 308.405 269.329 311.032 268.808C328.892 268.288 347.278 267.246 365.138 266.204C376.695 265.683 388.777 265.162 400.334 264.641C403.486 264.641 406.112 264.121 409.264 264.121C428.175 263.6 447.087 263.079 465.998 262.558C474.403 262.558 482.282 262.037 490.687 262.037C454.966 223.493 403.486 197.971 345.702 197.971C291.07 197.971 241.691 220.889 206.495 256.828C209.122 256.828 211.748 256.308 214.375 256.308C221.729 256.828 229.083 256.828 235.912 256.828Z" fill="#534741"/>
<path opacity="0.6" d="M432.176 376.97C466.768 374.354 502.408 371.738 537 375.923C535.428 353.95 530.186 332.5 521.8 313.143C516.559 312.62 511.318 311.574 506.077 311.05C486.684 308.958 466.768 307.388 447.375 306.342C438.465 305.819 429.555 305.296 420.645 305.296C399.68 304.249 378.191 303.203 357.226 304.772C342.551 305.819 328.399 307.911 313.724 308.958C267.601 313.143 220.955 309.481 175.88 299.018C169.591 310.527 164.874 323.083 161.205 335.639L288.042 346.103C350.413 349.765 412.783 356.566 474.63 366.506C478.298 367.029 482.491 367.553 485.636 369.122C435.844 379.062 384.481 369.122 333.641 373.831C325.255 374.877 316.345 375.923 308.483 372.261C305.862 371.215 303.766 369.645 301.145 368.599C296.952 367.029 292.235 366.506 287.518 366.506C243.492 364.414 199.466 363.367 155.439 363.367C154.391 371.215 153.867 379.585 153.867 387.433C166.97 387.433 179.549 386.91 192.652 386.91C272.318 385.863 352.509 382.724 432.176 376.97Z" fill="#534741"/>
<path d="M486.477 371.092C436.639 381.241 385.227 371.092 334.34 375.899C325.946 376.968 317.028 378.036 309.158 374.297C306.535 373.229 304.437 371.627 301.814 370.558C297.617 368.956 292.371 368.422 288.174 368.422C244.107 366.285 200.039 365.217 155.972 365.217C157.021 355.603 159.12 345.989 161.743 336.909L288.699 347.591C351.127 351.33 413.556 358.274 475.46 368.422C479.132 368.956 482.805 369.49 486.477 371.092Z" fill="#534741"/>
<path opacity="0.8" d="M458.94 481.136C449.526 481.665 440.635 481.665 431.744 481.665C430.698 481.665 429.128 481.665 428.082 481.665C423.898 481.665 420.237 482.194 416.576 484.309C414.484 485.367 412.392 487.482 410.3 489.069C409.777 489.598 409.254 489.598 409.254 490.127C404.547 492.771 398.794 493.3 393.564 493.3C393.041 493.3 392.518 493.3 391.995 493.3C372.12 493.3 352.246 493.3 331.848 493.3C320.865 493.3 309.882 493.3 299.421 490.656C291.053 489.069 283.208 485.896 274.84 483.251C273.794 482.723 272.225 482.723 271.179 482.194C251.827 476.905 231.43 475.847 212.078 479.02C205.279 480.078 198.48 481.665 192.204 483.251C190.112 483.78 188.02 484.309 185.928 485.367C183.836 485.896 181.22 486.954 179.128 487.482C212.601 544.601 273.794 583.209 344.4 583.209C419.714 583.209 484.568 539.312 515.949 475.847C505.488 477.434 494.505 479.02 484.045 480.078C475.154 480.078 467.308 480.607 458.94 481.136Z" fill="#534741"/>
<path opacity="0.2" d="M522.264 313.752C514.382 294.762 503.347 277.882 489.684 262.585C481.276 262.585 473.394 262.585 464.986 263.112C446.069 263.64 427.151 263.64 408.234 264.695C405.081 264.695 402.453 264.695 399.3 265.222C387.74 265.75 375.654 266.277 364.093 266.805C346.226 267.86 327.834 268.387 309.968 269.442C307.341 269.442 305.239 269.442 302.611 269.97C297.356 269.97 292.101 269.97 287.372 269.442C285.27 268.915 283.168 268.915 281.066 267.86C275.811 266.277 270.557 263.64 265.302 262.057C262.149 261.002 258.47 259.947 254.792 259.42C250.063 258.365 245.333 257.837 240.604 257.837C238.502 257.837 236.925 257.837 234.824 257.31C227.992 256.782 220.635 256.782 213.804 257.31C211.177 257.31 208.549 257.31 205.922 257.837C193.836 270.497 183.326 284.74 174.918 300.565C220.11 311.115 266.878 314.28 313.121 310.587C327.834 309.532 342.023 307.422 356.736 306.367C377.756 304.785 399.3 305.84 420.32 306.895C429.253 307.422 438.186 307.95 447.12 307.95C467.088 309.005 486.531 310.587 505.974 312.697C511.754 312.17 517.009 313.225 522.264 313.752Z" fill="#534741"/>
<path d="M235.967 257.307C229.125 256.783 221.757 256.783 214.916 257.307C221.757 257.307 229.125 257.307 235.967 257.307Z" fill="#534741"/>
<path d="M265.099 261.789C262.043 260.681 258.478 259.573 254.913 259.019C258.478 259.573 262.043 260.681 265.099 261.789C270.192 263.451 275.285 266.221 280.378 267.883C282.415 268.437 284.453 268.991 286.49 269.545C284.453 268.991 282.415 268.991 280.378 267.883C275.285 266.221 270.192 263.451 265.099 261.789Z" fill="#534741"/>
<path d="M465.426 263.754C474.025 263.754 482.088 263.23 490.687 263.23C482.625 263.23 474.025 263.23 465.426 263.754Z" fill="#534741"/>
<path d="M310.699 269.078C308.067 269.078 305.962 269.078 303.331 269.546C305.962 269.546 308.594 269.546 310.699 269.078C328.592 268.61 347.012 267.674 364.906 266.739C376.484 266.271 388.589 265.803 400.167 265.335C388.589 265.803 376.484 266.271 364.906 266.739C347.012 267.674 329.119 268.61 310.699 269.078Z" fill="#534741"/>
<path d="M446.479 307.438C466.478 308.373 485.951 309.777 505.423 311.648C485.951 309.777 466.478 308.373 446.479 307.438Z" fill="#534741"/>
<path d="M467.27 424.798C458.937 422.167 450.603 421.641 442.269 421.114C450.603 421.641 458.937 422.693 467.27 424.798C473.521 426.903 479.25 429.535 485.5 431.64C488.105 432.166 490.188 433.219 492.792 433.745C490.188 433.219 488.105 432.692 485.5 431.64C479.25 430.061 473.521 426.903 467.27 424.798Z" fill="#534741"/>
<path d="M503.318 435.85C504.351 435.85 505.383 436.376 506.416 436.376C514.678 437.955 522.423 439.008 530.685 440.06C522.423 439.008 514.678 437.429 506.416 436.376C504.867 435.85 504.351 435.85 503.318 435.85Z" fill="#534741"/>
<path d="M272.756 424.522C284.746 421.982 296.214 418.935 308.203 417.919C312.894 417.411 317.586 416.903 322.277 416.903C317.586 416.903 312.894 417.411 308.203 417.919C296.214 419.443 284.746 421.982 272.756 424.522C235.225 432.649 196.651 436.712 158.077 435.696C196.651 436.712 235.225 432.649 272.756 424.522Z" fill="#534741"/>
<path d="M339.118 416.903C341.794 416.903 344.47 416.903 347.146 416.903C355.174 416.903 362.667 417.427 370.695 417.427C362.667 417.427 355.174 416.903 347.146 416.903C344.47 416.903 341.794 416.903 339.118 416.903Z" fill="#534741"/>
<path d="M191.759 387.432C178.958 387.432 166.668 387.956 153.867 387.956C166.156 387.956 178.958 387.432 191.759 387.432Z" fill="#534741"/>
<path opacity="0.3" d="M162.287 446.896C166.479 460.946 172.768 474.476 180.104 486.965C182.2 486.444 184.82 485.404 186.916 484.883C189.012 484.363 191.108 483.322 193.204 482.802C199.492 480.72 206.304 479.159 213.116 478.639C233.029 475.517 252.941 476.557 272.329 481.761C273.377 482.281 274.949 482.281 275.997 482.802C284.382 485.404 292.242 488.005 300.102 490.087C310.582 492.168 321.586 492.689 332.591 492.689C352.503 492.689 372.415 492.689 392.852 492.689C393.376 492.689 393.9 492.689 394.424 492.689C399.664 492.689 405.428 492.689 410.144 489.567C410.668 489.567 411.192 489.046 411.192 488.526C413.288 486.965 414.86 485.404 417.48 483.843C421.148 481.761 424.816 481.241 429.008 481.241C430.056 481.241 431.628 481.241 432.676 481.241C441.585 481.241 451.017 481.241 459.925 480.72C468.309 480.2 476.693 479.68 485.077 479.159C495.558 478.118 506.562 477.078 517.042 474.996C520.71 468.231 523.854 460.946 526.474 453.661C510.23 447.417 492.414 448.978 475.645 450.019C423.244 453.661 370.319 456.263 317.918 456.783C300.102 456.783 281.762 456.783 263.945 455.222C237.745 453.141 211.544 447.417 185.344 446.376C177.484 446.376 170.148 446.376 162.287 446.896Z" fill="#534741"/>
<path d="M162.287 446.769C170.182 446.245 177.55 446.245 185.444 446.769C177.55 446.245 170.182 446.245 162.287 446.769Z" fill="#534741"/>
<path d="M461.215 482.163C451.582 482.687 442.483 482.687 433.385 482.687C432.314 482.687 430.709 482.687 429.638 482.687C430.709 482.687 432.314 482.687 433.385 482.687C442.483 482.687 451.582 482.687 461.215 482.163Z" fill="#534741"/>
<path d="M417.007 484.268C414.902 485.204 412.797 487.075 410.692 488.478C412.797 487.075 414.902 485.671 417.007 484.268Z" fill="#534741"/>
<path d="M484.372 480.057C494.725 479.005 505.596 477.952 515.949 475.847C505.596 477.426 495.243 479.005 484.372 480.057Z" fill="#534741"/>
<path d="M299.404 490.182C309.839 492.187 320.794 492.688 331.75 492.688C351.575 492.688 371.4 492.688 391.746 492.688C371.921 492.688 352.097 492.688 331.75 492.688C320.794 492.187 309.839 492.187 299.404 490.182C291.057 488.678 283.232 485.671 275.406 483.165C274.363 482.664 272.797 482.664 271.754 482.163C272.797 482.664 274.363 482.664 275.406 483.165C283.232 485.17 291.057 488.177 299.404 490.182Z" fill="#534741"/>
<path d="M210.705 480.057C204.137 481.11 197.569 482.689 191.507 484.267C189.486 484.794 187.465 485.32 185.444 486.373C187.465 485.846 189.486 484.794 191.507 484.267C198.075 482.689 204.137 481.11 210.705 480.057Z" fill="#534741"/>
<g style="mix-blend-mode:soft-light">
<path d="M345.788 582C451.835 582 537.803 496.032 537.803 389.985C537.803 283.938 451.835 197.97 345.788 197.97C239.741 197.97 153.773 283.938 153.773 389.985C153.773 496.032 239.741 582 345.788 582Z" fill="url(#paint1_radial_275_860)"/>
</g>
<g style="mix-blend-mode:overlay">
<path d="M345.788 582C451.835 582 537.803 496.032 537.803 389.985C537.803 283.938 451.835 197.97 345.788 197.97C239.741 197.97 153.773 283.938 153.773 389.985C153.773 496.032 239.741 582 345.788 582Z" fill="url(#paint2_radial_275_860)"/>
</g>
<g style="mix-blend-mode:screen">
<path d="M345.788 582C451.835 582 537.803 496.032 537.803 389.985C537.803 283.938 451.835 197.97 345.788 197.97C239.741 197.97 153.773 283.938 153.773 389.985C153.773 496.032 239.741 582 345.788 582Z" fill="url(#paint3_radial_275_860)"/>
</g>
<defs>
<filter id="filter0_d_275_860" x="-44" y="0" width="781" height="781" filterUnits="userSpaceOnUse" color-interpolation-filters="sRGB">
<feFlood flood-opacity="0" result="BackgroundImageFix"/>
<feColorMatrix in="SourceAlpha" type="matrix" values="0 0 0 0 0 0 0 0 0 0 0 0 0 0 0 0 0 0 127 0" result="hardAlpha"/>
<feOffset/>
<feGaussianBlur stdDeviation="100"/>
<feComposite in2="hardAlpha" operator="out"/>
<feColorMatrix type="matrix" values="0 0 0 0 0.815686 0 0 0 0 0.533333 0 0 0 0 0.282353 0 0 0 0.35 0"/>
<feBlend mode="normal" in2="BackgroundImageFix" result="effect1_dropShadow_275_860"/>
<feBlend mode="normal" in="SourceGraphic" in2="effect1_dropShadow_275_860" result="shape"/>
</filter>
<radialGradient id="paint0_radial_275_860" cx="0" cy="0" r="1" gradientUnits="userSpaceOnUse" gradientTransform="translate(346.627 390.573) scale(190.573)">
<stop offset="0.6334" stop-color="#FF542A"/>
<stop offset="0.6516" stop-color="#EF4F27"/>
<stop offset="0.7697" stop-color="#8A2D17"/>
<stop offset="0.8649" stop-color="#40150A"/>
<stop offset="0.9326" stop-color="#120603"/>
<stop offset="0.9664"/>
</radialGradient>
<radialGradient id="paint1_radial_275_860" cx="0" cy="0" r="1" gradientUnits="userSpaceOnUse" gradientTransform="translate(296.236 344.292) scale(216.155)">
<stop stop-color="white"/>
<stop offset="0.0916549" stop-color="#F9F9F9"/>
<stop offset="0.2174" stop-color="#E7E7E7"/>
<stop offset="0.3628" stop-color="#CACACA"/>
<stop offset="0.5231" stop-color="#A2A2A2"/>
<stop offset="0.6955" stop-color="#6E6E6E"/>
<stop offset="0.8752" stop-color="#303030"/>
<stop offset="1"/>
</radialGradient>
<radialGradient id="paint2_radial_275_860" cx="0" cy="0" r="1" gradientUnits="userSpaceOnUse" gradientTransform="translate(270.948 307.232) scale(294.427)">
<stop stop-color="white"/>
<stop offset="0.0669381" stop-color="#E9E9E9"/>
<stop offset="0.3323" stop-color="#979797"/>
<stop offset="0.5676" stop-color="#565656"/>
<stop offset="0.764" stop-color="#282828"/>
<stop offset="0.9141" stop-color="#0B0B0B"/>
<stop offset="1"/>
</radialGradient>
<radialGradient id="paint3_radial_275_860" cx="0" cy="0" r="1" gradientUnits="userSpaceOnUse" gradientTransform="translate(327.192 375.248) scale(225.063)">
<stop offset="0.7677"/>
<stop offset="1" stop-color="#5E240E"/>
</radialGradient>
</defs>
</svg>
