<svg width="782" height="782" viewBox="0 0 782 782" fill="none" xmlns="http://www.w3.org/2000/svg">
<g filter="url(#filter0_d_275_1057)">
<path d="M391.003 581.003C496.488 581.003 582 495.934 582 390.997C582 286.06 496.488 200.992 391.003 200.992C285.518 200.992 200.005 286.06 200.005 390.997C200.005 495.934 285.518 581.003 391.003 581.003Z" fill="url(#paint0_radial_275_1057)"/>
</g>
<path d="M390 581.002C496.039 581.002 582 495.487 582 390C582 284.512 496.039 198.997 390 198.997C283.961 198.997 198 284.512 198 390C198 495.487 283.961 581.002 390 581.002Z" fill="#C1272D"/>
<path d="M390 581.002C496.039 581.002 582 495.487 582 390C582 284.512 496.039 198.997 390 198.997C283.961 198.997 198 284.512 198 390C198 495.487 283.961 581.002 390 581.002Z" fill="url(#paint1_radial_275_1057)"/>
<g style="mix-blend-mode:luminosity">
<path d="M266.838 505.088C272.056 505.608 275.709 510.284 279.361 513.921C283.014 517.559 289.276 520.676 293.45 517.039C289.798 511.323 292.928 503.529 298.668 499.892C304.408 496.255 311.714 496.774 318.497 497.814C325.281 498.853 331.542 500.931 338.326 500.931C329.977 505.608 328.411 518.598 335.717 524.833C339.369 527.951 343.544 528.99 348.24 529.51C363.895 531.588 379.549 527.951 395.203 526.392C403.552 525.872 412.945 525.353 420.25 521.715C428.077 517.559 433.295 508.206 430.164 500.412C408.77 499.892 387.898 499.892 366.504 499.372C368.591 498.853 370.156 498.333 372.244 498.853C381.114 491.578 381.114 477.549 375.896 467.157C371.2 456.765 362.329 448.97 353.98 441.176C350.328 437.539 346.675 432.343 349.284 427.666C360.764 433.382 372.765 439.098 384.245 444.814C393.116 433.902 392.072 415.716 404.074 408.961C413.466 403.765 425.468 408.961 431.208 417.794C436.948 426.627 437.992 437.539 438.513 447.931C447.906 452.088 458.342 455.725 468.778 457.804C472.431 458.323 476.605 458.843 479.736 456.765C485.476 452.608 483.389 443.774 484.954 437.019C487.042 429.225 494.869 424.549 502.174 421.951C509.48 419.353 517.828 417.794 524.09 413.637C536.614 404.804 539.223 387.657 544.441 373.108C547.05 365.314 550.703 358.039 552.268 350.245C553.833 342.451 552.79 333.618 547.05 327.902C541.31 322.186 530.352 321.667 525.656 327.902C530.874 332.578 531.917 341.412 527.743 347.127C514.698 348.167 501.652 346.608 490.173 341.412C488.607 340.892 487.042 339.853 487.042 338.294C487.042 337.255 487.564 336.735 487.564 336.216C494.869 322.186 504.261 305.559 495.912 292.569C491.738 285.814 484.433 282.176 477.649 278.539C475.562 277.5 472.953 276.461 470.344 277.5C468.257 278.539 467.213 282.176 464.604 282.696C463.038 283.216 461.473 282.176 459.908 281.137C454.168 277.5 448.428 273.343 444.775 268.147C441.122 262.951 439.035 255.157 442.166 249.441C443.21 247.882 444.253 246.323 444.253 244.245C444.253 242.167 442.688 241.127 441.122 240.088C433.295 234.373 423.903 231.774 414.51 231.255C417.119 225.539 416.076 218.784 412.945 213.588C410.336 208.912 405.118 203.716 408.77 199.559C408.77 199.559 408.77 199.559 409.292 199.039C403.552 198.52 397.29 198 391.55 198C338.326 198 290.319 219.824 255.358 254.637C258.489 256.196 261.62 257.755 264.229 259.833C268.925 256.716 272.056 251.52 272.578 245.804C273.1 243.206 272.578 240.608 274.665 238.529C275.709 237.49 277.274 236.971 278.84 236.451C295.016 232.294 313.279 243.725 316.41 259.833C317.453 266.069 316.932 273.343 321.106 278.02L324.237 275.422C326.324 273.863 328.933 271.784 331.021 270.225C335.195 272.823 338.848 276.461 340.935 281.137C334.151 283.735 327.368 286.853 320.584 289.451C327.89 296.206 341.457 295.686 346.675 286.853C347.718 285.294 348.762 283.216 350.327 282.696C351.893 282.176 352.937 282.696 354.502 283.216C360.242 285.814 365.46 288.931 369.634 293.608C361.807 296.206 352.415 300.882 352.937 309.196C352.937 312.833 355.024 315.951 355.024 319.588C355.024 322.186 353.98 324.784 354.502 327.382C355.024 331.539 358.676 334.137 361.285 337.255C363.895 340.372 364.416 346.088 360.242 347.647C361.807 345.569 359.198 342.451 356.589 341.931C347.718 339.853 338.326 347.647 338.848 356.48C335.717 355.441 333.63 351.284 335.195 348.167C331.542 346.608 327.89 345.049 324.237 342.97C321.106 344.529 323.193 349.725 322.15 353.363C320.584 358.039 314.323 358.559 309.626 357C304.93 354.921 301.799 351.284 296.581 350.245C305.452 348.167 309.626 336.735 307.017 327.902C305.974 325.823 304.93 323.225 302.843 322.186C298.147 318.549 291.885 320.108 286.145 321.667C288.232 328.941 288.232 337.255 286.145 344.529C282.492 341.412 279.361 338.294 275.709 335.176C274.143 341.412 274.665 347.647 276.752 353.363C269.447 354.402 262.142 356.48 254.836 358.559C254.836 364.794 254.836 371.029 254.314 377.265C249.096 377.784 244.4 373.108 242.835 367.912C241.269 362.716 241.791 357 240.747 351.804C239.704 346.608 236.573 340.892 231.355 339.853C229.268 349.206 216.222 353.882 207.352 349.206C206.308 348.686 205.264 348.167 204.221 347.127C200.568 362.196 199.003 375.706 199.003 389.735C199.003 440.657 218.831 486.902 251.705 521.196C252.227 519.117 252.749 517.039 253.793 514.961C256.402 509.764 261.098 504.568 266.838 505.088Z" fill="url(#paint2_linear_275_1057)"/>
</g>
<path d="M432.747 204.159C432.225 204.679 432.225 204.679 431.703 204.679C431.703 204.159 431.703 204.159 431.181 203.638C423.875 202.077 416.047 201.036 408.741 199.995C408.741 199.995 408.741 199.995 408.219 200.516C404.566 204.679 409.785 210.404 412.394 214.568C415.525 219.772 416.047 226.538 413.96 232.263C423.353 232.263 432.747 235.385 440.575 241.11C442.141 242.151 443.706 243.712 443.706 245.274C443.706 247.355 442.662 248.917 441.619 250.478C438.487 256.203 440.053 264.01 444.228 269.214C447.881 274.418 453.622 278.582 459.362 282.225C460.928 283.266 462.493 284.307 464.059 283.786C466.668 283.266 467.712 280.143 469.799 278.582C471.887 277.541 474.496 278.582 477.105 279.623C483.89 283.266 491.718 286.909 495.371 293.675C503.72 307.206 493.805 323.861 487.021 337.392C486.499 337.913 486.499 338.953 486.499 339.474C486.499 341.035 488.065 342.076 489.63 342.597C501.633 347.281 514.68 349.362 527.204 348.321C531.379 342.597 530.335 333.749 525.117 329.065C529.814 322.299 540.773 323.34 546.513 329.065C552.254 334.79 553.297 343.637 551.732 351.444C550.166 359.251 546.513 366.537 543.904 374.344C538.685 388.916 536.598 406.091 523.551 414.938C517.289 419.622 508.939 420.663 501.633 423.265C494.327 425.867 486.499 430.551 484.411 438.358C482.324 445.124 484.933 453.971 479.193 458.135C476.062 460.217 471.887 459.696 468.234 459.176C457.796 457.094 447.881 453.971 437.966 449.287C437.966 438.878 436.4 427.949 430.66 419.102C424.919 410.254 412.394 405.05 403.523 410.254C391.52 417.02 392.563 435.235 383.692 446.165C372.211 440.44 360.208 434.715 348.727 428.99C346.118 433.674 349.771 438.878 353.424 442.522C361.252 450.849 370.123 458.135 375.342 468.544C380.561 478.953 380.039 492.484 371.689 500.291C369.601 499.77 368.036 500.291 365.948 500.811C387.345 501.332 408.741 501.332 429.616 501.852C433.269 509.659 427.528 519.027 419.7 523.19C411.872 527.354 403.001 527.354 394.651 527.874C378.995 529.436 363.339 533.079 347.683 530.997C342.986 530.476 338.811 529.436 335.158 526.313C327.852 520.068 329.418 506.536 337.768 502.373C330.984 502.373 324.721 500.291 317.937 499.25C311.153 498.209 304.368 497.689 298.106 501.332C292.366 504.975 289.234 512.781 292.887 518.506C288.713 522.149 282.972 519.027 278.797 515.384C275.144 511.741 271.491 507.057 266.272 506.536C260.532 506.016 255.835 511.22 253.226 516.424C252.182 518.506 251.66 520.588 251.138 522.67C261.576 534.12 274.1 544.008 287.147 552.335C306.456 564.826 328.374 573.673 351.858 578.357C363.861 580.959 376.908 582 389.432 582C496.414 580.959 582 495.607 582 389.957C582 298.879 517.811 222.895 432.747 204.159Z" fill="url(#paint3_linear_275_1057)"/>
<path d="M230.715 341.808C235.95 342.852 239.091 348.594 240.138 353.814C241.185 359.034 240.662 364.776 242.232 369.996C243.803 375.217 248.514 380.437 253.75 379.393C253.75 373.128 253.75 366.864 254.273 360.6C261.602 357.99 268.932 356.424 276.261 355.38C274.167 349.638 273.643 342.852 275.214 337.11C278.878 340.242 282.019 343.374 285.684 346.506C287.255 338.676 287.255 330.846 285.684 323.537C291.443 321.971 297.725 320.405 302.437 324.059C304.531 325.625 305.578 327.713 306.625 329.801C309.766 338.676 305.578 350.16 296.154 352.248C300.866 353.814 304.531 356.946 309.242 359.034C313.954 361.122 320.236 360.078 321.807 355.38C322.854 351.726 320.76 347.028 323.901 344.94C327.565 346.506 331.23 348.072 334.894 350.16C333.847 353.292 335.418 357.468 338.559 358.512C338.559 349.638 347.982 341.808 356.359 343.896C358.976 344.418 361.594 347.55 360.023 349.638C364.211 348.594 363.164 342.852 361.07 339.198C358.453 336.066 354.788 333.456 354.265 329.279C353.741 326.669 354.788 324.059 354.788 321.449C354.788 317.795 352.694 314.663 352.694 311.009C352.17 302.657 361.594 297.959 369.446 295.349C365.258 291.173 360.023 287.519 354.265 284.908C352.694 284.386 351.647 283.864 350.076 284.386C347.982 284.908 347.459 286.996 346.412 288.563C341.177 296.915 327.565 297.959 320.236 291.173C327.042 288.563 333.847 285.952 340.653 282.82C338.559 278.644 334.894 274.468 330.706 271.858C328.089 273.424 325.995 275.512 323.901 277.078L320.76 279.688C316.571 274.468 317.618 267.682 316.048 261.418C312.907 245.236 294.584 233.229 278.355 237.927C276.784 238.449 275.214 238.971 274.167 240.015C272.596 242.103 272.596 244.714 272.073 247.324C271.549 253.066 268.408 258.286 263.696 261.418C261.079 259.33 257.938 257.764 254.797 256.198C229.668 281.254 211.868 313.619 204.016 349.638C205.063 350.16 206.11 351.204 207.157 351.726C215.533 355.902 228.097 351.204 230.715 341.808Z" fill="url(#paint4_linear_275_1057)"/>
<g style="mix-blend-mode:soft-light">
<path d="M390 581.002C496.039 581.002 582 495.487 582 390C582 284.512 496.039 198.997 390 198.997C283.961 198.997 198 284.512 198 390C198 495.487 283.961 581.002 390 581.002Z" fill="url(#paint5_radial_275_1057)"/>
</g>
<g style="mix-blend-mode:overlay">
<path d="M390 581.002C496.039 581.002 582 495.487 582 390C582 284.512 496.039 198.997 390 198.997C283.961 198.997 198 284.512 198 390C198 495.487 283.961 581.002 390 581.002Z" fill="url(#paint6_radial_275_1057)"/>
</g>
<g style="mix-blend-mode:screen">
<path d="M390 581.002C496.039 581.002 582 495.487 582 390C582 284.512 496.039 198.997 390 198.997C283.961 198.997 198 284.512 198 390C198 495.487 283.961 581.002 390 581.002Z" fill="url(#paint7_radial_275_1057)"/>
</g>
<defs>
<filter id="filter0_d_275_1057" x="0.00524902" y="0.992188" width="781.995" height="780.011" filterUnits="userSpaceOnUse" color-interpolation-filters="sRGB">
<feFlood flood-opacity="0" result="BackgroundImageFix"/>
<feColorMatrix in="SourceAlpha" type="matrix" values="0 0 0 0 0 0 0 0 0 0 0 0 0 0 0 0 0 0 127 0" result="hardAlpha"/>
<feOffset/>
<feGaussianBlur stdDeviation="100"/>
<feComposite in2="hardAlpha" operator="out"/>
<feColorMatrix type="matrix" values="0 0 0 0 0.666667 0 0 0 0 0.0392157 0 0 0 0 0.00392157 0 0 0 1 0"/>
<feBlend mode="normal" in2="BackgroundImageFix" result="effect1_dropShadow_275_1057"/>
<feBlend mode="normal" in="SourceGraphic" in2="effect1_dropShadow_275_1057" result="shape"/>
</filter>
<radialGradient id="paint0_radial_275_1057" cx="0" cy="0" r="1" gradientUnits="userSpaceOnUse" gradientTransform="translate(391.143 391.137) scale(191.138 190.145)">
<stop offset="0.7673" stop-color="#C1272D"/>
<stop offset="0.773" stop-color="#B3242A"/>
<stop offset="0.7936" stop-color="#841B1F"/>
<stop offset="0.8149" stop-color="#5B1215"/>
<stop offset="0.8366" stop-color="#3A0C0E"/>
<stop offset="0.8588" stop-color="#210708"/>
<stop offset="0.8817" stop-color="#0E0303"/>
<stop offset="0.9057" stop-color="#040101"/>
<stop offset="0.9327"/>
</radialGradient>
<radialGradient id="paint1_radial_275_1057" cx="0" cy="0" r="1" gradientUnits="userSpaceOnUse" gradientTransform="translate(315.188 307.77) scale(334.172 332.436)">
<stop stop-color="#D95E00"/>
<stop offset="0.1032" stop-color="#C04E00"/>
<stop offset="0.3045" stop-color="#953200"/>
<stop offset="0.5" stop-color="#741C00"/>
<stop offset="0.6855" stop-color="#5C0D00"/>
<stop offset="0.8566" stop-color="#4D0300"/>
<stop offset="1" stop-color="#480000"/>
</radialGradient>
<linearGradient id="paint2_linear_275_1057" x1="303.091" y1="378.289" x2="27.196" y2="427.755" gradientUnits="userSpaceOnUse">
<stop stop-color="#808080"/>
<stop offset="0.1947" stop-color="#6D6D6D"/>
<stop offset="0.5917" stop-color="#3A3A3A"/>
<stop offset="1"/>
</linearGradient>
<linearGradient id="paint3_linear_275_1057" x1="417.242" y1="456.407" x2="423.697" y2="569.818" gradientUnits="userSpaceOnUse">
<stop stop-color="#AF2A0F"/>
<stop offset="0.6573" stop-color="#BA2821"/>
<stop offset="1" stop-color="#C1272D"/>
</linearGradient>
<linearGradient id="paint4_linear_275_1057" x1="316.452" y1="286.022" x2="253.883" y2="381.89" gradientUnits="userSpaceOnUse">
<stop stop-color="#722A0F"/>
<stop offset="0.6573" stop-color="#60230D"/>
<stop offset="1" stop-color="#541F0B"/>
</linearGradient>
<radialGradient id="paint5_radial_275_1057" cx="0" cy="0" r="1" gradientUnits="userSpaceOnUse" gradientTransform="translate(340.474 344.635) scale(216.138 215.015)">
<stop stop-color="white"/>
<stop offset="0.0916549" stop-color="#F9F9F9"/>
<stop offset="0.2174" stop-color="#E7E7E7"/>
<stop offset="0.3628" stop-color="#CACACA"/>
<stop offset="0.5231" stop-color="#A2A2A2"/>
<stop offset="0.6955" stop-color="#6E6E6E"/>
<stop offset="0.8752" stop-color="#303030"/>
<stop offset="1"/>
</radialGradient>
<radialGradient id="paint6_radial_275_1057" cx="0" cy="0" r="1" gradientUnits="userSpaceOnUse" gradientTransform="translate(315.188 307.77) scale(334.172 332.436)">
<stop stop-color="#D95E00"/>
<stop offset="0.3314" stop-color="#9E3800"/>
<stop offset="0.635" stop-color="#701A00"/>
<stop offset="0.867" stop-color="#530700"/>
<stop offset="1" stop-color="#480000"/>
</radialGradient>
<radialGradient id="paint7_radial_275_1057" cx="0" cy="0" r="1" gradientUnits="userSpaceOnUse" gradientTransform="translate(381.237 389.089) scale(225.045 223.876)">
<stop offset="0.7677"/>
<stop offset="1" stop-color="#A44000"/>
</radialGradient>
</defs>
</svg>
