<svg width="784" height="784" viewBox="0 0 784 784" fill="none" xmlns="http://www.w3.org/2000/svg">
<g filter="url(#filter0_d_275_1003)">
<path d="M392 584C498.039 584 584 498.039 584 392C584 285.961 498.039 200 392 200C285.961 200 200 285.961 200 392C200 498.039 285.961 584 392 584Z" fill="#C7B19B"/>
</g>
<g style="mix-blend-mode:overlay">
<path opacity="0.4" d="M335.553 240.441C339.735 233.643 347.053 228.937 354.894 226.845C362.734 225.276 371.098 225.799 378.939 227.891C384.166 229.459 389.916 232.597 391.484 237.826C392.53 241.487 391.484 245.147 389.393 248.285C388.348 250.377 386.257 252.468 386.257 254.56C385.734 257.698 387.825 260.312 389.916 262.927C394.098 268.156 398.279 272.863 403.507 277.046C407.166 279.661 411.347 281.753 414.484 284.89C420.756 290.119 424.416 299.009 424.416 307.376C424.416 308.945 423.893 310.514 423.37 312.083C421.802 313.651 419.711 314.174 417.62 314.697C411.347 314.697 404.552 315.22 397.757 314.697C396.189 314.697 394.098 314.174 392.53 315.22C391.484 315.743 390.961 316.789 390.439 317.835C387.825 323.064 385.211 327.771 383.121 333C382.075 335.092 381.03 337.706 379.462 339.275C377.371 341.89 374.234 343.459 371.098 345.027C362.212 349.211 351.757 349.734 342.348 346.596C332.939 343.459 325.099 335.615 321.962 326.725C320.394 322.018 319.871 316.266 323.008 312.083C324.576 309.468 327.712 307.899 328.235 304.762C329.28 297.963 318.826 293.78 319.871 287.505C320.394 285.413 321.962 283.844 323.53 282.276C326.667 279.138 328.758 274.954 329.28 270.248C329.803 265.542 328.235 260.835 325.099 257.698C322.485 255.083 318.826 252.991 319.871 249.331C320.394 248.285 320.917 247.762 321.962 246.716C324.576 244.102 327.712 241.487 330.848 242.533L335.553 240.441Z" fill="#534741"/>
<path opacity="0.4" d="M281.761 253.244C286.483 251.676 291.729 251.153 295.925 253.244C300.122 255.335 303.27 260.564 301.696 265.269C301.172 266.838 299.598 268.406 299.073 270.498C298.549 272.066 299.073 273.635 299.073 275.203C298.549 278.34 295.401 279.909 294.352 282.523C293.302 284.091 293.302 286.705 292.778 288.274C292.253 294.025 291.729 299.254 291.204 305.005C291.204 306.05 291.204 307.619 291.729 308.665C292.253 309.187 293.302 309.71 294.352 309.71C300.122 310.756 306.418 312.847 311.139 317.03C315.861 320.69 319.008 326.964 319.008 332.715C319.008 333.238 319.008 334.283 318.484 334.806C317.959 335.852 316.385 335.852 315.336 336.898C314.287 337.943 314.811 340.035 315.336 341.603C317.959 348.4 320.057 355.197 322.156 362.516C322.68 363.562 322.68 364.608 322.68 366.176C322.156 367.745 321.107 368.268 320.582 369.313C316.385 373.496 311.139 377.679 305.368 378.201C296.975 379.247 290.155 372.45 284.384 366.176C282.81 364.608 281.236 362.516 279.138 361.471C274.941 358.857 269.695 359.379 266.023 362.516C262.351 365.653 261.301 370.882 263.4 375.587C264.449 378.201 267.072 380.816 269.17 382.907C274.941 389.704 277.04 399.115 279.138 407.48C279.663 410.617 280.712 413.231 281.236 416.368C281.236 417.414 281.761 418.46 281.761 419.505C281.236 421.074 280.187 422.642 278.613 423.688C273.892 427.871 269.17 431.008 263.4 433.099C257.629 435.19 251.334 434.667 246.088 432.053C242.94 430.485 240.842 427.871 238.743 425.779C234.546 421.074 229.825 415.845 230.349 410.094C230.349 408.003 230.874 405.912 230.349 404.343C229.825 402.252 228.251 400.683 226.677 399.115C223.005 395.978 219.333 392.318 215.66 389.704C213.037 387.612 210.414 385.521 208.316 382.907C206.218 380.293 205.168 376.633 206.742 373.496C207.267 371.927 208.316 370.882 209.365 369.313C213.037 364.608 214.087 358.334 215.66 352.583C216.71 347.877 217.759 343.172 218.284 338.466C218.808 335.329 218.808 332.715 219.333 329.578C219.857 328.009 219.857 326.964 220.382 325.918C224.054 315.461 228.776 305.005 235.071 295.594C238.219 290.888 241.366 286.183 246.088 283.568C250.809 280.954 257.105 279.909 261.826 283.568C263.924 285.137 266.547 288.274 269.17 286.705C271.794 280.431 274.941 273.112 272.318 266.838C271.794 265.269 270.744 264.224 270.744 262.655C270.22 258.995 274.417 255.858 278.089 254.29L281.761 253.244Z" fill="#534741"/>
<path opacity="0.4" d="M251.335 458.99C247.679 455.338 243.501 451.686 239.845 448.033C237.234 445.424 233.578 442.815 229.922 443.859C230.444 447.511 230.967 451.686 231.489 455.338C232.011 457.947 232.011 460.556 233.578 462.643C234.622 464.208 236.712 465.773 238.278 466.817C245.59 472.556 251.335 479.861 255.513 487.688C252.379 486.644 248.724 485.079 246.112 482.992C243.501 480.905 241.934 477.774 238.801 476.209C236.189 474.643 231.489 474.643 229.922 477.774C231.489 479.339 232.533 480.905 234.1 482.47C238.801 488.209 244.023 493.949 251.335 494.992C253.946 494.992 257.08 495.514 257.602 497.601C258.124 499.166 256.035 500.732 254.991 502.297C251.335 506.993 252.902 513.254 254.468 518.994C254.991 520.037 254.991 521.081 256.035 521.603C257.08 522.124 258.124 522.124 258.647 521.603C263.347 520.559 267.003 516.907 268.57 512.732C276.926 517.428 284.76 522.646 292.071 528.385C296.772 532.038 300.95 536.212 305.65 539.343C308.784 541.43 312.44 542.995 316.095 544.56C319.751 546.126 323.929 547.691 327.585 549.256C332.808 551.343 337.508 553.43 343.253 553.952C348.476 554.474 354.22 553.43 358.399 549.778C361.01 547.691 362.577 544.56 362.577 541.43C362.577 537.256 360.488 533.603 358.399 529.951C354.22 523.168 350.042 516.385 343.775 511.689C338.03 507.515 331.241 505.949 324.452 506.471C322.362 500.732 327.585 494.471 333.33 491.34C339.075 488.731 345.342 487.688 351.087 485.079C356.832 482.47 361.532 476.209 359.443 469.947C358.921 467.86 357.354 465.773 356.832 463.686C355.787 460.556 357.354 456.903 357.354 453.251C357.876 446.468 353.698 439.163 346.909 436.554C343.253 434.989 339.597 434.989 335.941 435.511C330.719 435.511 325.496 436.554 320.273 437.076C316.618 437.598 312.44 438.12 309.828 440.207C306.695 442.815 305.65 447.511 308.261 450.12C306.172 450.12 304.606 450.642 302.517 449.598C300.427 448.555 299.383 446.99 299.905 444.903C300.427 443.859 300.95 442.815 301.994 442.294C306.695 438.12 310.873 433.424 315.051 429.249C316.618 427.162 318.707 425.075 320.273 423.51C322.362 420.901 324.452 418.814 326.541 416.205C330.719 410.988 335.419 406.292 338.553 400.03C339.075 398.987 339.597 397.422 339.597 396.378C339.597 394.291 338.03 392.726 336.464 391.682C331.763 388.552 325.496 387.508 319.751 389.595C314.529 391.682 309.828 395.856 308.261 401.596C307.739 402.639 307.739 403.683 307.217 404.726C306.695 405.77 305.65 406.813 305.128 407.335C298.338 415.162 299.383 427.684 292.594 436.032C288.938 440.207 284.237 442.815 279.015 445.424C276.926 446.468 274.837 448.033 275.359 450.12C275.359 450.642 276.403 451.164 276.926 451.686C280.582 455.86 280.059 461.599 279.537 466.817C279.537 467.86 279.537 468.382 279.015 468.904C277.97 470.469 276.403 470.469 274.837 469.947C273.27 469.426 272.225 468.382 271.181 467.339C267.525 463.686 263.869 460.556 259.691 456.903L251.335 458.99Z" fill="#534741"/>
<path opacity="0.4" d="M482.503 426.61C476.224 429.749 470.991 433.934 468.898 440.735C467.329 447.012 468.898 454.336 473.085 459.567C479.364 467.414 489.829 470.03 496.631 477.354C497.155 477.877 498.201 478.923 498.201 479.969C498.725 483.108 495.585 485.201 492.445 486.247C486.689 488.863 480.934 492.525 477.271 497.756C473.608 502.987 471.515 509.788 473.608 516.065C475.701 522.343 481.98 527.051 488.259 526.005C492.445 525.482 495.585 522.866 499.248 520.774C508.143 514.496 517.039 507.695 521.748 498.279C523.318 495.14 524.365 492.001 526.458 489.386C529.597 485.724 533.783 483.631 537.969 481.016C552.098 472.123 560.47 453.813 554.191 438.642C553.144 436.027 551.574 433.934 550.528 431.319C547.388 423.995 548.435 415.625 550.005 407.778C552.098 399.408 555.76 391.561 558.377 383.191C560.993 374.821 563.086 366.451 561.516 357.557C559.947 349.187 554.714 340.817 546.342 338.202C544.249 337.678 542.156 337.155 540.063 336.109C534.83 332.447 535.876 325.123 535.353 318.846C534.83 310.999 531.69 303.152 528.027 295.828C525.411 290.074 522.795 284.843 518.085 280.657C514.946 278.042 510.76 276.472 506.574 274.903C502.911 274.38 498.725 272.811 493.492 272.811C488.782 272.811 484.073 274.903 481.457 279.088C478.84 283.273 478.84 289.028 480.933 293.736C482.503 298.444 485.12 303.152 486.689 307.86C488.259 311.522 488.782 315.707 491.399 318.846C494.015 321.985 498.201 323.554 501.864 325.123C507.097 327.216 512.853 329.308 518.085 331.401C524.365 333.493 531.167 336.632 533.783 342.91C533.783 343.433 534.307 343.956 534.307 345.002C533.783 346.049 532.737 346.572 532.214 347.095C524.365 351.28 521.225 361.219 521.225 370.636C521.225 374.298 521.748 378.483 523.841 381.621C525.934 384.237 529.074 385.806 531.69 387.899C541.109 395.746 541.632 410.917 536.923 422.425C535.353 426.61 532.214 431.319 527.504 431.842C521.225 432.365 517.039 426.087 511.283 424.518C503.957 422.425 493.492 422.948 486.166 425.564C484.596 426.087 483.55 426.087 482.503 426.61Z" fill="#534741"/>
<path opacity="0.4" d="M430.189 425.504C420.821 428.111 401.564 437.498 410.932 450.535C411.973 451.578 413.014 452.621 414.055 453.664C415.616 455.228 417.178 457.314 418.739 459.4C419.26 460.443 419.78 461.486 419.78 462.529C419.78 463.572 418.739 464.615 417.698 465.658C413.534 469.308 407.289 469.829 402.084 471.394C393.236 474.001 386.47 483.388 389.072 492.774C389.593 494.86 390.634 496.425 391.154 497.989C391.675 499.554 392.195 500.597 392.195 502.161C393.236 505.811 393.236 510.505 395.318 513.634C396.359 515.719 398.441 516.762 399.482 519.37C400.002 520.934 400.523 523.542 402.084 524.585C403.646 525.627 406.248 525.106 408.33 524.063C413.014 521.977 417.698 519.37 421.341 515.719C424.985 512.069 427.067 506.854 426.546 502.161C426.026 497.989 423.944 494.86 420.821 492.253C418.219 489.646 414.575 487.56 416.657 483.388C422.382 471.394 440.599 474.001 451.008 474.523C452.049 474.523 452.569 474.523 453.61 474.523C455.692 473.48 455.692 470.351 454.651 468.265C453.09 466.179 451.008 465.136 449.447 463.05C447.365 460.443 447.365 456.793 447.885 453.142C448.406 448.97 448.926 444.799 449.967 440.105C450.488 436.455 452.049 433.326 450.488 429.676C448.926 426.025 445.283 423.939 441.119 423.418C436.955 423.939 433.833 424.461 430.189 425.504Z" fill="#534741"/>
<path opacity="0.4" d="M384.52 200C384.021 200 383.522 200.57 383.023 200.57C381.527 201.14 380.031 201.14 378.535 200.57C380.031 200.57 381.029 200.57 382.525 200.57C383.023 200 383.522 200 384.52 200Z" fill="#534741"/>
<path opacity="0.4" d="M507.2 237.874C501.953 239.949 496.182 241.505 490.935 242.024C488.311 242.543 485.163 242.543 483.064 240.468C482.54 239.949 482.015 239.43 481.49 238.911C480.966 238.392 479.916 238.392 479.392 238.392C470.472 237.874 461.552 239.949 453.682 244.099C446.861 247.731 441.089 253.438 433.744 256.551C426.398 259.664 416.954 260.183 411.707 254.476C410.133 252.919 409.083 250.844 409.608 248.769C410.133 245.137 414.33 243.062 414.855 239.43C415.38 237.355 414.33 234.761 413.806 232.685C411.707 226.978 409.083 221.271 405.935 215.564C404.361 213.489 402.787 210.895 402.262 208.82C401.213 206.226 401.213 203.113 402.262 201.038L402.787 200C441.614 202.075 477.817 216.083 507.2 237.874Z" fill="#534741"/>
<path opacity="0.4" d="M383.522 203.1C383.522 203.626 382.476 204.152 381.953 204.677C375.155 211.511 365.743 215.19 356.331 217.293C346.918 219.396 337.506 220.447 328.094 223.601C324.956 224.652 322.341 225.703 320.25 227.806C317.635 229.909 316.067 232.537 313.975 234.64C309.269 238.845 302.994 239.371 296.719 239.371C290.444 239.371 284.692 238.319 278.417 239.371C277.371 239.371 276.848 239.896 275.802 239.896C305.085 217.819 340.12 203.626 378.816 200.998C380.385 200.998 381.43 200.998 382.999 200.998C382.999 200.998 382.999 200.998 382.999 201.523C383.522 201.523 383.522 202.049 383.522 203.1Z" fill="#534741"/>
<path d="M385.517 200C384.992 200 384.467 200.519 383.942 200.519C383.942 201.037 383.942 201.556 383.942 202.593C383.942 203.112 382.892 203.631 382.367 204.149C375.543 210.892 366.094 214.522 356.645 216.597C347.196 218.671 337.746 219.709 328.297 222.821C325.148 223.858 322.523 224.895 320.423 226.97C317.798 229.044 316.224 231.638 314.124 233.712C309.399 237.861 303.1 238.38 296.8 238.38C290.501 238.38 284.727 237.343 278.427 238.38C277.377 238.38 276.852 238.899 275.802 238.899C305.2 217.115 340.371 203.112 379.217 200.519C380.792 200.519 381.842 200.519 383.417 200.519C383.942 200 384.467 200 385.517 200Z" fill="#C7B19B"/>
<path d="M507.2 237.874C501.953 239.949 496.182 241.505 490.935 242.024C488.311 242.543 485.163 242.543 483.064 240.468C482.54 239.949 482.015 239.43 481.49 238.911C480.966 238.392 479.916 238.392 479.392 238.392C470.472 237.874 461.552 239.949 453.682 244.099C446.861 247.731 441.089 253.438 433.744 256.551C426.398 259.664 416.954 260.183 411.707 254.476C410.133 252.919 409.083 250.844 409.608 248.769C410.133 245.137 414.33 243.062 414.855 239.43C415.38 237.355 414.33 234.761 413.806 232.685C411.707 226.978 409.083 221.271 405.935 215.564C404.361 213.489 402.787 210.895 402.262 208.82C401.213 206.226 401.213 203.113 402.262 201.038L402.787 200C441.614 202.075 477.817 216.083 507.2 237.874Z" fill="#C7B19B"/>
</g>
<g style="mix-blend-mode:screen">
<path opacity="0.4" d="M432.07 351.973C427.352 362.472 422.634 373.496 418.965 384.52C425.255 377.695 431.022 370.871 437.312 364.047C437.836 363.522 438.885 362.472 439.409 362.472C439.933 362.472 440.458 362.472 440.982 362.997C445.7 365.096 449.893 368.246 454.087 371.921C454.087 369.296 453.563 366.671 452.515 364.047C457.757 365.621 462.475 368.771 466.668 372.446C469.289 375.07 471.911 378.745 475.58 380.32C479.25 381.895 484.492 380.32 485.016 376.645C485.54 373.496 482.919 370.346 483.968 367.196C485.54 362.472 494.976 364.047 497.073 359.322C494.976 357.747 493.403 355.647 494.452 353.548C494.976 352.498 496.549 351.973 497.597 351.448C498.646 350.923 500.218 349.873 500.218 348.823C500.218 347.248 498.121 346.723 496.549 346.198C492.355 345.148 490.258 341.474 487.113 338.849C481.346 333.6 472.959 332.025 465.62 334.649C468.241 333.075 471.386 332.025 474.532 331.5C475.58 331.5 477.153 331.5 478.201 330.975C479.25 330.45 480.298 328.875 479.774 327.825C479.25 327.3 478.725 326.775 478.201 326.775C476.104 325.725 474.007 324.675 471.386 324.15C476.628 320.476 481.871 317.326 486.589 313.651C478.725 314.176 471.386 315.226 464.047 317.326C462.999 306.302 470.338 295.803 468.765 284.779C462.475 286.354 457.232 291.604 455.136 297.903C455.136 298.953 454.611 299.478 454.087 300.003C453.563 300.528 453.039 301.053 451.99 301.578C449.893 303.153 448.321 305.252 447.272 307.877C447.797 304.727 447.272 301.053 445.7 297.903C443.079 298.428 442.554 301.578 442.03 303.677C441.506 306.302 440.982 309.452 438.885 309.977C437.312 310.502 435.74 309.452 434.691 308.927C432.594 307.877 431.022 306.302 428.925 305.252C429.449 307.352 429.973 309.452 429.973 311.552C429.973 312.077 429.973 312.602 429.973 313.127C429.449 314.701 426.828 314.176 425.255 313.651C419.489 311.552 413.198 311.552 406.908 311.552C400.617 311.552 393.802 311.552 387.512 311.552C393.278 312.602 398.52 314.701 403.762 317.851C405.859 318.901 407.432 320.476 409.529 321.526C411.626 322.576 413.723 323.101 415.819 323.101C419.489 324.15 423.158 324.675 426.304 325.725C421.062 327.825 415.295 327.825 410.053 326.25C412.15 327.3 414.247 327.825 416.868 328.35C415.295 328.875 413.723 329.4 412.674 330.45C412.15 330.975 411.101 330.975 411.101 332.025C410.577 333.075 412.15 334.124 413.198 334.649C417.392 336.224 420.537 338.849 423.683 342.524C420.537 343.049 418.44 345.673 416.868 348.298C415.295 350.923 414.247 354.073 412.15 356.697C409.529 359.847 405.335 361.947 403.762 366.146C409.529 360.897 416.344 356.172 423.158 351.973C423.683 358.272 415.295 362.472 416.344 368.246C419.489 362.472 423.683 357.222 428.401 351.973H432.07Z" fill="url(#paint0_radial_275_1003)"/>
<path opacity="0.4" d="M381.286 407.271C397.027 415.141 412.244 424.586 426.41 435.08C417.491 421.438 400.7 416.191 389.157 405.172C387.058 403.073 384.959 399.4 386.533 396.777C387.058 395.727 388.632 394.678 389.681 394.153C394.404 392.054 398.601 389.431 403.324 387.332C397.027 387.857 390.731 389.431 384.959 393.104C384.434 390.48 383.91 387.332 383.385 384.709C381.811 384.709 379.712 385.758 378.663 386.807C377.613 383.134 373.94 380.511 370.268 381.036C360.823 369.492 353.477 355.325 350.329 340.634C349.804 353.227 352.952 366.344 359.774 377.363C360.823 378.937 361.348 381.036 359.774 381.56C359.249 381.56 358.724 381.56 358.199 381.036C355.576 379.462 352.952 376.838 350.854 374.739C341.409 366.869 328.292 365.819 315.699 365.819C324.619 367.918 333.014 371.066 341.409 374.215C348.755 376.838 356.625 380.511 361.348 386.807C355.576 386.283 349.804 386.283 344.033 386.807C347.181 386.283 350.329 387.332 352.952 388.381C347.705 389.431 342.983 391.005 338.261 393.104C342.983 392.579 348.23 392.054 352.952 391.53C355.051 391.53 357.15 391.005 358.724 392.054C356.101 394.153 353.477 396.252 350.854 398.351C352.428 398.351 354.527 398.351 356.101 398.351C355.051 399.925 354.002 401.499 352.952 403.598C354.527 403.598 355.576 404.122 357.15 404.122C357.15 407.271 356.625 409.894 356.101 413.042C357.675 412.518 359.249 411.993 360.298 410.419C356.625 417.765 357.15 426.16 357.15 434.03C357.675 439.802 357.675 445.574 358.199 451.345C362.397 447.673 362.922 441.901 362.922 436.654C363.446 427.209 363.446 417.765 363.971 408.845C367.644 415.141 372.891 420.913 378.663 426.16C376.039 421.438 373.94 416.191 373.94 410.419C377.089 417.24 381.811 423.536 386.533 429.308C386.533 420.913 378.138 414.092 378.663 405.697L381.286 407.271Z" fill="#BEA289"/>
<path opacity="0.4" d="M221.759 357.39C216.009 355.819 210.781 353.725 205.031 352.154C211.827 352.154 218.1 352.678 224.896 352.678C223.328 346.918 226.464 341.158 228.555 335.921C230.123 330.685 230.646 324.401 233.783 319.688C231.169 329.638 228.555 339.063 225.941 349.012C228.555 345.87 231.169 342.205 233.26 338.539C232.215 341.681 231.169 344.823 229.601 347.965C233.26 347.441 237.442 347.441 241.101 347.965L267.762 346.394C275.604 345.87 283.445 345.347 290.764 344.823C290.764 345.347 289.718 345.87 289.195 345.87C271.944 348.488 254.17 349.012 237.965 355.296C236.919 355.819 237.442 357.914 238.488 357.914C239.533 357.914 240.056 355.819 238.488 355.296H282.4C283.445 356.343 284.491 357.39 285.536 358.961C280.831 357.914 275.604 357.914 270.899 358.438C275.604 358.438 279.786 361.579 281.354 365.768C279.786 366.816 277.695 367.339 276.126 367.863C275.604 367.863 274.558 368.387 274.035 368.387C272.467 368.387 271.422 367.863 270.376 367.339C268.285 366.816 266.194 366.292 264.103 365.768C256.262 364.198 247.897 362.103 240.056 360.532C242.67 365.245 245.806 369.434 248.42 374.147L245.806 380.954C244.761 379.383 243.715 377.812 243.192 375.718C244.238 376.241 244.761 377.288 244.761 378.336C246.852 386.714 248.943 395.092 251.034 403.47C246.329 399.805 245.284 393.521 243.715 387.761C242.147 380.954 239.01 374.147 235.351 368.387C234.306 369.958 234.828 372.576 235.874 374.67C234.828 373.099 232.737 371.005 231.169 372.052C230.123 372.576 230.123 374.67 228.555 374.67C228.032 374.67 227.51 374.147 226.987 374.147C224.896 373.099 222.282 374.147 220.714 375.718C219.146 377.288 218.1 379.907 216.532 381.478C214.963 383.048 213.395 383.572 211.827 385.143C208.69 387.238 206.077 390.903 205.031 395.092C204.508 386.714 208.69 378.336 215.486 373.623C216.532 372.576 218.1 372.052 218.623 370.481C219.146 368.91 219.146 367.339 217.577 366.816C214.441 369.434 211.304 371.528 208.168 373.623C209.213 372.052 210.781 370.481 211.827 368.91C210.781 368.91 209.736 369.434 208.69 368.91C207.645 368.387 206.599 367.339 207.122 366.292C209.736 364.721 212.35 364.198 215.486 363.674C216.009 363.674 217.054 363.674 217.577 363.15C218.1 362.627 218.1 362.103 218.1 361.579C218.623 360.008 219.146 358.438 219.146 356.867L221.759 357.39Z" fill="url(#paint1_radial_275_1003)"/>
<path opacity="0.4" d="M278.415 503.867C279.46 507.507 282.072 510.627 285.729 512.187L291.476 495.027C291.999 493.467 291.476 491.907 289.909 491.387C288.864 490.347 287.297 490.347 285.729 489.827C288.341 489.827 290.431 488.787 292.521 487.747C289.386 486.707 285.729 486.187 282.595 486.187C283.117 483.067 286.252 481.506 289.386 480.466C299.313 476.306 309.239 472.146 319.688 467.986C318.121 467.986 316.554 467.986 314.986 467.466C316.554 465.906 318.121 464.346 319.688 463.826C312.897 463.826 306.105 465.906 300.358 469.026C306.105 465.906 312.374 462.786 318.121 460.186C313.419 460.186 309.239 462.266 305.06 464.346C296.178 468.506 286.774 472.666 279.982 479.946V477.346C279.982 476.826 279.982 475.786 279.982 475.266C277.893 476.826 276.325 478.386 274.235 479.426C274.758 476.306 275.28 473.186 275.28 470.066C272.668 472.666 271.101 475.786 271.101 479.426C266.399 475.266 263.264 469.546 261.174 463.306C262.219 470.066 263.264 476.826 264.831 483.587C253.86 472.666 242.888 462.266 231.917 451.346C235.574 457.066 237.664 463.826 241.844 469.026C243.933 471.106 246.023 473.186 248.113 475.266C253.86 480.466 259.607 485.147 264.831 490.347C253.86 489.827 243.411 487.747 232.439 486.187C234.529 492.427 244.456 492.427 250.203 493.467C254.905 494.507 260.129 496.067 264.831 497.107C265.354 497.107 265.876 497.627 266.399 497.627C266.399 498.147 265.354 498.667 264.831 499.187C259.607 502.827 255.427 506.987 251.248 512.187C253.337 511.147 255.427 510.107 257.517 508.547C258.562 507.507 259.607 506.467 260.652 505.947C262.741 504.387 265.354 503.347 267.444 502.307C267.966 502.307 268.488 501.787 268.488 501.787C270.056 501.787 270.578 503.867 270.578 504.907C272.146 512.187 279.982 508.547 278.415 503.867Z" fill="url(#paint2_radial_275_1003)"/>
<path opacity="0.4" d="M433.303 522.383C430.686 506.683 428.07 490.46 432.257 475.283C432.78 490.983 433.827 506.683 434.35 521.859C437.491 519.243 440.631 516.626 444.295 513.486C442.724 516.626 441.678 519.243 440.107 522.383C442.201 521.336 444.295 520.813 446.388 520.813C445.341 520.813 443.771 521.336 443.248 522.906C447.435 522.383 452.145 521.859 456.333 521.859C448.482 524.999 443.248 534.419 444.818 542.793C444.295 543.316 442.724 543.316 442.724 542.269C444.295 548.026 445.341 554.306 445.865 560.062C444.818 555.876 443.248 551.166 441.154 547.503C440.631 546.456 440.107 545.933 439.061 545.409C438.537 545.409 437.491 545.933 436.967 545.933C435.397 546.979 433.827 548.026 432.257 549.073C431.733 547.503 431.21 546.456 429.64 545.933C426.499 544.363 422.836 546.456 419.695 548.549C414.985 551.689 410.274 555.352 405.564 559.016C409.751 551.689 416.555 546.456 424.406 543.316C417.602 542.269 410.274 541.746 403.47 542.269C410.798 539.653 418.125 538.083 425.453 537.036C425.453 535.989 425.453 534.943 424.929 534.419C422.312 534.419 420.219 533.896 418.125 533.373C420.742 533.373 422.836 533.373 425.453 533.373C425.453 532.326 425.453 531.803 425.453 530.756C421.265 526.046 416.555 521.859 412.368 517.149C416.555 520.289 420.742 522.906 424.929 526.046C426.499 527.093 429.116 528.663 430.686 527.093C431.21 525.523 431.733 523.953 432.257 522.906L433.303 522.383Z" fill="url(#paint3_radial_275_1003)"/>
<path opacity="0.4" d="M357.719 248.056C360.342 241.809 365.064 236.082 370.834 231.917C367.687 237.123 365.064 242.85 362.441 249.098C365.064 249.098 367.687 249.098 370.31 249.098C369.785 250.139 369.261 251.18 368.736 252.221C371.359 253.783 373.982 255.345 377.13 256.386C376.081 256.907 375.031 257.427 373.982 257.948C373.982 261.592 377.654 263.154 380.802 264.716C386.573 267.84 391.819 272.005 395.491 277.732C389.72 272.005 381.851 268.881 373.457 268.881C376.605 271.484 377.654 275.649 377.13 279.294C375.031 278.773 372.933 277.732 370.834 277.211C358.768 282.938 350.899 296.474 351.424 309.49C348.801 299.077 350.899 287.624 357.195 278.773C338.833 290.227 325.718 308.448 314.701 326.67C314.701 319.382 317.324 312.093 321.521 306.366C325.718 300.119 330.964 295.433 336.21 290.227C340.932 286.062 345.653 281.376 350.375 277.211C339.358 277.732 327.817 277.211 316.8 275.129C323.62 273.046 330.964 270.964 338.309 269.922C332.013 269.922 325.718 269.402 319.423 268.361C322.046 268.361 324.669 267.84 327.292 267.84C325.718 266.799 323.62 265.757 322.046 264.716C327.817 264.716 334.112 264.196 339.883 264.196C333.587 257.948 327.817 250.659 323.62 242.329C329.39 245.453 335.161 249.098 340.932 252.221C341.981 248.056 343.03 243.371 343.555 239.206C345.129 240.247 346.178 242.329 346.702 243.891C347.227 245.974 347.752 248.056 349.85 249.098C351.424 250.139 354.572 250.139 354.572 248.056H357.719Z" fill="url(#paint4_radial_275_1003)"/>
</g>
<path d="M371.494 265.31C371.494 265.829 371.494 266.347 371.494 266.866C371.494 267.384 371.494 267.903 372.022 268.422C372.551 268.94 372.551 269.459 372.551 269.978C372.551 270.496 372.551 271.015 372.551 271.534C372.551 272.571 371.494 273.09 370.437 273.608C369.381 274.127 368.324 274.646 367.796 275.164C367.268 275.683 366.211 276.202 365.154 276.202C364.626 276.202 364.098 276.72 363.569 276.72C363.041 277.239 362.513 277.239 362.513 277.757C361.985 278.795 360.928 278.795 359.871 278.795C359.343 278.795 358.815 278.276 358.286 278.276C357.758 278.276 357.23 278.276 356.702 278.276C356.173 278.276 355.117 278.276 354.06 278.276C353.532 278.276 353.532 278.276 353.003 278.276C352.475 278.276 351.947 278.276 351.418 278.276C350.89 278.276 350.362 278.276 349.834 277.757C349.305 277.757 348.777 277.239 348.777 277.239C348.249 276.72 348.249 276.72 347.72 276.202C347.192 275.683 347.192 275.164 347.192 274.646C347.192 274.127 346.664 273.608 346.664 273.09C346.664 272.571 346.135 272.052 345.607 271.534C345.079 271.015 344.551 269.459 344.022 268.94C343.494 267.903 343.494 266.866 344.022 265.829C344.022 265.31 344.551 264.791 344.551 264.273C344.551 263.754 345.079 263.235 345.079 262.717C345.079 262.198 345.607 261.679 346.135 261.161C346.664 260.642 346.664 260.123 347.192 259.605C347.72 259.086 347.72 259.086 348.249 258.567C348.777 258.049 349.305 258.049 349.305 257.53C349.834 257.53 349.834 257.011 350.362 256.493C350.89 255.974 350.89 255.456 350.89 254.937C351.418 253.9 351.947 253.381 353.003 253.9C353.532 253.9 354.06 253.9 354.588 253.9C355.117 253.9 355.645 253.9 356.173 253.381C357.23 252.862 358.286 252.862 359.343 252.862C360.4 252.862 361.985 253.381 362.513 253.381C363.569 253.381 364.626 253.9 365.154 254.937C365.683 255.974 366.739 256.493 367.796 257.011C368.853 257.53 369.381 258.567 369.909 259.605C369.909 260.642 370.437 261.679 370.966 262.717C372.022 263.235 372.022 264.791 371.494 265.31Z" fill="url(#paint5_radial_275_1003)"/>
<path opacity="0.7" d="M350.555 459.345C350.555 459.876 350.555 460.408 350.555 461.47C350.555 462.001 351.08 463.064 351.08 463.595C351.08 464.126 351.605 464.658 351.605 465.189C351.605 465.72 351.605 466.251 351.605 466.783C351.605 467.845 351.08 468.908 350.03 469.439C349.505 469.97 348.98 469.97 348.455 470.502C347.931 471.033 347.406 471.033 346.881 471.564C347.406 472.095 346.881 472.095 346.356 472.627C345.831 473.158 345.306 473.158 344.781 473.158C344.256 473.158 343.731 473.689 343.206 473.689C342.681 474.221 342.156 474.221 341.631 474.752C341.106 475.283 340.581 475.283 340.056 475.283C339.531 475.283 339.006 475.283 338.481 474.752C337.957 474.221 337.432 474.221 336.907 473.689C336.382 473.689 335.857 473.158 335.332 473.158C334.282 473.158 333.232 472.627 332.182 472.627C331.657 472.627 331.132 472.627 330.607 472.627C330.082 472.627 329.557 472.627 329.032 472.095C328.507 472.095 327.982 471.564 327.458 471.564C326.933 471.033 326.408 471.033 326.408 470.502C325.883 469.97 325.883 469.97 325.358 469.439C324.833 468.908 324.833 468.377 324.308 468.377C324.308 467.845 323.783 467.314 323.783 466.783C323.783 466.251 323.258 465.72 323.258 465.189C323.258 464.658 322.733 464.126 322.733 463.595C322.733 463.064 322.208 462.533 322.208 462.001C322.208 461.47 322.208 460.939 321.683 460.408C321.683 459.876 321.683 459.345 321.683 458.814C321.683 458.282 321.683 457.751 321.683 457.22C321.683 456.689 321.683 456.157 321.683 455.626C321.683 455.095 321.683 454.564 322.208 454.032C322.208 453.501 322.733 452.97 323.258 452.97C323.783 452.438 324.308 452.438 324.308 451.907C324.833 451.376 325.358 451.376 325.883 451.376C326.408 451.376 326.933 450.845 326.933 450.313C327.458 449.782 327.982 449.251 327.982 448.72C328.507 447.657 329.557 447.126 330.607 447.657C331.132 447.657 331.657 447.657 332.182 447.657C332.707 447.657 333.232 447.126 333.757 447.126C334.282 446.595 334.807 446.595 335.332 446.595C335.857 446.595 336.382 446.063 336.907 446.595C337.432 446.595 337.957 446.595 338.481 446.595C339.006 446.595 339.531 446.595 340.056 446.595C341.106 446.595 342.156 446.595 343.206 447.657C343.731 448.188 343.731 448.188 344.256 448.72C344.781 449.251 345.306 449.251 345.831 449.782C346.881 450.313 347.406 451.376 347.406 452.438C347.406 452.97 347.931 453.501 347.931 454.032C347.931 454.564 348.455 455.626 348.455 455.626C348.455 456.157 348.98 456.689 348.98 457.751C350.555 458.282 350.555 458.814 350.555 459.345Z" fill="url(#paint6_radial_275_1003)"/>
<path opacity="0.7" d="M503.16 442.389C503.16 442.921 503.16 443.452 503.16 444.515C503.16 445.046 503.684 446.108 503.684 446.64C503.684 447.171 504.208 447.702 504.208 448.233C504.208 448.765 504.208 449.296 504.208 449.827C504.208 450.89 503.684 451.952 502.636 452.484C502.112 453.015 501.588 453.015 501.063 453.546C500.539 454.077 500.015 454.077 499.491 454.609C498.967 455.14 498.443 455.14 497.919 455.671C497.395 456.202 496.871 456.202 496.347 456.202C495.823 456.202 495.299 456.734 494.775 456.734C494.251 457.265 493.727 457.265 493.203 457.796C492.679 458.328 492.154 458.328 491.63 458.328C491.106 458.328 490.582 458.328 490.058 457.796C489.534 457.265 489.01 457.265 488.486 456.734C487.962 456.734 487.438 456.202 486.914 456.202C485.866 456.202 484.818 455.671 483.77 455.671C483.245 455.671 482.721 455.671 482.197 455.671C481.673 455.671 481.149 455.671 480.625 455.14C480.101 455.14 479.577 454.609 479.053 454.609C478.529 454.077 478.005 454.077 478.005 453.546C477.481 453.015 477.481 453.015 476.957 452.484C476.433 451.952 476.433 451.421 475.909 451.421C475.909 450.89 475.385 450.358 475.385 449.827C475.385 449.296 474.861 448.765 474.861 448.233C474.861 447.702 474.336 447.171 474.336 446.64C474.336 446.108 473.812 445.577 473.812 445.046C473.812 444.514 473.812 443.983 473.288 443.452C473.288 442.921 473.288 442.389 473.288 441.858C473.288 441.327 473.288 440.796 473.288 440.264C473.288 439.733 473.288 439.202 473.288 438.671C473.288 438.139 473.288 437.608 473.812 437.077C473.812 436.545 474.336 436.014 474.861 436.014C475.385 435.483 475.909 435.483 475.909 434.952C476.433 434.42 476.957 434.42 477.481 434.42C478.005 434.42 478.529 433.889 478.529 433.358C479.053 432.827 479.577 432.295 479.577 431.764C480.101 430.701 481.149 430.17 482.197 430.701C482.721 430.701 483.245 430.701 483.77 430.701C484.294 430.701 484.818 430.17 485.342 430.17C485.866 429.639 486.39 429.639 486.914 429.639C487.438 429.639 487.962 429.108 488.486 429.639C489.01 429.639 489.534 429.639 490.058 429.639C490.582 429.639 491.106 429.639 491.63 429.639C492.679 429.639 493.727 429.639 494.775 430.701C495.299 431.233 495.299 431.233 495.823 431.764C496.347 432.295 496.871 432.295 497.395 432.827C498.443 433.358 498.967 434.42 498.967 435.483C498.967 436.014 499.491 436.545 499.491 437.077C499.491 437.608 500.015 438.671 500.015 438.671C500.015 439.202 500.539 439.733 500.539 440.796C503.16 441.327 503.16 441.858 503.16 442.389Z" fill="url(#paint7_radial_275_1003)"/>
<path opacity="0.7" d="M462.483 341.94C461.961 342.46 461.961 342.979 461.961 343.499C461.961 344.018 461.961 345.057 461.961 345.577C461.961 346.096 461.961 346.616 461.961 347.655C461.961 348.174 461.961 348.694 461.439 349.213C460.917 350.252 459.873 350.771 459.351 351.291C458.829 351.291 458.307 351.81 457.785 351.81C457.263 351.81 456.741 352.33 456.219 352.33C455.697 352.33 455.175 352.33 454.653 352.849C454.131 352.849 453.609 352.849 453.087 352.849C452.565 352.849 452.043 352.849 451.521 352.849C450.999 352.849 449.956 353.369 449.434 353.369C448.912 353.369 448.39 353.888 447.868 353.369C447.346 353.369 446.824 352.849 446.302 352.33C445.78 351.81 445.78 351.291 445.258 350.771C444.736 350.252 444.214 349.733 444.214 349.733C443.692 349.213 442.126 348.694 441.604 348.174C441.082 348.174 440.56 347.655 440.56 347.655C440.038 347.135 439.516 347.135 439.516 346.616C438.994 346.616 438.994 346.096 438.472 345.577C437.95 345.057 437.95 344.538 437.428 344.018C437.428 343.499 436.906 342.979 436.906 342.46C436.906 341.94 436.906 341.421 436.384 340.901C436.384 340.382 436.384 339.862 436.384 339.343C436.384 338.823 436.384 338.304 436.384 337.784C436.384 337.265 436.384 336.745 436.384 336.226C436.384 335.706 436.384 335.187 436.384 334.667C436.384 334.148 436.384 333.628 436.906 333.109C436.906 332.589 437.428 332.07 437.428 331.55C437.428 331.031 437.95 330.511 438.472 329.992C438.994 329.472 438.994 328.953 439.516 328.433C439.516 327.914 440.038 327.395 440.56 327.395C441.082 326.875 441.604 326.875 441.604 326.356C442.126 326.356 442.648 325.836 443.17 325.836C443.692 325.836 444.214 325.836 444.736 325.836C445.258 325.836 445.78 325.836 446.302 325.317C446.824 325.317 447.346 324.797 447.868 324.278C448.39 323.758 449.956 323.239 450.999 324.278C451.521 324.797 452.043 324.797 452.565 324.797C453.087 324.797 453.609 324.797 454.131 324.797C454.653 324.797 455.175 324.797 455.697 324.797C456.219 324.797 456.741 324.797 457.263 325.317C457.785 325.317 458.307 325.836 458.829 325.836C459.351 325.836 459.873 326.356 460.395 326.356C461.439 326.356 462.483 327.395 463.005 327.914C463.005 328.433 463.527 328.953 463.527 329.472C464.049 329.992 464.049 330.511 464.571 331.031C465.093 331.55 465.615 333.109 465.093 334.148C465.093 334.667 465.093 335.187 465.093 336.226C465.093 336.745 465.093 337.784 465.093 338.304C465.093 338.823 465.093 339.343 464.571 340.382C463.005 340.901 462.483 341.421 462.483 341.94Z" fill="url(#paint8_radial_275_1003)"/>
<path d="M308.717 333.708C308.717 334.214 308.717 334.214 308.717 334.719C308.717 335.225 308.717 335.225 308.717 335.731C308.717 336.237 308.717 336.237 308.189 336.742L307.661 337.248L307.133 337.754L306.605 338.259C306.605 338.765 306.077 338.765 305.549 338.259C305.021 338.259 305.021 337.754 304.493 337.754C304.493 337.754 303.965 337.754 303.436 337.754C303.436 337.754 302.908 337.754 302.38 337.754C301.852 337.754 301.852 337.754 301.324 337.248C301.324 337.248 300.796 336.742 300.796 336.237C300.796 335.731 300.796 335.731 300.268 335.225C300.268 335.225 299.74 334.719 299.74 334.214C299.74 333.708 299.74 333.708 299.74 333.202C299.74 332.696 299.74 332.696 299.74 332.191C299.74 331.685 299.74 331.685 300.268 331.179C300.268 331.179 300.796 330.674 301.324 330.674L301.852 330.168C301.852 329.662 302.38 329.662 302.38 329.662C302.908 329.662 302.908 329.662 303.436 329.662C303.436 329.662 303.965 329.662 304.493 329.662C304.493 329.662 305.021 329.662 305.549 329.662C306.077 329.662 306.077 329.662 306.605 330.168L307.133 330.674L307.661 331.179C307.661 331.685 308.189 331.685 308.189 332.191C308.717 333.202 308.717 333.708 308.717 333.708Z" fill="url(#paint9_radial_275_1003)"/>
<path d="M313.704 273.864C313.704 274.37 313.704 274.37 313.704 274.876C313.704 275.381 313.704 275.381 313.704 275.887C313.704 276.393 313.205 276.393 313.205 276.899L312.707 277.404C312.707 277.404 312.208 277.91 311.709 277.91C311.709 277.91 311.21 278.416 310.712 278.416C310.712 278.921 310.213 278.921 309.714 278.416C309.216 278.416 309.216 277.91 308.717 277.91C308.717 277.91 308.218 277.91 307.72 277.91C307.72 277.91 307.221 277.91 306.722 277.91C306.223 277.91 306.223 277.91 305.725 277.404C305.725 277.404 305.226 276.899 305.226 276.393C305.226 275.887 305.226 275.887 305.226 275.381C305.226 275.381 304.727 274.876 304.727 274.37C304.727 273.864 304.727 273.864 304.727 273.358C304.727 272.853 304.727 272.853 304.727 272.347C304.727 271.841 304.727 271.841 305.226 271.336C305.226 271.336 305.725 270.83 306.223 270.83L306.722 270.324C306.722 269.818 307.221 269.818 307.72 269.818C308.218 269.818 308.717 269.818 308.717 269.818C308.717 269.818 309.216 269.818 309.714 269.818C310.213 269.818 310.213 269.818 310.712 269.818C311.21 269.818 311.21 269.818 311.709 270.324L312.208 270.83L312.707 271.336C312.707 271.841 312.707 271.841 313.205 272.347C313.704 273.358 313.704 273.864 313.704 273.864Z" fill="url(#paint10_radial_275_1003)"/>
<path d="M428.405 241.947C428.405 242.453 428.405 242.453 428.405 242.959C428.405 243.464 428.405 243.464 428.405 243.97C428.405 244.476 427.906 244.476 427.906 244.982L427.408 245.487C427.408 245.487 426.909 245.993 426.41 245.993C426.41 245.993 425.912 246.499 425.413 246.499C425.413 247.004 424.914 247.004 424.415 246.499C423.917 246.499 423.917 245.993 423.418 245.993C423.418 245.993 422.919 245.993 422.421 245.993C422.421 245.993 421.922 245.993 421.423 245.993C420.925 245.993 420.925 245.993 420.426 245.487C420.426 245.487 419.927 244.982 419.927 244.476C419.927 243.97 419.927 243.97 419.927 243.464C419.927 243.464 419.428 242.959 419.428 242.453C419.428 241.947 419.428 241.947 419.428 241.441C419.428 240.936 419.428 240.936 419.428 240.43C419.428 239.924 419.428 239.924 419.927 239.419C419.927 239.419 420.426 238.913 420.925 238.913L421.423 238.407C421.423 237.901 421.922 237.901 422.421 237.901C422.919 237.901 423.418 237.901 423.418 237.901C423.418 237.901 423.917 237.901 424.415 237.901C424.914 237.901 424.914 237.901 425.413 237.901C425.912 237.901 425.912 237.901 426.41 238.407L426.909 238.913L427.408 239.419C427.408 239.924 427.408 239.924 427.906 240.43C428.405 240.936 428.405 241.441 428.405 241.947Z" fill="url(#paint11_radial_275_1003)"/>
<path d="M468.301 290.82C468.301 291.325 468.301 291.325 468.301 291.831C468.301 292.337 468.301 292.337 468.301 292.843C468.301 293.348 467.803 293.348 467.803 293.854L467.304 294.36C467.304 294.36 466.805 294.866 466.307 294.866C466.307 294.866 465.808 295.371 465.309 295.371C465.309 295.877 464.81 295.877 464.312 295.371C463.813 295.371 463.813 294.866 463.314 294.866C463.314 294.866 462.816 294.866 462.317 294.866C462.317 294.866 461.818 294.866 461.32 294.866C460.821 294.866 460.821 294.866 460.322 294.36C460.322 294.36 459.823 293.854 459.823 293.348C459.823 292.843 459.823 292.843 459.823 292.337C459.823 292.337 459.325 291.831 459.325 291.325C459.325 290.82 459.325 290.82 459.325 290.314C459.325 289.808 459.325 289.808 459.325 289.303C459.325 288.797 459.325 288.797 459.823 288.291C459.823 288.291 460.322 287.785 460.821 287.785L461.32 287.28C461.32 286.774 461.818 286.774 462.317 286.774C462.816 286.774 463.314 286.774 463.314 286.774C463.314 286.774 463.813 286.774 464.312 286.774C464.81 286.774 464.81 286.774 465.309 286.774C465.808 286.774 465.808 286.774 466.307 287.28L466.805 287.785L467.304 288.291C467.304 288.797 467.304 288.797 467.803 289.303C468.301 290.314 468.301 290.82 468.301 290.82Z" fill="url(#paint12_radial_275_1003)"/>
<path d="M393.961 291.157C393.961 291.694 393.429 292.23 393.961 292.767C393.961 293.303 393.961 293.84 393.961 294.376C393.961 294.912 393.429 295.449 392.898 295.985C392.366 296.522 391.834 297.058 391.302 297.058C390.77 297.595 390.238 297.595 389.706 298.131C389.174 298.131 388.642 298.667 388.11 299.74C388.11 299.74 387.578 299.74 387.046 299.74C386.514 299.204 385.982 299.204 385.45 299.204C384.918 299.204 384.386 299.204 383.854 299.204C383.322 299.204 382.791 299.204 382.259 299.204C381.727 299.204 380.663 299.204 380.663 298.667C380.131 298.131 379.599 297.595 379.599 297.058C379.599 296.522 379.599 295.449 379.067 294.912C379.067 294.376 378.535 293.84 378.535 293.303C378.535 292.767 378.535 291.694 378.535 291.157C378.535 290.621 378.535 289.548 378.535 289.012C378.535 288.475 379.067 287.939 379.599 287.403C380.131 286.866 380.663 286.33 381.195 286.33C381.727 286.33 382.259 285.257 382.791 284.72C383.322 284.184 383.854 283.648 384.386 284.184C384.918 284.184 385.982 284.184 386.514 284.184C387.046 283.648 387.578 283.648 388.11 284.184C388.642 284.184 389.706 284.184 390.238 284.184C390.77 284.184 391.302 284.72 391.834 284.72C392.366 285.257 392.898 285.793 392.898 285.793C393.429 285.793 393.961 286.866 393.961 286.866C393.961 287.403 394.493 287.939 394.493 288.475C394.493 289.548 394.493 290.621 393.961 291.157Z" fill="url(#paint13_radial_275_1003)"/>
<path opacity="0.7" d="M437.382 443.632C437.382 444.164 437.382 444.696 437.382 444.696C437.382 445.228 437.382 445.76 437.382 445.76C437.382 446.292 436.883 446.292 436.883 446.824C436.384 446.824 436.384 447.356 435.886 447.888C435.886 447.888 435.387 448.42 434.888 448.42C434.39 448.42 434.39 448.952 433.891 448.952C433.891 449.483 433.392 449.483 432.893 448.952C432.395 448.952 431.896 448.42 431.896 448.42C431.397 448.42 431.397 448.42 430.899 448.42C430.4 448.42 429.901 448.42 429.901 448.42C429.403 448.42 428.904 448.42 428.904 447.888C428.405 447.888 428.405 447.356 428.405 446.824C428.405 446.292 428.405 445.76 427.906 445.76C427.906 445.228 427.408 444.696 427.408 444.696C427.408 444.164 427.408 443.632 427.408 443.632C427.408 443.1 427.408 442.568 427.408 442.568C427.408 442.036 427.906 441.504 427.906 441.504C427.906 441.504 428.405 440.972 428.904 440.972C429.403 440.972 429.403 440.44 429.901 439.908C429.901 439.376 430.4 439.376 430.899 439.376C431.397 439.376 431.896 439.376 431.896 439.376C432.395 439.376 432.893 439.376 432.893 439.376C433.392 439.376 433.891 439.376 433.891 439.376C434.39 439.376 434.888 439.376 434.888 439.908C434.888 440.44 435.387 440.44 435.886 440.972C436.384 440.972 436.384 441.504 436.384 442.036C436.384 442.568 436.883 443.1 436.883 443.1C437.382 443.1 437.382 443.1 437.382 443.632Z" fill="url(#paint14_radial_275_1003)"/>
<path d="M318.464 415.994C318.464 416.499 318.464 417.004 318.464 417.004C318.464 417.509 318.975 418.014 318.464 418.014C318.464 418.519 317.952 418.519 317.952 419.024C317.44 419.024 317.44 419.529 316.929 419.529C316.929 419.529 316.417 420.034 315.905 420.034C315.394 420.034 315.394 420.539 314.882 421.044C314.882 421.549 314.371 421.549 313.859 421.044C313.347 421.044 312.836 420.539 312.836 420.539C312.324 420.539 311.812 420.539 311.812 420.539H310.789C310.278 420.539 309.766 420.539 309.766 420.034C309.766 419.529 309.254 419.529 309.254 419.024C309.254 418.519 308.743 418.014 308.743 418.014C308.743 417.509 308.231 417.004 308.231 417.004C308.231 416.499 307.719 415.994 307.719 415.994C307.719 415.489 307.719 414.984 307.719 414.479C307.719 413.974 307.719 413.469 308.231 413.469C308.231 412.964 308.743 412.964 309.254 412.964C309.254 412.964 309.766 412.459 309.766 411.954C309.766 411.449 310.278 411.449 310.789 411.449C311.301 411.449 311.812 411.449 311.812 411.449C312.324 411.449 312.836 411.449 312.836 411.449C313.347 411.449 313.859 411.954 314.371 411.954C314.882 411.954 315.394 412.459 315.905 412.459C316.417 412.964 316.929 413.469 316.929 413.469C317.44 413.469 317.952 413.974 317.952 414.479C317.952 414.984 318.464 415.489 318.464 415.489V415.994Z" fill="url(#paint15_radial_275_1003)"/>
<path opacity="0.7" d="M413.066 504.763C413.066 505.268 413.066 505.773 413.066 505.773C413.066 506.278 413.57 506.783 413.066 506.783C413.066 507.288 412.561 507.288 412.561 507.793C412.057 507.793 412.057 508.298 411.552 508.298C411.048 508.298 411.048 508.803 410.544 508.803C410.039 508.803 410.039 509.309 409.535 509.814C409.535 510.319 409.03 510.319 408.526 509.814C408.021 509.814 407.517 509.309 407.517 509.309C407.013 509.309 406.508 509.309 406.508 509.309C406.004 509.309 405.499 509.309 405.499 509.309C404.995 509.309 404.49 509.309 404.49 508.803C403.986 508.803 403.986 508.298 403.986 507.793C403.986 507.288 403.482 506.783 403.482 506.783C403.482 506.278 402.977 505.773 402.977 505.773C402.977 505.268 402.473 504.763 402.473 504.763C402.473 504.258 402.473 503.753 402.473 503.248C402.473 502.743 402.473 502.238 402.977 502.238C402.977 501.733 403.482 501.733 403.986 501.733C403.986 501.733 404.49 501.228 404.49 500.723C404.49 500.218 404.995 500.218 405.499 500.218C406.004 500.218 406.508 500.218 406.508 500.218C407.013 500.218 407.517 500.218 407.517 500.218C408.021 500.218 408.526 500.723 409.03 500.723C409.535 500.723 410.039 501.228 410.544 501.228C411.048 501.733 411.552 502.238 411.552 502.238C412.057 502.238 412.561 502.743 412.561 503.248C412.561 503.753 413.066 504.258 413.066 504.258C413.57 503.753 413.57 504.258 413.066 504.763Z" fill="url(#paint16_radial_275_1003)"/>
<path opacity="0.7" d="M504.827 415.994C504.827 416.499 504.827 417.004 504.827 417.004C504.827 417.509 505.331 418.014 504.827 418.014C504.827 418.519 504.322 418.519 504.322 419.024C503.818 419.024 503.818 419.529 503.313 419.529C503.313 419.529 502.809 420.034 502.305 420.034C501.8 420.034 501.8 420.539 501.296 421.044C501.296 421.549 500.791 421.549 500.287 421.044C499.782 420.539 499.278 420.539 499.278 420.539C498.774 420.539 498.269 420.539 498.269 420.539C497.765 420.539 497.26 420.539 497.26 420.539C496.756 420.539 496.251 420.539 496.251 420.034C495.747 420.034 495.747 419.529 495.747 419.024C495.747 418.519 495.243 418.014 495.243 418.014C495.243 417.509 494.738 417.004 494.738 417.004C494.738 416.499 494.234 415.994 494.234 415.994C494.234 415.489 494.234 414.984 494.234 414.479C494.234 413.974 494.234 413.469 494.738 413.469C494.738 412.964 495.243 412.964 495.747 412.964C495.747 412.964 496.251 412.459 496.251 411.954C496.251 411.449 496.756 411.449 497.26 411.449C497.765 411.449 498.269 411.449 498.269 411.449C498.774 411.449 499.278 411.449 499.278 411.449C499.782 411.449 500.287 411.954 500.791 411.954C501.296 411.954 501.8 412.459 502.305 412.459C502.809 412.964 503.313 413.469 503.313 413.469C503.818 413.469 504.322 413.974 504.322 414.479C504.322 414.984 504.827 415.489 504.827 415.489C505.331 415.489 505.331 415.994 504.827 415.994Z" fill="url(#paint17_radial_275_1003)"/>
<path d="M334.416 400.997C334.416 401.52 334.416 402.565 334.416 403.088C334.416 403.61 334.941 404.656 334.416 405.178C333.89 405.701 333.89 406.223 333.364 406.746C332.838 407.269 332.312 407.791 332.312 408.314C331.786 408.836 331.26 409.359 331.26 409.359C330.734 409.359 330.208 410.404 330.208 410.927C329.682 411.449 329.156 411.449 328.63 411.449C328.104 410.927 327.578 410.927 327.052 410.927C326.526 410.927 326 410.927 325.474 410.404C324.948 410.404 324.422 409.882 323.37 409.882C322.844 409.882 321.792 409.359 321.266 408.836C320.74 408.314 320.74 407.269 320.74 406.746C320.74 406.223 320.74 405.178 320.214 404.656C320.214 404.133 319.688 403.088 319.688 403.088C319.688 402.565 319.688 401.52 319.688 400.997C319.688 400.475 319.688 399.429 319.688 398.907C319.688 398.384 320.214 397.862 320.214 397.339C320.74 396.816 321.266 396.294 321.792 396.294C322.318 396.294 322.844 395.249 322.844 395.249C322.844 394.726 323.896 394.203 324.422 394.726C324.948 394.726 326 394.726 326 394.726C326.526 394.726 327.052 394.203 327.578 394.726C328.104 394.726 328.63 394.726 329.156 394.726C329.682 394.726 330.208 395.249 330.734 395.249C331.26 395.771 331.786 396.294 332.312 396.294C332.838 396.294 333.364 397.339 333.364 397.862C333.364 398.384 333.89 398.907 333.89 399.429C334.416 399.952 334.416 400.475 334.416 400.997Z" fill="url(#paint18_radial_275_1003)"/>
<path d="M292.758 266.609C292.758 267.13 292.758 267.65 292.758 268.17C292.758 268.691 292.758 269.211 292.758 269.732C292.758 270.252 292.243 270.772 291.727 271.293C291.211 271.813 290.695 272.333 290.179 272.333C289.663 272.854 289.147 272.854 288.631 273.374C288.115 273.374 287.599 273.895 287.084 274.415C286.568 274.935 286.052 274.935 285.536 274.415C285.02 273.895 284.504 273.895 283.988 273.895C283.472 273.895 282.956 273.895 282.44 273.374C281.925 273.374 281.409 273.374 280.893 273.374C280.377 273.374 279.345 273.374 279.345 272.854C278.829 272.333 278.829 271.813 278.829 271.293C278.829 270.772 278.829 269.732 278.313 269.732C278.313 269.211 277.797 268.691 277.797 268.17C277.797 267.65 277.797 267.13 277.797 266.609C277.797 266.089 277.797 265.568 278.313 265.048C278.313 264.528 278.829 264.007 279.345 263.487C279.861 262.967 280.377 262.446 280.893 262.446C281.409 262.446 281.925 261.405 281.925 260.885C281.925 260.365 282.956 259.844 283.472 260.365C283.988 260.365 284.504 260.365 285.02 260.365C285.536 259.844 286.052 259.844 286.568 259.844C287.084 259.844 287.599 259.844 288.115 259.844C288.631 259.844 289.147 260.365 289.663 260.365C290.179 260.885 290.695 261.405 290.695 261.405C291.211 261.405 291.727 262.446 291.727 262.967C291.727 263.487 292.243 264.007 292.243 264.528C292.758 265.568 292.758 266.089 292.758 266.609Z" fill="url(#paint19_radial_275_1003)"/>
<path d="M236.904 358.992C236.904 359.506 236.904 360.019 236.904 360.533C236.904 361.046 236.904 362.073 236.904 362.073C236.904 362.587 236.367 363.1 235.83 363.1C235.293 363.614 234.756 363.614 234.756 364.127C234.219 364.641 233.681 364.641 233.681 365.154C233.144 365.154 232.607 365.668 232.607 366.181C232.07 366.695 231.533 366.695 230.996 366.181C230.459 365.668 229.922 365.668 229.385 365.668C228.848 365.668 228.311 365.668 227.774 365.154C227.237 365.154 226.7 365.154 226.163 365.154C225.625 365.154 225.088 365.154 224.551 364.641C224.014 364.127 224.014 363.614 224.014 363.1C224.014 362.587 224.014 362.073 223.477 361.56C223.477 361.046 222.94 360.533 222.94 360.019C222.94 359.506 222.94 358.992 222.94 358.479C222.94 357.965 222.94 357.452 222.94 356.939C222.94 356.425 223.477 355.912 223.477 355.398C224.014 354.885 224.551 354.885 225.088 354.371C225.626 354.371 226.163 353.858 226.163 353.344C226.163 352.831 227.237 352.831 227.237 352.831C227.774 352.831 228.311 352.831 228.848 352.831C229.385 352.831 229.922 352.317 230.459 352.831C230.996 352.831 231.533 352.831 232.07 352.831C232.607 352.831 233.144 353.344 233.681 353.344C234.219 353.858 234.756 354.371 234.756 354.371C235.293 354.371 235.293 354.885 235.83 355.398C235.83 355.912 236.367 356.425 236.367 356.939C236.904 357.965 236.904 358.992 236.904 358.992Z" fill="url(#paint20_radial_275_1003)"/>
<path opacity="0.7" d="M542.109 365.974C542.109 366.488 542.109 367.001 542.109 367.515C542.109 368.028 542.109 368.542 542.109 369.055C542.109 369.569 541.572 370.082 541.035 370.082C540.498 370.596 539.961 370.596 539.961 371.109C539.424 371.623 538.887 371.623 538.887 372.136C538.35 372.136 537.813 372.65 537.813 373.163C537.276 373.676 536.739 373.676 536.201 373.163C535.664 373.163 535.127 372.65 534.59 372.65C534.053 372.65 533.516 372.65 532.979 372.136C532.442 372.136 531.905 372.136 531.368 372.136C530.831 372.136 530.294 372.136 529.757 371.623C529.22 371.109 529.22 370.596 529.22 370.082C529.22 369.569 529.22 369.055 528.683 368.542C528.683 368.028 528.146 367.515 528.146 367.001C528.146 366.488 528.146 365.974 528.146 365.461C528.146 364.947 528.146 364.434 528.146 363.92C528.146 363.407 528.683 362.894 528.683 362.38C529.22 361.867 529.757 361.867 530.294 361.353C530.831 361.353 531.368 360.84 531.368 360.326C531.368 359.813 532.442 359.813 532.442 359.813C532.979 359.813 533.516 359.813 534.053 359.813C534.59 359.813 535.127 359.299 535.664 359.813C536.201 359.813 536.739 359.813 537.276 359.813C537.813 359.813 538.35 360.326 538.887 360.326C539.424 360.84 539.961 361.353 539.961 361.353C540.498 361.353 540.498 361.867 541.035 362.38C541.035 362.894 541.572 363.407 541.572 363.92C542.109 364.947 542.109 365.974 542.109 365.974Z" fill="url(#paint21_radial_275_1003)"/>
<path d="M269.818 415.1C269.818 415.615 269.818 416.647 269.818 417.162C269.818 417.678 269.818 418.709 269.818 419.225C269.818 419.741 268.748 420.772 268.213 420.772C267.677 421.288 266.607 421.803 266.072 422.319C265.537 422.835 264.466 423.35 263.931 423.35C263.396 423.35 262.325 424.382 261.79 424.897C261.255 425.413 260.185 425.413 259.649 425.413C259.114 424.897 258.044 424.382 257.509 424.382C256.974 424.382 255.903 424.382 255.368 423.866C254.833 423.866 253.762 423.866 253.227 423.866C252.692 423.866 251.622 423.866 251.086 423.35C250.551 422.835 250.016 422.319 250.016 421.288C250.016 420.772 249.481 419.741 249.481 419.225C249.481 418.709 248.946 417.678 248.41 417.162C248.41 416.647 247.875 415.615 247.875 415.1C247.875 414.584 247.875 413.553 247.875 413.037C247.875 412.521 248.41 411.49 248.946 410.974C249.481 410.459 250.016 409.943 250.551 409.427C251.086 408.912 251.622 408.396 252.157 407.88C252.692 407.365 253.227 406.849 253.762 406.849C254.298 406.849 255.368 406.849 255.903 406.849C256.438 406.333 257.509 406.333 258.044 406.849C258.579 406.849 259.649 407.365 260.72 407.365C261.255 407.365 262.325 407.88 262.861 408.396C263.396 408.912 264.466 409.427 265.001 409.943C265.537 410.459 266.607 410.974 266.607 411.49C267.142 412.006 267.677 413.037 267.677 413.553C269.818 413.553 269.818 414.584 269.818 415.1Z" fill="url(#paint22_radial_275_1003)"/>
<path d="M285.545 321.921C285.545 322.443 285.545 323.486 285.545 324.008C285.545 324.53 286.066 325.573 285.545 326.095C285.545 326.617 285.024 327.138 284.502 327.66C283.981 328.182 283.46 328.704 282.939 328.704C282.417 329.225 281.896 329.225 281.375 329.225C280.854 329.225 280.333 329.747 279.811 330.269C279.29 330.79 278.769 330.79 278.248 330.269C277.726 329.747 277.205 328.704 276.684 328.704C276.163 328.704 275.642 328.182 275.12 327.66C274.599 327.66 274.078 327.138 273.035 327.138C272.514 327.138 271.472 327.138 270.951 326.617C270.429 326.095 269.908 325.573 269.908 325.051C269.908 324.53 269.387 323.486 269.387 323.486C269.387 322.965 268.866 322.443 268.344 321.921C267.823 321.399 267.823 320.878 267.823 320.356C267.823 319.834 267.823 319.313 267.823 318.791C267.823 318.269 268.344 317.747 268.866 317.226C269.387 316.704 269.908 316.182 270.429 316.182C270.951 316.182 271.472 315.139 271.993 314.617C271.993 314.095 273.035 313.574 273.557 314.095C274.078 314.095 275.12 314.095 275.642 314.095C276.163 313.574 277.205 313.574 277.726 314.095C278.248 314.095 279.29 314.095 279.811 314.095C280.333 314.095 281.375 314.617 281.375 315.139C281.375 315.661 282.417 316.182 282.939 316.704C283.46 317.226 283.981 317.747 283.981 318.269C283.981 318.791 284.502 319.834 284.502 320.356C285.545 320.356 286.066 321.399 285.545 321.921Z" fill="url(#paint23_radial_275_1003)"/>
<path d="M281.548 489.96C281.548 490.482 281.548 491.526 281.548 492.047C281.548 492.569 282.085 493.613 281.548 494.134C281.548 494.656 281.012 495.178 280.475 495.699C279.938 496.221 279.401 496.743 278.864 496.743C278.864 497.265 277.791 497.786 277.791 497.786C277.254 497.786 276.717 498.308 276.18 498.83C275.644 499.351 275.107 499.351 274.57 498.83C274.033 498.308 273.496 497.265 272.959 497.265C272.423 497.265 271.886 496.743 271.349 496.221C270.812 496.221 270.275 495.699 269.202 495.699C268.665 495.699 267.591 495.699 267.055 495.178C266.518 494.656 265.981 494.134 265.981 493.613C265.981 493.091 265.444 492.047 265.444 492.047C265.444 491.526 264.907 491.004 264.371 490.482C264.371 489.96 263.834 489.439 263.834 488.917C263.834 488.395 263.834 487.874 263.834 487.352C263.834 486.83 264.371 486.308 264.907 485.787C265.444 485.265 265.981 484.743 266.518 484.743C267.055 484.743 267.591 483.7 268.128 483.178C268.128 482.656 269.202 482.135 269.739 482.656C270.275 482.656 271.349 482.656 271.886 482.656C272.423 482.135 273.496 482.135 274.033 482.656C274.57 482.656 275.644 482.656 276.18 482.656C276.717 482.656 277.791 483.178 277.791 483.7C278.328 484.222 278.864 484.743 279.401 485.265C279.938 485.787 280.475 486.308 280.475 486.83C280.475 487.352 281.012 488.395 281.012 488.917C281.548 488.917 281.548 489.439 281.548 489.96Z" fill="url(#paint24_radial_275_1003)"/>
<path d="M508.956 298.703C508.956 299.242 508.956 300.318 508.956 300.856C508.956 301.395 509.493 302.471 508.956 303.01C508.419 303.548 508.419 304.086 507.882 304.624C507.346 305.163 506.809 305.701 506.272 305.701C505.735 306.239 505.198 306.239 504.662 306.239C504.125 306.239 503.588 306.778 503.051 307.316C502.514 307.854 501.978 307.854 501.441 307.316C500.904 306.778 500.367 305.701 499.83 305.701C499.294 305.701 498.757 305.163 498.22 304.624C497.683 304.086 497.146 304.624 496.61 304.624C496.073 304.624 494.999 304.624 494.462 304.086C493.925 303.548 493.389 303.01 493.389 302.471C493.389 301.933 492.852 300.856 492.852 300.856C492.852 300.318 492.315 299.78 491.778 299.242C491.778 298.703 491.241 298.165 491.241 297.627C491.241 297.088 491.241 296.55 491.241 296.012C491.241 295.474 491.778 294.935 492.315 294.397C492.852 293.859 493.389 293.321 493.925 293.321C494.462 293.321 494.999 292.244 495.536 291.706C495.536 291.167 496.61 290.629 497.146 291.167C497.683 291.167 498.757 291.167 499.294 291.167C499.83 290.629 500.904 290.629 501.441 291.167C501.978 291.167 503.051 291.167 503.588 291.167C504.125 291.167 505.198 291.706 505.198 292.244C505.735 292.782 506.272 293.321 506.809 293.859C507.346 294.397 507.882 294.935 507.882 295.474C507.882 296.012 508.419 297.088 508.419 297.627C508.956 297.088 509.493 298.165 508.956 298.703Z" fill="url(#paint25_radial_275_1003)"/>
<path opacity="0.7" d="M536.812 457.568C536.812 458.089 536.812 459.133 536.812 459.655C536.812 460.176 537.331 461.22 536.812 461.741C536.812 462.263 536.293 462.785 535.774 463.307C535.255 463.828 534.736 464.35 534.217 464.35C533.698 464.872 533.179 464.872 532.66 464.872C532.141 464.872 531.623 465.393 531.104 465.915C530.585 466.437 530.066 466.437 529.547 465.915C529.028 465.393 528.509 464.35 527.99 464.35C527.471 464.35 526.952 463.828 526.433 463.307C525.915 463.307 525.396 462.785 524.358 462.785C523.839 462.785 522.801 462.785 522.282 462.263C521.763 461.741 521.244 461.22 521.244 460.698C521.244 460.176 520.725 459.133 520.725 459.133C520.725 458.611 520.207 458.089 519.688 457.568C519.688 457.046 519.169 456.524 519.169 456.003C519.169 455.481 519.169 454.959 519.169 454.437C519.169 453.916 519.688 453.394 520.207 452.872C520.725 452.35 521.244 451.829 521.763 451.829C522.282 451.829 522.801 450.785 523.32 450.264C523.32 449.742 524.358 449.22 524.877 449.742C525.396 449.742 526.433 449.742 526.952 449.742C527.471 449.22 528.509 449.22 529.028 449.742C529.547 449.742 530.585 449.742 531.104 449.742C531.623 449.742 532.66 450.264 532.66 450.785C533.179 451.307 533.698 451.829 534.217 452.35C534.736 452.872 535.255 453.394 535.255 453.916C535.255 454.437 535.774 455.481 535.774 456.003C537.33 456.003 537.331 456.524 536.812 457.568Z" fill="url(#paint26_radial_275_1003)"/>
<path opacity="0.7" d="M339.405 527.386C339.405 527.908 339.405 528.951 339.405 529.473C339.405 529.995 339.926 531.038 339.405 531.56C339.405 532.081 338.883 532.603 338.362 533.125C337.841 533.647 337.32 534.168 336.799 534.168C336.277 534.69 335.756 534.69 335.235 534.69C334.714 534.69 334.192 535.212 333.671 535.734C333.15 536.255 332.629 536.255 332.108 535.734C331.586 535.212 331.065 534.168 330.544 534.168C330.023 534.168 329.501 533.647 328.98 533.125C328.459 533.125 327.938 532.603 326.895 532.603C326.374 532.603 325.332 532.603 324.81 532.081C324.289 531.56 323.768 531.038 323.768 530.516C323.768 529.995 323.247 528.951 323.247 528.951C323.247 528.429 322.726 527.908 322.204 527.386C322.204 526.864 321.683 526.343 321.683 525.821C321.683 525.299 321.683 524.777 321.683 524.256C321.683 523.734 322.204 523.212 322.726 522.691C323.247 522.169 323.768 521.647 324.289 521.647C324.81 521.647 325.332 520.604 325.853 520.082C325.853 519.56 326.895 519.039 327.417 519.56C327.938 519.56 328.98 519.56 329.501 519.56C330.023 519.039 331.065 519.039 331.586 519.56C332.108 519.56 333.15 519.56 333.671 519.56C334.192 519.56 335.235 520.082 335.235 520.604C335.756 521.125 336.277 521.647 336.799 522.169C337.32 522.691 337.841 523.212 337.841 523.734C337.841 524.256 338.362 525.299 338.362 525.821C339.405 525.821 339.405 526.864 339.405 527.386Z" fill="url(#paint27_radial_275_1003)"/>
<path d="M310.662 362.552C310.662 363.075 310.662 364.123 311.185 364.646C311.709 365.17 311.709 366.217 311.709 366.741C311.709 367.264 311.185 368.312 310.662 368.835C310.138 369.359 309.091 369.883 308.567 370.406C308.044 370.93 306.996 371.453 306.473 371.453C305.949 371.453 304.902 372.501 304.378 373.024C303.855 373.548 302.807 373.548 301.76 373.548C300.713 373.024 299.665 373.024 299.142 373.024C298.618 373.024 297.571 373.024 297.047 372.501C296.524 372.501 295.476 371.977 294.953 371.977C294.429 371.977 293.382 371.453 292.858 371.453C292.335 370.93 291.811 370.406 291.811 369.359C291.811 368.835 291.287 367.788 291.287 367.264C291.287 366.741 290.764 365.693 290.764 365.17C290.764 364.646 290.764 363.599 290.764 362.552C290.764 362.028 291.287 360.981 291.287 359.933C291.287 359.41 291.811 358.363 292.335 357.839C292.858 357.315 293.905 356.792 294.429 356.268C294.953 355.744 296 355.221 296.524 354.697C297.047 354.173 298.095 353.65 298.618 353.65C299.665 353.65 300.713 353.65 301.236 353.126C301.76 352.603 303.331 352.603 303.855 352.603C304.378 352.603 305.949 352.603 306.473 352.603C306.996 352.603 308.044 353.126 308.044 353.65C308.567 354.173 309.091 355.221 309.091 355.221C309.615 355.744 310.138 356.268 310.138 357.315C310.138 357.839 310.662 358.886 310.662 359.41C310.662 360.981 310.662 362.028 310.662 362.552Z" fill="url(#paint28_radial_275_1003)"/>
<path d="M358.203 322.527C357.692 323.046 357.692 323.565 357.692 324.084C357.692 324.603 357.692 325.122 357.692 325.64C357.692 326.159 357.18 326.678 356.668 326.678C356.157 326.678 355.645 327.197 355.645 327.716C355.645 328.235 355.134 328.235 354.622 328.235C354.111 328.235 354.111 328.754 353.599 329.273C353.599 329.792 352.576 329.792 352.064 329.273C351.553 328.754 351.041 328.754 350.529 328.754C350.018 328.754 349.506 328.754 348.995 328.754C348.483 328.754 347.972 328.754 346.948 329.273C346.437 329.273 345.414 329.273 344.902 329.273C344.391 329.273 343.879 328.235 343.879 327.716C343.879 327.197 343.879 326.678 343.367 326.159C343.367 325.64 342.856 325.122 342.856 324.603C342.856 324.084 342.344 323.565 342.856 323.046C342.856 322.527 342.856 321.489 343.367 320.97C343.367 320.451 343.879 319.413 344.391 318.894C344.902 318.375 345.414 317.856 345.925 317.337C346.437 316.818 346.948 316.299 346.948 315.78C346.948 315.261 347.46 314.742 348.483 314.742C348.995 314.742 350.018 314.742 350.018 314.223C350.529 313.704 351.041 313.704 351.553 313.704C352.064 313.704 353.087 313.704 353.599 313.704C354.111 313.704 355.134 314.223 355.134 314.742C355.645 315.261 356.157 315.78 356.668 316.299C357.18 316.818 357.692 317.337 357.692 317.856C357.692 318.375 357.692 319.413 358.203 319.413C358.715 321.489 358.715 322.008 358.203 322.527Z" fill="url(#paint29_radial_275_1003)"/>
<path opacity="0.7" d="M442.139 535.97C441.623 536.489 441.623 537.008 441.623 537.527C441.623 538.046 441.623 538.565 441.623 539.084C441.623 539.603 441.106 540.122 440.589 540.122C440.073 540.122 439.556 540.641 439.556 541.16C439.556 541.679 439.039 541.679 438.523 541.679C438.006 541.679 438.006 542.198 437.489 542.717C437.489 543.236 436.456 543.236 435.94 542.717C435.423 542.198 434.906 542.198 434.39 542.198C433.873 542.198 433.356 542.198 432.84 542.198C432.323 542.198 431.806 542.198 430.773 542.717C430.256 542.717 429.223 542.717 428.707 542.717C428.19 542.717 427.673 541.679 427.673 541.16C427.673 540.641 427.673 540.122 427.157 539.603C427.157 539.084 426.64 538.565 426.64 538.046C426.64 537.527 426.123 537.008 426.64 536.489C426.64 535.971 426.64 534.933 427.157 534.414C427.157 533.895 427.673 532.857 428.19 532.338C428.707 531.819 429.223 531.3 429.74 530.781C430.257 530.262 430.773 529.743 430.773 529.224C430.773 528.705 431.29 528.186 432.323 528.186C432.84 528.186 433.873 528.186 433.873 527.667C434.39 527.148 434.906 527.148 435.423 527.148C435.94 527.148 436.973 527.148 437.489 527.148C438.006 527.148 439.039 527.667 439.039 528.186C439.556 528.705 440.073 529.224 440.589 529.743C441.106 530.262 441.623 530.781 441.623 531.3C441.623 531.819 441.623 532.857 442.139 532.857C442.656 534.414 442.139 535.452 442.139 535.97Z" fill="url(#paint30_radial_275_1003)"/>
<path d="M381.491 396.457C381.491 396.987 381.491 398.047 382.008 398.578C382.525 399.108 382.525 400.168 382.525 400.699C382.525 401.229 382.008 402.29 381.491 402.82C380.974 403.35 380.457 403.88 379.94 404.411C379.423 404.941 378.389 405.471 377.872 405.471C377.355 405.471 376.321 406.001 375.287 407.062C374.77 407.592 373.736 407.592 372.702 407.062C372.185 406.532 370.634 406.001 370.117 406.001C369.6 406.001 368.566 405.471 368.049 405.471C367.532 405.471 366.498 405.471 365.464 405.471C364.947 405.471 363.913 405.471 363.396 404.941C362.879 404.411 362.362 403.88 362.362 402.82C362.362 402.29 361.846 401.229 361.846 400.699C361.846 400.168 361.329 399.108 360.812 398.578C360.812 398.047 360.295 396.987 360.812 396.457C360.812 395.926 360.812 394.866 361.329 393.805C361.329 393.275 361.846 392.215 362.362 391.684C362.879 391.154 363.913 390.624 364.43 390.093C364.947 389.563 365.464 389.033 365.981 387.972C366.498 387.442 367.015 386.912 368.049 386.912C368.566 386.912 369.6 386.912 370.117 386.912C370.634 386.382 371.668 386.382 372.185 386.912C372.702 386.912 373.736 387.442 374.253 387.442C374.77 387.442 375.804 387.972 376.321 388.503C376.838 389.033 377.355 390.093 377.872 390.093C378.389 390.093 378.906 391.154 379.423 392.215C379.423 392.745 379.94 393.805 380.457 394.336C381.491 394.866 381.491 395.926 381.491 396.457Z" fill="url(#paint31_radial_275_1003)"/>
<path opacity="0.7" d="M504.169 504.332C504.169 504.845 504.169 505.87 504.687 506.383C505.205 506.896 505.205 507.921 505.205 508.434C505.205 508.947 504.687 509.972 504.169 510.485C503.652 510.998 503.134 511.51 502.616 512.023C502.098 512.536 501.062 513.049 500.544 513.049C500.026 513.049 498.991 513.561 497.955 514.587C496.919 515.612 496.401 515.1 495.365 514.587C494.848 514.074 493.294 513.561 492.776 513.561C493.294 513.561 492.258 513.561 491.74 513.561C491.222 513.561 490.187 513.561 489.151 513.561C488.633 513.561 487.597 513.561 487.079 513.049C486.561 512.536 486.044 512.023 486.044 510.998C486.044 510.485 485.526 509.46 485.526 508.947C485.526 508.434 485.008 507.409 484.49 506.896C484.49 506.383 483.972 505.358 484.49 504.845C484.49 504.332 484.49 503.307 485.008 502.281C485.008 501.768 485.526 500.743 486.044 500.23C486.561 499.717 487.597 499.205 488.115 498.692C488.633 498.179 489.151 497.666 489.669 496.641C490.187 495.616 490.705 495.616 491.74 495.616C492.258 495.616 493.294 495.616 493.812 495.616C494.33 495.103 495.365 495.103 495.883 495.616C496.401 495.616 497.437 496.128 497.955 496.128C498.473 496.128 499.509 496.641 500.026 497.154C500.544 497.666 501.062 498.692 501.58 498.692C502.098 499.205 502.616 499.717 503.134 500.743C503.134 501.256 503.652 502.281 504.169 502.794C504.169 502.794 504.169 503.819 504.169 504.332Z" fill="url(#paint32_radial_275_1003)"/>
<path opacity="0.7" d="M490.244 352.254C490.244 352.788 490.244 353.321 490.244 353.854C490.244 354.387 490.244 354.92 490.244 355.453C490.244 355.986 489.704 356.519 489.704 356.519C489.164 357.052 488.623 357.052 488.623 357.585C488.083 358.118 487.543 358.118 487.543 358.118C487.003 358.118 486.462 358.651 486.462 359.184C485.922 359.718 485.382 359.718 484.841 359.184C484.301 358.651 483.761 358.651 483.221 358.651C482.68 358.651 482.14 358.651 482.14 358.118C481.6 358.118 481.06 358.118 480.519 358.118C479.979 358.118 479.439 358.118 478.899 357.585C478.358 357.585 478.358 356.519 478.358 356.519C478.358 355.986 478.358 355.453 477.818 354.92C477.818 354.387 477.278 353.854 477.278 353.321C477.278 352.788 477.278 352.254 477.278 351.721C477.278 351.188 477.278 350.655 477.278 350.122C477.278 349.589 477.818 349.056 477.818 348.523C478.358 347.99 478.899 347.99 478.899 347.457C479.439 347.457 479.979 346.924 479.979 346.391C479.979 345.858 480.519 345.858 481.06 345.858C481.6 345.858 482.14 345.858 482.68 345.858C483.221 345.858 483.761 345.324 484.301 345.858C484.841 345.858 485.382 345.858 485.922 345.858C486.462 345.858 487.002 346.391 487.002 346.391C487.543 346.924 487.543 347.457 488.083 347.457C488.623 347.457 488.623 347.99 489.164 348.523C489.704 349.056 489.704 349.589 489.704 350.122C489.704 350.655 490.244 351.721 490.244 352.254Z" fill="url(#paint33_radial_275_1003)"/>
<g style="mix-blend-mode:soft-light">
<path d="M392 584C498.039 584 584 498.039 584 392C584 285.961 498.039 200 392 200C285.961 200 200 285.961 200 392C200 498.039 285.961 584 392 584Z" fill="url(#paint34_radial_275_1003)"/>
</g>
<g style="mix-blend-mode:overlay">
<path d="M392 584C498.039 584 584 498.039 584 392C584 285.961 498.039 200 392 200C285.961 200 200 285.961 200 392C200 498.039 285.961 584 392 584Z" fill="url(#paint35_radial_275_1003)"/>
</g>
<g style="mix-blend-mode:screen">
<path d="M392 584C498.039 584 584 498.039 584 392C584 285.961 498.039 200 392 200C285.961 200 200 285.961 200 392C200 498.039 285.961 584 392 584Z" fill="url(#paint36_radial_275_1003)"/>
</g>
<defs>
<filter id="filter0_d_275_1003" x="0" y="0" width="784" height="784" filterUnits="userSpaceOnUse" color-interpolation-filters="sRGB">
<feFlood flood-opacity="0" result="BackgroundImageFix"/>
<feColorMatrix in="SourceAlpha" type="matrix" values="0 0 0 0 0 0 0 0 0 0 0 0 0 0 0 0 0 0 127 0" result="hardAlpha"/>
<feOffset/>
<feGaussianBlur stdDeviation="100"/>
<feComposite in2="hardAlpha" operator="out"/>
<feColorMatrix type="matrix" values="0 0 0 0 0.647059 0 0 0 0 0.513726 0 0 0 0 0.384314 0 0 0 1 0"/>
<feBlend mode="normal" in2="BackgroundImageFix" result="effect1_dropShadow_275_1003"/>
<feBlend mode="normal" in="SourceGraphic" in2="effect1_dropShadow_275_1003" result="shape"/>
</filter>
<radialGradient id="paint0_radial_275_1003" cx="0" cy="0" r="1" gradientUnits="userSpaceOnUse" gradientTransform="translate(419.926 318.638) scale(97.9713 98.1082)">
<stop stop-color="#BEA289"/>
<stop offset="1"/>
</radialGradient>
<radialGradient id="paint1_radial_275_1003" cx="0" cy="0" r="1" gradientUnits="userSpaceOnUse" gradientTransform="translate(219.494 352.394) scale(67.2291 67.3417)">
<stop stop-color="#BEA289"/>
<stop offset="1"/>
</radialGradient>
<radialGradient id="paint2_radial_275_1003" cx="0" cy="0" r="1" gradientUnits="userSpaceOnUse" gradientTransform="translate(275.221 481.954) scale(37.9883 37.8112)">
<stop stop-color="#BEA289"/>
<stop offset="1"/>
</radialGradient>
<radialGradient id="paint3_radial_275_1003" cx="0" cy="0" r="1" gradientUnits="userSpaceOnUse" gradientTransform="translate(430.259 517.614) scale(35.5795 35.5754)">
<stop stop-color="#BEA289"/>
<stop offset="1"/>
</radialGradient>
<radialGradient id="paint4_radial_275_1003" cx="0" cy="0" r="1" gradientUnits="userSpaceOnUse" gradientTransform="translate(329.216 247.882) scale(71.4201 70.8775)">
<stop stop-color="#BEA289"/>
<stop offset="1"/>
</radialGradient>
<radialGradient id="paint5_radial_275_1003" cx="0" cy="0" r="1" gradientUnits="userSpaceOnUse" gradientTransform="translate(363.279 269.282) scale(19.3819 19.0277)">
<stop stop-color="#8D5E41"/>
<stop offset="0.427" stop-color="#8A5C3F"/>
<stop offset="0.7838" stop-color="#7F553B"/>
<stop offset="1" stop-color="#754E36"/>
</radialGradient>
<radialGradient id="paint6_radial_275_1003" cx="0" cy="0" r="1" gradientUnits="userSpaceOnUse" gradientTransform="translate(342.45 465.033) scale(21.0342 21.2874)">
<stop stop-color="#8D5E41"/>
<stop offset="0.427" stop-color="#8A5C3F"/>
<stop offset="0.7838" stop-color="#7F553B"/>
<stop offset="1" stop-color="#754E36"/>
</radialGradient>
<radialGradient id="paint7_radial_275_1003" cx="0" cy="0" r="1" gradientUnits="userSpaceOnUse" gradientTransform="translate(495.187 447.947) scale(20.9985 21.2874)">
<stop stop-color="#8D5E41"/>
<stop offset="0.427" stop-color="#8A5C3F"/>
<stop offset="0.7838" stop-color="#7F553B"/>
<stop offset="1" stop-color="#754E36"/>
</radialGradient>
<radialGradient id="paint8_radial_275_1003" cx="0" cy="0" r="1" gradientUnits="userSpaceOnUse" gradientTransform="translate(452.997 344.097) rotate(20.9842) scale(20.9025 20.8286)">
<stop stop-color="#8D5E41"/>
<stop offset="0.427" stop-color="#8A5C3F"/>
<stop offset="0.7838" stop-color="#7F553B"/>
<stop offset="1" stop-color="#754E36"/>
</radialGradient>
<radialGradient id="paint9_radial_275_1003" cx="0" cy="0" r="1" gradientUnits="userSpaceOnUse" gradientTransform="translate(306.253 335.356) scale(6.2472 5.98324)">
<stop stop-color="#8D5E41"/>
<stop offset="0.427" stop-color="#8A5C3F"/>
<stop offset="0.7838" stop-color="#7F553B"/>
<stop offset="1" stop-color="#754E36"/>
</radialGradient>
<radialGradient id="paint10_radial_275_1003" cx="0" cy="0" r="1" gradientUnits="userSpaceOnUse" gradientTransform="translate(310.942 275.607) scale(6.03229 6.11725)">
<stop stop-color="#8D5E41"/>
<stop offset="0.427" stop-color="#8A5C3F"/>
<stop offset="0.7838" stop-color="#7F553B"/>
<stop offset="1" stop-color="#754E36"/>
</radialGradient>
<radialGradient id="paint11_radial_275_1003" cx="0" cy="0" r="1" gradientUnits="userSpaceOnUse" gradientTransform="translate(426.004 243.4) scale(6.03229 6.11725)">
<stop stop-color="#8D5E41"/>
<stop offset="0.427" stop-color="#8A5C3F"/>
<stop offset="0.7838" stop-color="#7F553B"/>
<stop offset="1" stop-color="#754E36"/>
</radialGradient>
<radialGradient id="paint12_radial_275_1003" cx="0" cy="0" r="1" gradientUnits="userSpaceOnUse" gradientTransform="translate(465.9 292.573) scale(6.03229 6.11725)">
<stop stop-color="#8D5E41"/>
<stop offset="0.427" stop-color="#8A5C3F"/>
<stop offset="0.7838" stop-color="#7F553B"/>
<stop offset="1" stop-color="#754E36"/>
</radialGradient>
<radialGradient id="paint13_radial_275_1003" cx="0" cy="0" r="1" gradientUnits="userSpaceOnUse" gradientTransform="translate(389.548 296.36) scale(11.7337 11.8323)">
<stop stop-color="#8D5E41"/>
<stop offset="0.427" stop-color="#8A5C3F"/>
<stop offset="0.7838" stop-color="#7F553B"/>
<stop offset="1" stop-color="#754E36"/>
</radialGradient>
<radialGradient id="paint14_radial_275_1003" cx="0" cy="0" r="1" gradientUnits="userSpaceOnUse" gradientTransform="translate(434.577 447.269) scale(7.39973 7.89304)">
<stop stop-color="#8D5E41"/>
<stop offset="0.427" stop-color="#8A5C3F"/>
<stop offset="0.7838" stop-color="#7F553B"/>
<stop offset="1" stop-color="#754E36"/>
</radialGradient>
<radialGradient id="paint15_radial_275_1003" cx="0" cy="0" r="1" gradientUnits="userSpaceOnUse" gradientTransform="translate(315.541 419.325) scale(8.23249 8.12618)">
<stop stop-color="#8D5E41"/>
<stop offset="0.427" stop-color="#8A5C3F"/>
<stop offset="0.7838" stop-color="#7F553B"/>
<stop offset="1" stop-color="#754E36"/>
</radialGradient>
<radialGradient id="paint16_radial_275_1003" cx="0" cy="0" r="1" gradientUnits="userSpaceOnUse" gradientTransform="translate(410.475 507.814) scale(8.11684 8.12618)">
<stop stop-color="#8D5E41"/>
<stop offset="0.427" stop-color="#8A5C3F"/>
<stop offset="0.7838" stop-color="#7F553B"/>
<stop offset="1" stop-color="#754E36"/>
</radialGradient>
<radialGradient id="paint17_radial_275_1003" cx="0" cy="0" r="1" gradientUnits="userSpaceOnUse" gradientTransform="translate(502.236 419.325) scale(8.11684 8.12618)">
<stop stop-color="#8D5E41"/>
<stop offset="0.427" stop-color="#8A5C3F"/>
<stop offset="0.7838" stop-color="#7F553B"/>
<stop offset="1" stop-color="#754E36"/>
</radialGradient>
<radialGradient id="paint18_radial_275_1003" cx="0" cy="0" r="1" gradientUnits="userSpaceOnUse" gradientTransform="translate(330.265 407.228) scale(11.7797 11.7044)">
<stop stop-color="#8D5E41"/>
<stop offset="0.427" stop-color="#8A5C3F"/>
<stop offset="0.7838" stop-color="#7F553B"/>
<stop offset="1" stop-color="#754E36"/>
</radialGradient>
<radialGradient id="paint19_radial_275_1003" cx="0" cy="0" r="1" gradientUnits="userSpaceOnUse" gradientTransform="translate(288.792 271.688) scale(10.9504 11.0457)">
<stop stop-color="#8D5E41"/>
<stop offset="0.427" stop-color="#8A5C3F"/>
<stop offset="0.7838" stop-color="#7F553B"/>
<stop offset="1" stop-color="#754E36"/>
</radialGradient>
<radialGradient id="paint20_radial_275_1003" cx="0" cy="0" r="1" gradientUnits="userSpaceOnUse" gradientTransform="translate(233.041 363.697) scale(10.3223 9.86897)">
<stop stop-color="#8D5E41"/>
<stop offset="0.427" stop-color="#8A5C3F"/>
<stop offset="0.7838" stop-color="#7F553B"/>
<stop offset="1" stop-color="#754E36"/>
</radialGradient>
<radialGradient id="paint21_radial_275_1003" cx="0" cy="0" r="1" gradientUnits="userSpaceOnUse" gradientTransform="translate(538.306 370.689) scale(10.3223 9.86897)">
<stop stop-color="#8D5E41"/>
<stop offset="0.427" stop-color="#8A5C3F"/>
<stop offset="0.7838" stop-color="#7F553B"/>
<stop offset="1" stop-color="#754E36"/>
</radialGradient>
<radialGradient id="paint22_radial_275_1003" cx="0" cy="0" r="1" gradientUnits="userSpaceOnUse" gradientTransform="translate(263.91 421.325) scale(15.1363 14.584)">
<stop stop-color="#8D5E41"/>
<stop offset="0.427" stop-color="#8A5C3F"/>
<stop offset="0.7838" stop-color="#7F553B"/>
<stop offset="1" stop-color="#754E36"/>
</radialGradient>
<radialGradient id="paint23_radial_275_1003" cx="0" cy="0" r="1" gradientUnits="userSpaceOnUse" gradientTransform="translate(280.974 326.897) scale(12.6209 12.6329)">
<stop stop-color="#8D5E41"/>
<stop offset="0.427" stop-color="#8A5C3F"/>
<stop offset="0.7838" stop-color="#7F553B"/>
<stop offset="1" stop-color="#754E36"/>
</radialGradient>
<radialGradient id="paint24_radial_275_1003" cx="0" cy="0" r="1" gradientUnits="userSpaceOnUse" gradientTransform="translate(276.661 495.285) scale(12.9983 12.6329)">
<stop stop-color="#8D5E41"/>
<stop offset="0.427" stop-color="#8A5C3F"/>
<stop offset="0.7838" stop-color="#7F553B"/>
<stop offset="1" stop-color="#754E36"/>
</radialGradient>
<radialGradient id="paint25_radial_275_1003" cx="0" cy="0" r="1" gradientUnits="userSpaceOnUse" gradientTransform="translate(504.24 304.153) scale(12.9983 13.0339)">
<stop stop-color="#8D5E41"/>
<stop offset="0.427" stop-color="#8A5C3F"/>
<stop offset="0.7838" stop-color="#7F553B"/>
<stop offset="1" stop-color="#754E36"/>
</radialGradient>
<radialGradient id="paint26_radial_275_1003" cx="0" cy="0" r="1" gradientUnits="userSpaceOnUse" gradientTransform="translate(532.339 462.528) scale(12.5649 12.6329)">
<stop stop-color="#8D5E41"/>
<stop offset="0.427" stop-color="#8A5C3F"/>
<stop offset="0.7838" stop-color="#7F553B"/>
<stop offset="1" stop-color="#754E36"/>
</radialGradient>
<radialGradient id="paint27_radial_275_1003" cx="0" cy="0" r="1" gradientUnits="userSpaceOnUse" gradientTransform="translate(334.654 532.533) scale(12.6209 12.6329)">
<stop stop-color="#8D5E41"/>
<stop offset="0.427" stop-color="#8A5C3F"/>
<stop offset="0.7838" stop-color="#7F553B"/>
<stop offset="1" stop-color="#754E36"/>
</radialGradient>
<radialGradient id="paint28_radial_275_1003" cx="0" cy="0" r="1" gradientUnits="userSpaceOnUse" gradientTransform="translate(305.117 368.902) scale(15.4562)">
<stop stop-color="#8D5E41"/>
<stop offset="0.427" stop-color="#8A5C3F"/>
<stop offset="0.7838" stop-color="#7F553B"/>
<stop offset="1" stop-color="#754E36"/>
</radialGradient>
<radialGradient id="paint29_radial_275_1003" cx="0" cy="0" r="1" gradientUnits="userSpaceOnUse" gradientTransform="translate(354.357 327.152) scale(11.1959 11.3577)">
<stop stop-color="#8D5E41"/>
<stop offset="0.427" stop-color="#8A5C3F"/>
<stop offset="0.7838" stop-color="#7F553B"/>
<stop offset="1" stop-color="#754E36"/>
</radialGradient>
<radialGradient id="paint30_radial_275_1003" cx="0" cy="0" r="1" gradientUnits="userSpaceOnUse" gradientTransform="translate(438.076 540.293) scale(11.3067 11.3577)">
<stop stop-color="#8D5E41"/>
<stop offset="0.427" stop-color="#8A5C3F"/>
<stop offset="0.7838" stop-color="#7F553B"/>
<stop offset="1" stop-color="#754E36"/>
</radialGradient>
<radialGradient id="paint31_radial_275_1003" cx="0" cy="0" r="1" gradientUnits="userSpaceOnUse" gradientTransform="translate(376.8 402.939) scale(15.5368 15.936)">
<stop stop-color="#8D5E41"/>
<stop offset="0.427" stop-color="#8A5C3F"/>
<stop offset="0.7838" stop-color="#7F553B"/>
<stop offset="1" stop-color="#754E36"/>
</radialGradient>
<radialGradient id="paint32_radial_275_1003" cx="0" cy="0" r="1" gradientUnits="userSpaceOnUse" gradientTransform="translate(499.479 510.564) scale(15.5639 15.4094)">
<stop stop-color="#8D5E41"/>
<stop offset="0.427" stop-color="#8A5C3F"/>
<stop offset="0.7838" stop-color="#7F553B"/>
<stop offset="1" stop-color="#754E36"/>
</radialGradient>
<radialGradient id="paint33_radial_275_1003" cx="0" cy="0" r="1" gradientUnits="userSpaceOnUse" gradientTransform="translate(486.408 356.716) scale(9.97428 9.84165)">
<stop stop-color="#8D5E41"/>
<stop offset="0.427" stop-color="#8A5C3F"/>
<stop offset="0.7838" stop-color="#7F553B"/>
<stop offset="1" stop-color="#754E36"/>
</radialGradient>
<radialGradient id="paint34_radial_275_1003" cx="0" cy="0" r="1" gradientUnits="userSpaceOnUse" gradientTransform="translate(342.126 346.049) scale(216.138)">
<stop stop-color="white"/>
<stop offset="0.0916549" stop-color="#F9F9F9"/>
<stop offset="0.2174" stop-color="#E7E7E7"/>
<stop offset="0.3628" stop-color="#CACACA"/>
<stop offset="0.5231" stop-color="#A2A2A2"/>
<stop offset="0.6955" stop-color="#6E6E6E"/>
<stop offset="0.8752" stop-color="#303030"/>
<stop offset="1"/>
</radialGradient>
<radialGradient id="paint35_radial_275_1003" cx="0" cy="0" r="1" gradientUnits="userSpaceOnUse" gradientTransform="translate(316.839 308.992) scale(334.172)">
<stop stop-color="#999999"/>
<stop offset="0.125" stop-color="#898989"/>
<stop offset="0.5209" stop-color="#5A5A5A"/>
<stop offset="0.8254" stop-color="#3E3E3E"/>
<stop offset="1" stop-color="#333333"/>
</radialGradient>
<radialGradient id="paint36_radial_275_1003" cx="0" cy="0" r="1" gradientUnits="userSpaceOnUse" gradientTransform="translate(373.297 383.76) scale(253.097)">
<stop offset="0.7677"/>
<stop offset="1" stop-color="#999999"/>
</radialGradient>
</defs>
</svg>
