<svg width="784" height="784" viewBox="0 0 784 784" fill="none" xmlns="http://www.w3.org/2000/svg">
<g filter="url(#filter0_d_275_972)">
<path d="M392 584C498.039 584 584 498.039 584 392C584 285.961 498.039 200 392 200C285.961 200 200 285.961 200 392C200 498.039 285.961 584 392 584Z" fill="#3176CF"/>
</g>
<g opacity="0.7">
<path opacity="0.6" d="M360.156 247.842C409.453 246.81 458.227 243.197 507 237.002C498.609 230.808 489.693 225.646 480.778 221C420.991 228.227 361.204 230.808 302.467 222.032C291.453 227.711 280.44 234.937 271 242.68C300.369 247.842 330.262 248.359 360.156 247.842Z" fill="#2979E2"/>
<path opacity="0.8" d="M269.305 312.709C306.998 318.444 343.121 332 381.338 332C403.326 332 424.791 327.829 445.731 323.658C484.472 316.359 523.736 310.103 563 304.368C557.241 292.376 549.912 281.427 541.536 271C441.543 284.034 340.504 285.077 240.511 273.607H239.988C231.612 284.556 223.759 296.547 218 309.581C235.276 309.06 252.552 310.103 269.305 312.709Z" fill="#6199E2"/>
<path opacity="0.19" d="M235 502.401C246.508 518.521 260.109 532.56 275.279 544C300.911 539.84 326.543 536.2 352.175 532.04C371.007 528.92 390.361 526.321 409.716 525.801C444.241 525.281 478.766 533.08 512.767 539.84C527.937 527.361 541.015 512.801 552 496.682C446.856 484.722 340.144 486.802 235 502.401Z" fill="#71A2E2"/>
<path opacity="0.7" d="M444.975 333.579C441.317 334.105 436.09 335.684 437.136 339.368C473.721 347.789 509.261 358.316 544.801 369.895C557.868 374.105 570.934 378.842 584 382C582.955 360.947 578.773 340.947 571.456 322C529.122 325.684 486.787 329.895 444.975 333.579Z" fill="#5693E2"/>
<path opacity="0.7" d="M349.189 453.186C355.477 452.136 362.289 451.085 367.529 447.932C372.768 444.78 377.484 438.475 376.96 432.169C349.189 414.831 315.655 408 283.168 408C255.922 408 229.199 413.254 203 420.085C205.62 437.424 210.86 454.237 217.671 470C244.918 468.949 272.689 464.746 299.936 461.068C316.179 458.441 332.422 455.814 349.189 453.186Z" fill="url(#paint0_linear_275_972)"/>
</g>
<path opacity="0.2" d="M541 272.507C530.549 259.436 519.052 247.934 505.465 238C456.866 244.274 408.267 247.934 359.146 248.979C329.359 249.502 299.05 248.979 269.786 243.751C258.812 252.639 248.884 263.096 240 274.598H240.523C340.333 286.623 441.189 285.577 541 272.507Z" fill="#00197D"/>
<path opacity="0.2" d="M480 221.35C453.3 207.811 423.459 200 392.047 200C359.588 200 328.7 208.332 302 222.391C360.635 231.244 420.318 228.64 480 221.35Z" fill="#00197D"/>
<path opacity="0.1" d="M353.062 532.348C327.374 536.565 301.687 540.254 276 544.471C308.502 569.242 348.868 584 392.379 584C438.511 584 480.974 567.661 514 540.254C479.401 533.929 445.326 525.496 410.727 526.024C391.33 526.024 371.934 529.186 353.062 532.348Z" fill="url(#paint1_linear_275_972)"/>
<path opacity="0.2" d="M436.175 339.488C435.13 335.83 440.355 333.74 444.012 333.74C486.336 330.082 528.136 326.424 570.46 322.244C568.37 316.496 565.757 310.748 562.622 305C523.434 310.225 484.246 316.496 445.58 324.334C424.157 328.515 402.734 332.695 381.311 332.695C343.69 332.695 307.115 319.109 269.494 313.361C252.251 310.748 235.008 309.703 218.288 310.225C206.27 334.785 200 362.48 200 391.743C200 401.671 200.523 411.599 202.09 421.005C228.216 414.212 254.864 409.509 282.034 408.987C314.952 408.987 347.87 415.78 375.563 433.024C376.086 439.294 371.906 445.565 366.158 448.7C360.411 451.836 354.141 452.881 347.87 453.926C331.673 456.538 314.952 458.629 298.754 461.241C271.584 465.422 244.413 469.602 216.72 470.125C221.945 481.621 227.693 492.072 235.008 502C340.033 486.324 446.625 484.233 552.172 496.252C572.027 465.944 583 430.411 583 391.743C583 388.607 583 385.472 583 382.337C569.937 378.679 556.874 374.499 543.812 370.318C508.281 358.3 472.228 348.371 436.175 339.488Z" fill="url(#paint2_linear_275_972)"/>
<g style="mix-blend-mode:soft-light">
<path d="M392 584C498.039 584 584 498.039 584 392C584 285.961 498.039 200 392 200C285.961 200 200 285.961 200 392C200 498.039 285.961 584 392 584Z" fill="url(#paint3_radial_275_972)"/>
</g>
<g style="mix-blend-mode:overlay">
<path d="M392 584C498.039 584 584 498.039 584 392C584 285.961 498.039 200 392 200C285.961 200 200 285.961 200 392C200 498.039 285.961 584 392 584Z" fill="url(#paint4_radial_275_972)"/>
</g>
<g style="mix-blend-mode:screen">
<path d="M392 584C498.039 584 584 498.039 584 392C584 285.961 498.039 200 392 200C285.961 200 200 285.961 200 392C200 498.039 285.961 584 392 584Z" fill="url(#paint5_radial_275_972)"/>
</g>
<path opacity="0.5" d="M208.662 370.743C248.42 362.058 289.747 366.401 330.552 371.286C341.537 372.372 353.046 374 364.032 373.457C376.064 372.914 388.096 369.657 400.128 368.572C415.822 366.943 430.993 368.572 446.687 369.657C463.95 371.286 481.737 372.914 499 374C485.399 369.115 471.274 366.401 457.149 365.858C448.256 365.315 439.886 365.315 430.993 365.858C402.744 366.401 373.972 367.486 345.722 368.029C334.737 368.572 324.274 368.572 313.288 366.943C304.395 365.315 295.502 362.601 286.609 361.515C267.776 359.344 248.943 364.772 229.587 364.229C220.694 363.686 209.708 363.144 205 370.743H208.662Z" fill="url(#paint6_linear_275_972)"/>
<path opacity="0.2" d="M470.093 420C486.294 420 501.972 420 518.172 420.49C536.463 420.49 554.754 420.98 572 425.88C536.463 426.37 500.927 425.39 465.912 422.45C464.867 422.45 463.299 420.98 464.345 420.98L470.093 420Z" fill="url(#paint7_linear_275_972)"/>
<path opacity="0.5" d="M266.571 267.464C321.048 271.678 375.524 273.785 430 272.732C405.905 267.991 381.286 265.884 357.19 267.464C340.429 267.991 323.667 270.098 307.429 267.464C294.333 264.831 280.714 259.037 267.619 261.671C262.905 262.724 258.19 264.831 254 267.991L266.571 267.464Z" fill="url(#paint8_linear_275_972)"/>
<path opacity="0.2" d="M258.942 497.768C266.254 496.698 273.566 494.025 280.878 492.956C289.757 491.886 298.636 490.282 307.515 489.213C325.273 487.074 343.031 485.47 360.789 484.401C373.324 483.866 385.86 483.866 398.395 484.401C404.662 484.936 410.93 484.936 417.72 485.47C420.853 486.005 423.987 486.005 427.121 486.54C428.688 486.54 434.955 488.678 436 487.609C429.21 491.886 420.331 490.817 412.497 490.282C369.146 486.54 325.796 495.629 282.445 500.441C275.133 500.975 267.821 500.976 260.508 500.976C257.375 500.976 254.241 502.579 251.107 503.114C248.496 504.183 244.84 504.183 241.184 503.649C240.661 503.649 240.139 503.649 240.139 503.114C239.617 502.045 240.661 500.976 241.706 500.976C244.317 499.906 247.451 498.837 250.585 498.302C252.674 497.768 254.763 497.768 256.852 497.768C257.375 497.768 258.419 497.768 258.942 497.768Z" fill="url(#paint9_linear_275_972)"/>
<defs>
<filter id="filter0_d_275_972" x="0" y="0" width="784" height="784" filterUnits="userSpaceOnUse" color-interpolation-filters="sRGB">
<feFlood flood-opacity="0" result="BackgroundImageFix"/>
<feColorMatrix in="SourceAlpha" type="matrix" values="0 0 0 0 0 0 0 0 0 0 0 0 0 0 0 0 0 0 127 0" result="hardAlpha"/>
<feOffset/>
<feGaussianBlur stdDeviation="100"/>
<feComposite in2="hardAlpha" operator="out"/>
<feColorMatrix type="matrix" values="0 0 0 0 0.2 0 0 0 0 0.639216 0 0 0 0 0.882353 0 0 0 1 0"/>
<feBlend mode="normal" in2="BackgroundImageFix" result="effect1_dropShadow_275_972"/>
<feBlend mode="normal" in="SourceGraphic" in2="effect1_dropShadow_275_972" result="shape"/>
</filter>
<linearGradient id="paint0_linear_275_972" x1="274.232" y1="600.651" x2="290.038" y2="423.328" gradientUnits="userSpaceOnUse">
<stop stop-color="#1B1464"/>
<stop offset="0.4072" stop-color="#2165A3"/>
<stop offset="1" stop-color="#2ADBFF"/>
</linearGradient>
<linearGradient id="paint1_linear_275_972" x1="420.735" y1="569.262" x2="363.566" y2="509.535" gradientUnits="userSpaceOnUse">
<stop stop-color="#1B1464"/>
<stop offset="1" stop-color="#2ADBFF"/>
</linearGradient>
<linearGradient id="paint2_linear_275_972" x1="411.65" y1="459.954" x2="354.166" y2="260.082" gradientUnits="userSpaceOnUse">
<stop stop-color="#1B1464"/>
<stop offset="1" stop-color="#2ADBFF"/>
</linearGradient>
<radialGradient id="paint3_radial_275_972" cx="0" cy="0" r="1" gradientUnits="userSpaceOnUse" gradientTransform="translate(342.126 346.05) scale(216.138)">
<stop stop-color="white"/>
<stop offset="0.0916549" stop-color="#F9F9F9"/>
<stop offset="0.2174" stop-color="#E7E7E7"/>
<stop offset="0.3628" stop-color="#CACACA"/>
<stop offset="0.5231" stop-color="#A2A2A2"/>
<stop offset="0.6955" stop-color="#6E6E6E"/>
<stop offset="0.8752" stop-color="#303030"/>
<stop offset="1"/>
</radialGradient>
<radialGradient id="paint4_radial_275_972" cx="0" cy="0" r="1" gradientUnits="userSpaceOnUse" gradientTransform="translate(316.839 308.992) scale(334.172)">
<stop stop-color="white"/>
<stop offset="0.0669381" stop-color="#E9E9E9"/>
<stop offset="0.3323" stop-color="#979797"/>
<stop offset="0.5676" stop-color="#565656"/>
<stop offset="0.764" stop-color="#282828"/>
<stop offset="0.9141" stop-color="#0B0B0B"/>
<stop offset="1"/>
</radialGradient>
<radialGradient id="paint5_radial_275_972" cx="0" cy="0" r="1" gradientUnits="userSpaceOnUse" gradientTransform="translate(382.889 390.736) scale(225.045)">
<stop offset="0.7677"/>
<stop offset="1" stop-color="#2A22FF"/>
</radialGradient>
<linearGradient id="paint6_linear_275_972" x1="204.943" y1="367.516" x2="498.838" y2="367.516" gradientUnits="userSpaceOnUse">
<stop stop-color="#2ADBFF"/>
<stop offset="1"/>
</linearGradient>
<linearGradient id="paint7_linear_275_972" x1="463.873" y1="422.798" x2="571.714" y2="422.798" gradientUnits="userSpaceOnUse">
<stop stop-color="#2ADBFF"/>
<stop offset="0.5928" stop-color="#2165A3"/>
<stop offset="1" stop-color="#1B1464"/>
</linearGradient>
<linearGradient id="paint8_linear_275_972" x1="253.834" y1="266.903" x2="429.955" y2="266.903" gradientUnits="userSpaceOnUse">
<stop stop-color="#2ADBFF"/>
<stop offset="1"/>
</linearGradient>
<linearGradient id="paint9_linear_275_972" x1="239.6" y1="493.94" x2="436.186" y2="493.94" gradientUnits="userSpaceOnUse">
<stop stop-color="#2ADBFF"/>
<stop offset="0.5928" stop-color="#2165A3"/>
<stop offset="1" stop-color="#1B1464"/>
</linearGradient>
</defs>
</svg>
