<svg width="653" height="652" viewBox="0 0 653 652" fill="none" xmlns="http://www.w3.org/2000/svg">
<g filter="url(#filter0_d_275_902)">
<path d="M326.5 452C396.364 452 453 395.588 453 326C453 256.412 396.364 200 326.5 200C256.636 200 200 256.412 200 326C200 395.588 256.636 452 326.5 452Z" fill="#AC7347"/>
</g>
<mask id="mask0_275_902" style="mask-type:alpha" maskUnits="userSpaceOnUse" x="200" y="200" width="253" height="252">
<path d="M326.5 452C396.364 452 453 395.588 453 326C453 256.412 396.364 200 326.5 200C256.636 200 200 256.412 200 326C200 395.588 256.636 452 326.5 452Z" fill="#AC7347"/>
</mask>
<g mask="url(#mask0_275_902)">
<path d="M349.207 261.898C377.587 261.195 405.62 260.492 434 259.789C432.27 256.625 430.193 253.812 428.116 251C360.282 255.922 291.756 255.922 223.922 251C221.499 254.164 219.423 257.68 217 261.195C260.954 264.008 305.254 262.953 349.207 261.898Z" fill="url(#paint0_linear_275_902)"/>
<path d="M415 236.273C408.095 229.245 400.155 222.92 391.869 218C346.643 223.623 301.071 224.677 255.845 221.163C250.667 224.677 245.488 228.894 241 233.111C254.81 234.516 268.964 235.219 283.119 235.571C326.619 237.679 371.155 239.436 415 236.273Z" fill="#8D5E41"/>
<path d="M393 218.77C373.386 206.729 350.619 200 326.452 200C300.183 200 275.315 208.145 255 221.957C300.883 225.498 347.117 224.436 393 218.77Z" fill="url(#paint1_linear_275_902)"/>
<path d="M428 251.362C424.222 245.819 419.756 240.969 414.948 236.118C371.325 239.236 327.359 237.157 283.393 235.425C269.31 234.732 255.57 234.039 241.487 233C235.305 238.543 229.809 244.78 225 251.362C292.667 256.213 360.333 256.213 428 251.362Z" fill="url(#paint2_linear_275_902)"/>
<path d="M445.124 367.314C448.906 356.168 451.312 344.326 452 332.135C368.115 340.843 283.198 342.236 200 329C200.344 340.146 202.063 350.944 204.813 361.045C284.917 365.224 365.02 369.752 445.124 367.314Z" fill="#8C4F39"/>
<path d="M223 398.325C225.762 402.414 228.87 406.163 232.323 409.911C293.786 408.889 355.595 410.252 416.713 414C419.821 410.933 422.583 407.866 425 404.8C357.667 400.029 290.333 396.962 223 398.325Z" fill="url(#paint3_linear_275_902)"/>
<path d="M205 360C208.777 373.75 214.957 386.469 223.197 397.813C290.15 396.438 357.446 399.531 424.399 404C433.326 393 440.193 380.281 445 366.531C365 368.938 285 364.469 205 360Z" fill="url(#paint4_linear_275_902)"/>
<path d="M251 426.251C272.137 442.257 298.819 452 327.233 452C354.26 452 379.556 443.301 400 429.035C350.449 426.251 300.898 425.555 251 426.251Z" fill="#8C4F39"/>
<path d="M233 410.331C238.503 416.441 244.35 421.872 251.228 426.624C300.753 425.945 349.935 426.624 399.46 429C405.65 424.587 411.841 419.835 417 414.065C355.437 410.67 294.219 409.312 233 410.331Z" fill="#8C4F39"/>
<g style="mix-blend-mode:soft-light">
<path d="M326.5 452C396.364 452 453 395.588 453 326C453 256.412 396.364 200 326.5 200C256.636 200 200 256.412 200 326C200 395.588 256.636 452 326.5 452Z" fill="url(#paint5_radial_275_902)"/>
</g>
<g style="mix-blend-mode:overlay" opacity="0.6">
<path d="M326.5 452C396.364 452 453 395.588 453 326C453 256.412 396.364 200 326.5 200C256.636 200 200 256.412 200 326C200 395.588 256.636 452 326.5 452Z" fill="url(#paint6_radial_275_902)"/>
</g>
<g style="mix-blend-mode:screen">
<path d="M326.5 452C396.364 452 453 395.588 453 326C453 256.412 396.364 200 326.5 200C256.636 200 200 256.412 200 326C200 395.588 256.636 452 326.5 452Z" fill="url(#paint7_radial_275_902)"/>
</g>
</g>
<mask id="mask1_275_902" style="mask-type:alpha" maskUnits="userSpaceOnUse" x="99" y="234" width="454" height="192">
<path d="M553 234H99V426H553V234Z" fill="url(#paint8_linear_275_902)"/>
</mask>
<g mask="url(#mask1_275_902)">
<mask id="mask2_275_902" style="mask-type:alpha" maskUnits="userSpaceOnUse" x="99" y="207" width="455" height="185">
<path d="M99 392C99 289.67 200.662 207 326.5 207C452.338 207 554 289.67 554 392H99Z" fill="black"/>
</mask>
<g mask="url(#mask2_275_902)">
<path d="M535 328.094C534.655 314.734 522.583 304.8 496.369 296.921C457.739 284.932 393.93 279.793 325.293 282.876C270.797 285.274 219.405 292.468 180.774 303.087C117.31 320.557 118 339.74 118 345.906C118.345 359.266 130.417 369.2 156.631 377.079C195.261 389.068 259.07 394.207 327.707 391.124C382.203 388.726 433.595 381.532 472.226 370.913C535.689 353.443 535 334.26 535 328.094ZM173.876 358.238C148.698 350.36 148.008 342.823 147.663 341.796C147.663 337 158.01 326.038 197.675 315.419C229.407 306.855 271.142 301.032 315.98 298.634C319.084 298.634 322.189 298.291 325.293 298.291C387.722 295.551 444.977 300.004 478.779 310.623C503.958 318.502 504.647 326.038 504.992 327.066C504.992 331.862 494.645 342.823 454.98 353.443C423.248 362.007 381.514 367.83 336.675 370.228C333.571 370.228 330.466 370.57 327.362 370.57C264.933 372.968 207.678 368.515 173.876 358.238Z" fill="#81A69E"/>
<path d="M487 327.687C487 322.917 482.168 319.511 472.158 316.445C446.271 308.609 388.975 305.203 325.812 307.928C261.267 310.653 165.313 321.895 166.004 341.313C166.004 346.083 170.836 349.489 180.845 352.555C206.732 360.391 264.028 363.797 327.192 361.072C369.646 359.369 409.685 354.94 439.713 349.149C487 339.61 487 330.753 487 327.687ZM326.847 356.643C264.028 359.369 206.732 355.962 181.191 348.127C169.11 344.379 168.765 340.973 168.765 340.973C168.42 331.775 228.132 316.104 325.466 312.016C388.285 309.291 445.581 312.697 471.123 320.533C483.203 324.28 483.548 327.687 483.548 327.687C483.548 328.027 483.203 335.863 438.678 344.72C408.994 350.511 369.301 354.94 326.847 356.643Z" fill="#81A69E"/>
<path d="M487 327.687C487 322.917 482.168 319.511 472.158 316.445C446.271 308.609 388.975 305.203 325.811 307.928C323.74 307.928 321.324 308.269 319.253 308.269C301.304 309.291 283.701 310.653 267.479 312.357C267.134 312.357 266.788 312.357 266.443 312.357C266.098 312.357 265.753 312.357 265.753 312.357C214.324 317.807 165.657 327.346 166.002 341.313C166.002 346.083 170.834 349.489 180.844 352.555C206.731 360.391 264.027 363.797 327.191 361.072C329.262 361.072 330.988 360.731 333.059 360.731C373.443 358.687 411.065 354.599 439.368 349.149C487 339.61 487 330.753 487 327.687ZM190.163 348.467C177.737 344.72 177.392 341.313 177.392 340.973C177.392 340.632 177.737 332.797 219.847 323.939C246.424 318.489 280.94 314.401 318.562 312.697C320.978 312.697 323.74 312.357 326.156 312.357C384.488 309.972 437.987 313.038 462.839 320.533C475.265 324.28 475.61 327.687 475.61 328.027C475.955 336.544 429.704 349.83 352.388 355.281C352.043 355.281 352.043 355.281 351.698 355.281C349.627 355.281 347.556 355.621 345.14 355.621C344.449 355.621 343.759 355.621 343.069 355.621C341.343 355.621 339.272 355.962 337.201 355.962C336.511 355.962 335.475 355.962 334.785 355.962C332.023 355.962 329.262 356.303 326.501 356.303C268.514 359.028 214.669 355.962 190.163 348.467Z" fill="#81A69E"/>
</g>
<path d="M534.697 325.194C534.352 311.833 522.288 301.898 496.091 294.018C457.485 282.028 393.716 276.889 325.121 279.972C270.659 282.37 219.299 289.565 180.693 300.185C117.269 317.657 117.958 336.5 117.958 343.009C118.303 356.37 130.367 366.305 156.564 374.185C195.17 386.176 258.939 391.315 327.534 388.231C381.996 385.833 433.356 378.639 471.962 368.018C535.386 350.546 534.697 331.361 534.697 325.194ZM173.799 355.342C148.636 347.463 147.947 339.926 147.602 338.898C147.602 334.102 157.943 323.139 197.583 312.518C229.295 303.954 271.004 298.13 315.814 295.731C318.917 295.731 322.019 295.389 325.121 295.389C387.511 292.648 444.731 297.102 478.511 307.722C503.674 315.602 504.364 323.139 504.708 324.167C504.708 328.963 494.367 339.926 454.727 350.546C423.015 358.426 381.307 364.592 336.496 366.991C333.394 366.991 330.292 367.333 327.189 367.333C264.799 370.074 207.58 365.62 173.799 355.342Z" fill="url(#paint9_linear_275_902)"/>
<path d="M486.784 324.167C486.784 319.371 481.958 315.945 471.962 312.862C446.11 304.982 388.89 301.556 325.811 304.297C323.742 304.297 321.33 304.64 319.261 304.64C315.814 304.982 312.023 304.982 308.231 305.325C305.818 305.325 303.75 305.667 301.337 305.667C300.648 305.667 299.958 305.667 298.924 305.667C290.996 306.353 283.413 306.695 275.83 307.723C273.072 308.066 270.314 308.408 267.557 308.408C267.212 308.408 266.867 308.408 266.523 308.408C266.178 308.408 266.178 308.408 265.833 308.408C263.076 308.751 260.318 309.093 257.561 309.436C256.871 309.436 256.182 309.436 255.492 309.779C254.458 309.779 253.08 310.121 252.045 310.121C251.356 310.121 250.667 310.464 249.977 310.464C247.909 310.806 246.186 310.806 244.462 311.149C243.773 311.149 242.739 311.492 242.049 311.492C241.015 311.492 239.981 311.834 238.947 311.834C238.258 311.834 237.224 312.177 236.534 312.177C235.5 312.177 234.466 312.519 233.777 312.519C232.053 312.862 230.674 312.862 228.951 313.204C228.261 313.204 227.227 313.547 226.538 313.547C225.504 313.547 224.47 313.89 223.436 313.89C222.746 313.89 221.712 314.232 221.023 314.232C219.989 314.575 218.955 314.575 217.576 314.917C216.542 314.917 215.852 315.26 214.818 315.26C213.439 315.603 212.405 315.603 211.027 315.945C210.337 315.945 209.648 316.288 208.958 316.288C207.924 316.63 206.89 316.63 205.856 316.973C205.167 316.973 204.822 317.316 204.133 317.316C202.754 317.658 201.375 318.001 199.996 318.343C199.652 318.343 198.962 318.686 198.617 318.686C197.583 319.029 196.549 319.371 195.515 319.371C195.17 319.371 194.481 319.714 194.136 319.714C193.102 320.056 191.724 320.399 190.689 320.742C190.345 320.742 190.345 320.742 190 321.084C188.621 321.427 187.587 321.769 186.553 322.112C186.208 322.112 185.864 322.454 185.519 322.454C184.485 322.797 183.795 323.14 182.761 323.482C182.417 323.482 182.072 323.825 181.727 323.825C180.693 324.167 179.659 324.51 178.625 325.195C178.28 325.195 178.28 325.538 177.936 325.538C177.246 325.88 176.557 326.223 175.867 326.566C175.523 326.566 175.178 326.908 175.178 326.908C174.489 327.251 173.455 327.936 172.765 328.279C172.076 328.621 171.386 329.306 170.697 329.649C170.352 329.649 170.352 329.992 170.352 329.992C170.008 330.334 169.318 330.677 168.974 331.019L168.629 331.362C168.284 331.704 167.939 332.39 167.595 332.732C167.595 332.732 167.595 333.075 167.25 333.075C166.905 333.417 166.905 333.76 166.561 334.445V334.788C166.561 335.473 166.216 335.816 166.216 336.501C166.216 341.297 171.042 344.723 181.038 347.806C206.89 355.686 264.11 359.112 327.189 356.371C331.67 356.029 336.152 356.029 340.288 355.686H340.633C343.045 355.686 345.114 355.343 347.527 355.343C347.871 355.343 348.216 355.343 348.216 355.343C350.284 355.343 352.352 355.001 354.765 355.001C355.11 355.001 355.455 355.001 355.799 355.001C357.867 355.001 359.936 354.658 362.004 354.658C362.349 354.658 363.038 354.658 363.383 354.658C365.451 354.658 367.174 354.316 369.242 354.316C369.932 354.316 370.277 354.316 370.966 354.316C372.689 354.316 374.413 353.973 376.481 353.973C377.17 353.973 377.86 353.973 378.549 353.63C380.273 353.63 381.996 353.288 383.72 353.288C384.409 353.288 385.098 353.288 385.788 352.945C387.511 352.945 388.89 352.603 390.614 352.603C391.303 352.603 391.992 352.603 393.027 352.26C394.405 352.26 396.129 351.917 397.508 351.917C398.197 351.917 399.231 351.575 399.92 351.575C401.299 351.575 402.678 351.232 404.057 351.232C405.091 351.232 405.78 350.89 406.814 350.89C408.193 350.89 409.227 350.547 410.606 350.547C411.64 350.547 412.674 350.204 413.364 350.204C414.398 350.204 415.777 349.862 416.811 349.862C417.845 349.862 418.879 349.519 419.913 349.519C420.947 349.519 421.981 349.177 423.015 349.177C424.049 348.834 425.083 348.834 426.462 348.492C427.496 348.492 428.186 348.149 429.22 348.149C430.599 347.806 431.633 347.806 433.011 347.464C433.701 347.464 434.39 347.121 435.08 347.121C437.148 346.779 438.871 346.436 440.595 346.093C486.784 336.501 486.784 327.251 486.784 324.167ZM190.345 345.408C177.936 341.64 177.591 338.214 177.591 337.871C177.591 337.529 177.936 329.649 219.989 320.742C246.53 315.26 281 311.149 318.227 309.436C320.64 309.436 323.398 309.093 325.811 309.093C384.064 306.695 437.492 309.779 462.311 317.316C474.72 321.084 475.064 324.51 475.064 324.853C475.409 333.417 429.22 346.779 352.008 352.26C351.663 352.26 351.663 352.26 351.318 352.26C349.25 352.26 347.182 352.603 344.769 352.603C344.08 352.603 343.39 352.603 342.701 352.603C340.977 352.603 338.909 352.945 336.841 352.945C336.152 352.945 335.117 352.945 334.428 352.945C331.67 352.945 328.913 353.288 326.155 353.288C268.591 356.029 214.818 352.945 190.345 345.408Z" fill="url(#paint10_linear_275_902)"/>
</g>
<path d="M452.686 325.313C452.686 309.52 449.583 294.414 444.068 280.681C365.815 287.548 286.529 287.548 208.277 281.024C203.796 292.354 201.038 304.714 200.349 317.417C283.082 333.553 368.918 336.3 452.686 325.313Z" fill="url(#paint11_linear_275_902)"/>
<path d="M452.686 332.524C452.686 330.464 453.03 328.061 453.03 326.001C453.03 325.658 453.03 325.658 453.03 325.314C369.263 336.301 283.427 333.554 200.693 317.075C200.349 320.165 200.349 322.911 200.349 326.001C200.349 327.031 200.349 328.404 200.349 329.434C283.082 342.481 368.229 341.107 452.686 332.524Z" fill="url(#paint12_linear_275_902)"/>
<path d="M444 281.362C441.24 273.535 437.789 266.081 433.649 259C405.702 259.745 377.409 260.491 349.462 261.236C305.643 262.354 261.48 263.472 217.661 260.491C213.865 267.199 210.76 274.281 208 281.735C286.667 288.816 365.678 288.816 444 281.362Z" fill="url(#paint13_linear_275_902)"/>
<defs>
<filter id="filter0_d_275_902" x="0" y="0" width="653" height="652" filterUnits="userSpaceOnUse" color-interpolation-filters="sRGB">
<feFlood flood-opacity="0" result="BackgroundImageFix"/>
<feColorMatrix in="SourceAlpha" type="matrix" values="0 0 0 0 0 0 0 0 0 0 0 0 0 0 0 0 0 0 127 0" result="hardAlpha"/>
<feOffset/>
<feGaussianBlur stdDeviation="100"/>
<feComposite in2="hardAlpha" operator="out"/>
<feColorMatrix type="matrix" values="0 0 0 0 0.184314 0 0 0 0 0.0470588 0 0 0 0 0.0156863 0 0 0 1 0"/>
<feBlend mode="normal" in2="BackgroundImageFix" result="effect1_dropShadow_275_902"/>
<feBlend mode="normal" in="SourceGraphic" in2="effect1_dropShadow_275_902" result="shape"/>
</filter>
<linearGradient id="paint0_linear_275_902" x1="332.151" y1="272.889" x2="291.39" y2="200.923" gradientUnits="userSpaceOnUse">
<stop offset="0.0209444" stop-color="#8D5E41"/>
<stop offset="1" stop-color="#A1A1A1"/>
</linearGradient>
<linearGradient id="paint1_linear_275_902" x1="326.222" y1="204.72" x2="318.393" y2="255.381" gradientUnits="userSpaceOnUse">
<stop offset="0.0209444" stop-color="#8D5E41"/>
<stop offset="1" stop-color="#A1A1A1"/>
</linearGradient>
<linearGradient id="paint2_linear_275_902" x1="325.05" y1="233.162" x2="331.601" y2="315.004" gradientUnits="userSpaceOnUse">
<stop offset="0.0209444" stop-color="#8D5E41"/>
<stop offset="1" stop-color="#A1A1A1"/>
</linearGradient>
<linearGradient id="paint3_linear_275_902" x1="222.951" y1="405.914" x2="425.181" y2="405.914" gradientUnits="userSpaceOnUse">
<stop stop-color="#7E838A"/>
<stop offset="1" stop-color="#8D5E41"/>
</linearGradient>
<linearGradient id="paint4_linear_275_902" x1="319.466" y1="392.871" x2="332.801" y2="321.978" gradientUnits="userSpaceOnUse">
<stop offset="0.0209444" stop-color="#8D5E41"/>
<stop offset="1" stop-color="#A1A1A1"/>
</linearGradient>
<radialGradient id="paint5_radial_275_902" cx="0" cy="0" r="1" gradientUnits="userSpaceOnUse" gradientTransform="translate(293.589 295.845) scale(142.403 141.841)">
<stop stop-color="white"/>
<stop offset="0.0916549" stop-color="#F9F9F9"/>
<stop offset="0.2174" stop-color="#E7E7E7"/>
<stop offset="0.3628" stop-color="#CACACA"/>
<stop offset="0.5231" stop-color="#A2A2A2"/>
<stop offset="0.6955" stop-color="#6E6E6E"/>
<stop offset="0.8752" stop-color="#303030"/>
<stop offset="1"/>
</radialGradient>
<radialGradient id="paint6_radial_275_902" cx="0" cy="0" r="1" gradientUnits="userSpaceOnUse" gradientTransform="translate(276.929 271.526) scale(193.97 193.203)">
<stop stop-color="white"/>
<stop offset="0.0669381" stop-color="#E9E9E9"/>
<stop offset="0.3323" stop-color="#979797"/>
<stop offset="0.5676" stop-color="#565656"/>
<stop offset="0.764" stop-color="#282828"/>
<stop offset="0.9141" stop-color="#0B0B0B"/>
<stop offset="1"/>
</radialGradient>
<radialGradient id="paint7_radial_275_902" cx="0" cy="0" r="1" gradientUnits="userSpaceOnUse" gradientTransform="translate(313.983 316.158) scale(148.272 147.686)">
<stop offset="0.7677"/>
<stop offset="0.8078" stop-color="#000405"/>
<stop offset="0.8572" stop-color="#000E14"/>
<stop offset="0.9115" stop-color="#00202D"/>
<stop offset="0.9688" stop-color="#003850"/>
<stop offset="1" stop-color="#004866"/>
</radialGradient>
<linearGradient id="paint8_linear_275_902" x1="325.92" y1="375.281" x2="325.92" y2="294.187" gradientUnits="userSpaceOnUse">
<stop stop-color="white"/>
<stop offset="0.0854644" stop-color="#FAFAFA"/>
<stop offset="0.1907" stop-color="#EBEBEB"/>
<stop offset="0.3065" stop-color="#D2D2D2"/>
<stop offset="0.4296" stop-color="#AFAFAF"/>
<stop offset="0.5587" stop-color="#828282"/>
<stop offset="0.6929" stop-color="#4B4B4B"/>
<stop offset="0.8286" stop-color="#0B0B0B"/>
<stop offset="0.8506"/>
</linearGradient>
<linearGradient id="paint9_linear_275_902" x1="337.975" y1="453.358" x2="316.44" y2="229.78" gradientUnits="userSpaceOnUse">
<stop stop-color="white"/>
<stop offset="0.1391" stop-color="#F9FCFB"/>
<stop offset="0.3296" stop-color="#E7F2F0"/>
<stop offset="0.55" stop-color="#CAE3DE"/>
<stop offset="0.791" stop-color="#A2CEC5"/>
<stop offset="0.8093" stop-color="#9FCCC3"/>
<stop offset="1" stop-color="#9FCCC3"/>
</linearGradient>
<linearGradient id="paint10_linear_275_902" x1="320.214" y1="378.856" x2="324.191" y2="347.351" gradientUnits="userSpaceOnUse">
<stop stop-color="white"/>
<stop offset="0.1391" stop-color="#F9FCFB"/>
<stop offset="0.3296" stop-color="#E7F2F0"/>
<stop offset="0.55" stop-color="#CAE3DE"/>
<stop offset="0.791" stop-color="#A2CEC5"/>
<stop offset="0.8093" stop-color="#9FCCC3"/>
<stop offset="1" stop-color="#9FCCC3"/>
</linearGradient>
<linearGradient id="paint11_linear_275_902" x1="320.444" y1="332.253" x2="336.68" y2="284.584" gradientUnits="userSpaceOnUse">
<stop stop-color="#AB6046"/>
<stop offset="1" stop-color="#AB7246"/>
</linearGradient>
<linearGradient id="paint12_linear_275_902" x1="199.953" y1="328.094" x2="452.749" y2="328.094" gradientUnits="userSpaceOnUse">
<stop stop-color="#7E838A"/>
<stop offset="0.1275" stop-color="#827875"/>
<stop offset="0.3062" stop-color="#876D5E"/>
<stop offset="0.4992" stop-color="#8A644E"/>
<stop offset="0.715" stop-color="#8C6044"/>
<stop offset="1" stop-color="#8D5E41"/>
</linearGradient>
<linearGradient id="paint13_linear_275_902" x1="315.353" y1="231.706" x2="338.637" y2="324.085" gradientUnits="userSpaceOnUse">
<stop offset="0.0209444" stop-color="#8D5E41"/>
<stop offset="1" stop-color="#A1A1A1"/>
</linearGradient>
</defs>
</svg>
